<?xml version="1.0" encoding="utf-8"?>
<!-- Generator: Adobe Illustrator 21.1.0, SVG Export Plug-In . SVG Version: 6.00 Build 0)  -->
<svg version="1.1" id="Layer_1" xmlns="http://www.w3.org/2000/svg" xmlns:xlink="http://www.w3.org/1999/xlink" x="0px" y="0px"
	 viewBox="0 0 329.28 271.89" style="enable-background:new 0 0 329.28 271.89;" xml:space="preserve">
<g>
	<path style="fill:#112135;" d="M264.393,155.336c-15.899,0-28.788,12.889-28.788,28.788h57.577
		C293.181,168.225,280.293,155.336,264.393,155.336z"/>
	<path style="fill:#112135;" d="M84.176,155.336c-15.899,0-28.788,12.889-28.788,28.788h57.577
		C112.964,168.225,100.075,155.336,84.176,155.336z"/>
	<path style="fill:#284D72;" d="M298.102,135.139l-30.698-9.604l-39.359-34.599c-4.685-4.119-10.71-6.39-16.949-6.39H41.204
		c-4.367,0-8.241,2.804-9.606,6.952l-9.292,28.247v64.379h33.081c0-15.899,12.889-28.788,28.788-28.788s28.788,12.889,28.788,28.788
		h122.641c0-15.899,12.889-28.788,28.788-28.788s28.788,12.889,28.788,28.788h15.675v-34.352
		C308.856,143.067,304.5,137.14,298.102,135.139z"/>
	<path style="fill:#91AECE;" d="M189.053,97.823v25.937c0,2.387,1.935,4.323,4.323,4.323h56.231c1.471,0,2.177-1.806,1.097-2.804
		l-30.407-28.077c-3.115-2.876-7.198-4.473-11.438-4.473h-14.712C191.334,92.728,189.053,95.009,189.053,97.823z"/>
	<path style="fill:#91AECE;" d="M271.18,126.716l-3.777-1.182L228.766,91.57l0,0c-2.169,0.956-2.672,3.808-0.96,5.448l31.531,30.213
		c0.581,0.556,1.342,0.884,2.145,0.921C264.333,128.284,271.047,128.411,271.18,126.716z"/>
	<circle style="fill:#111011;" cx="84.176" cy="184.124" r="22.926"/>
	<circle style="fill:#BEBDBE;" cx="84.176" cy="184.124" r="11.942"/>
	<circle style="fill:#6A97CE;" cx="84.176" cy="184.124" r="4.886"/>
	<circle style="fill:#111011;" cx="264.393" cy="184.124" r="22.926"/>
	<circle style="fill:#BEBDBE;" cx="264.393" cy="184.124" r="11.942"/>
	<circle style="fill:#6A97CE;" cx="264.393" cy="184.124" r="4.886"/>
	<path style="fill:#1C3A5D;" d="M22.307,173.767v10.357h33.081c0-3.651,0.681-7.143,1.921-10.357H22.307z"/>
	<path style="fill:#2B2E35;" d="M30.886,184.124h-9.309c-3.551,0-6.431-3.489-6.431-7.794v-3.488c0-4.304,2.879-7.794,6.431-7.794
		h2.878c3.551,0,6.431,3.489,6.431,7.794V184.124z"/>
	<g>
		<path style="fill:#1C3A5D;" d="M111.043,173.767c1.24,3.214,1.921,6.706,1.921,10.357h122.641c0-3.651,0.681-7.143,1.921-10.357
			H111.043z"/>
		<path style="fill:#1C3A5D;" d="M291.26,173.767c1.24,3.214,1.921,6.706,1.921,10.357h15.675v-10.357H291.26z"/>
	</g>
	<path style="fill:#2B2E35;" d="M310.429,184.124h-10.527v-13.722c0-2.957,2.397-5.354,5.354-5.354h5.173
		c4.077,0,7.382,3.305,7.382,7.382v4.311C317.81,180.819,314.505,184.124,310.429,184.124z"/>
	<path style="fill:#91AECE;" d="M22.307,119.745h5.275c1.546,0,2.914-0.998,3.387-2.469l6.397-19.901
		c0.738-2.297-0.975-4.647-3.387-4.647h-2.785L22.307,119.745z"/>
	<path style="fill:#B2623F;" d="M26.699,160.85h-3.142c-1.78,0-3.224-1.443-3.224-3.224v-19.821c0-1.781,1.443-3.224,3.224-3.224
		h3.142c1.781,0,3.224,1.443,3.224,3.224v19.821C29.923,159.407,28.48,160.85,26.699,160.85z"/>
	<path style="fill:#91AECE;" d="M49.335,128.222h61.339c3.77,0,6.826-3.056,6.826-6.826V99.554c0-3.77-3.056-6.826-6.826-6.826
		H53.512c-3.276,0-6.089,2.327-6.705,5.544l-4.177,21.842C41.826,124.322,45.051,128.222,49.335,128.222z"/>
	<g>
		<path style="fill:#1C3A5D;" d="M230.445,176.698H125.508c-2.49,0-4.516-2.026-4.516-4.516V93.214c0-2.49,2.026-4.516,4.516-4.516
			h88.675c1.087,0,2.127,0.405,2.928,1.14l46.691,42.853c0.891,0.818,1.402,1.981,1.402,3.19v12.305c0,2.245-1.76,4.142-4.006,4.317
			c-18.452,1.439-24.764,15.276-26.621,21.159C234.004,175.478,232.343,176.698,230.445,176.698z M125.508,90.319
			c-1.596,0-2.895,1.299-2.895,2.895v78.968c0,1.596,1.299,2.895,2.895,2.895h104.937c1.188,0,2.227-0.764,2.586-1.902
			c1.956-6.196,8.604-20.771,28.041-22.287c1.408-0.11,2.511-1.296,2.511-2.701v-12.305c0-0.757-0.32-1.484-0.877-1.996
			l-46.69-42.853c-0.501-0.46-1.152-0.713-1.832-0.713h-88.676V90.319z"/>
	</g>
	<path style="fill:#1C3A5D;" d="M201.261,137.445h-10.653c-0.859,0-1.555-0.696-1.555-1.555l0,0c0-0.859,0.696-1.555,1.555-1.555
		h10.653c0.859,0,1.555,0.696,1.555,1.555l0,0C202.817,136.749,202.12,137.445,201.261,137.445z"/>
	<path style="fill:#1C3A5D;" d="M142.359,137.445h-10.653c-0.859,0-1.555-0.696-1.555-1.555l0,0c0-0.859,0.696-1.555,1.555-1.555
		h10.653c0.859,0,1.555,0.696,1.555,1.555l0,0C143.914,136.749,143.218,137.445,142.359,137.445z"/>
	<rect x="177.343" y="89.74" style="fill:#1C3A5D;" width="2.084" height="87.536"/>
	<path style="fill:#91AECE;" d="M160.811,127.95h-21.722c-4.936,0-8.938-4.002-8.938-8.938v-17.347c0-4.936,4.001-8.938,8.938-8.938
		h21.722c4.936,0,8.938,4.002,8.938,8.938v17.347C169.749,123.949,165.747,127.95,160.811,127.95z"/>
	<path style="fill:#91AECE;" d="M297.763,145.941v2.452c0,3.834,3.108,6.942,6.942,6.942h4.15v-5.564
		c0-4.129-1.654-7.962-4.418-10.766C300.728,139.147,297.763,142.197,297.763,145.941z"/>
</g>
<path style="fill:#00A79D;" d="M204.767,38.857c-11.582-0.458-14.964,11.288-13.846,16.574c1.132,5.353,13.062,19.413,13.846,19.413
	s12.714-13.992,13.846-19.413C219.717,50.143,216.348,38.4,204.767,38.857z M204.767,58.582c-4.662,0-8.441-3.336-8.441-7.451
	s3.779-7.451,8.441-7.451c4.662,0,8.441,3.336,8.441,7.451S209.429,58.582,204.767,58.582z"/>
<circle style="fill:none;stroke:#ED2224;stroke-width:20.7423;stroke-miterlimit:10;" cx="166" cy="135" r="105.555"/>
<line style="fill:none;stroke:#ED2224;stroke-width:20.7423;stroke-miterlimit:10;" x1="89.999" y1="58.001" x2="247.499" y2="215.501"/>
</svg>
