<?xml version="1.0" encoding="utf-8"?>
<!-- Generator: Adobe Illustrator 21.1.0, SVG Export Plug-In . SVG Version: 6.00 Build 0)  -->
<svg version="1.1" id="Layer_1" xmlns="http://www.w3.org/2000/svg" xmlns:xlink="http://www.w3.org/1999/xlink" x="0px" y="0px"
	 viewBox="0 0 190 228" style="enable-background:new 0 0 190 228;" xml:space="preserve">
<g>
	<rect x="17.95" y="97.562" style="fill:#FFD34E;" width="139.851" height="118.895"/>
	<path style="fill:#9F6627;" d="M95.435,154.472c3.699-2.453,6.142-6.652,6.142-11.425c0-7.566-6.137-13.703-13.703-13.703
		c-7.565,0-13.698,6.137-13.698,13.703c0,4.773,2.441,8.972,6.14,11.425l-6.667,30.202h14.225h14.23L95.435,154.472z"/>
	<g>
		<path style="fill:#D2D3D4;" d="M146.685,97.562h-22.034V66.269c0.002-0.28-0.041-16.567-10.27-26.848
			c-5.918-5.946-14.51-8.96-25.538-8.96h-1.941c-11.088,0-19.717,3.05-25.639,9.068C51.129,49.825,51.095,65.934,51.099,66.094
			v31.468H29.065V66.269c-0.014-0.856-0.206-25.231,16.497-42.195C55.779,13.692,69.688,8.429,86.902,8.429h1.941
			c17.216,0,31.128,5.263,41.347,15.645c16.698,16.965,16.508,41.339,16.492,42.368L146.685,97.562z"/>
	</g>
</g>
<g>
	
		<ellipse transform="matrix(0.1435 -0.9896 0.9896 0.1435 2.3628 268.2473)" style="fill:#66BC46;" cx="156.158" cy="132.759" rx="25.843" ry="25.843"/>
	<g>
		<path style="fill:#FFFFFF;" d="M161.626,115.19c-5.789,0-10.469,4.68-10.469,10.469c0,1.232,0.246,2.463,0.616,3.695
			l-12.932,12.932v6.158h6.158v-3.695h3.695v-3.695h3.695l5.542-5.542c1.109,0.369,2.34,0.616,3.695,0.616
			c5.789,0,10.469-4.68,10.469-10.469C172.095,119.87,167.415,115.19,161.626,115.19z M164.705,126.275
			c-2.094,0-3.695-1.601-3.695-3.695c0-2.094,1.601-3.695,3.695-3.695s3.695,1.601,3.695,3.695
			C168.4,124.674,166.799,126.275,164.705,126.275z"/>
	</g>
</g>
</svg>
