<?xml version="1.0" encoding="utf-8"?>
<!-- Generator: Adobe Illustrator 21.1.0, SVG Export Plug-In . SVG Version: 6.00 Build 0)  -->
<svg version="1.1" id="Layer_1" xmlns="http://www.w3.org/2000/svg" xmlns:xlink="http://www.w3.org/1999/xlink" x="0px" y="0px"
	 viewBox="0 0 329.28 132.333" style="enable-background:new 0 0 329.28 132.333;" xml:space="preserve">
<rect x="-7.333" y="77.907" style="fill:#BABABA;" width="354.667" height="44.483"/>
<polygon style="fill:#FDFEFE;" points="74.966,96.384 70.315,98.917 26.497,98.917 31.148,96.384 "/>
<polygon style="fill:#FDFEFE;" points="19.298,96.384 14.077,98.917 -35.112,98.917 -29.891,96.384 "/>
<polygon style="fill:#FDFEFE;" points="133.555,98.92 86.5,98.92 91.305,96.386 138.361,96.386 "/>
<polygon style="fill:#FDFEFE;" points="194.448,98.92 147.395,98.92 152.2,96.386 199.254,96.386 "/>
<polygon style="fill:#FDFEFE;" points="254.367,98.92 210,98.92 214.531,96.386 258.898,96.386 "/>
<polygon style="fill:#FDFEFE;" points="319.782,96.384 315.068,98.917 270.502,98.917 275.216,96.384 "/>
<path style="fill:#E8E8E8;" d="M315.915,69.139v-7.287h-1.446v-6.373h-7.681V42.005h-5.046v-4.946h-13.127v-5.026h-7.681v5.026
	h-1.253v-6.138h-4.369v13.494h-2.662V17.272h-13.3V28.33h-4.097V2.89h-3.932v45.822h-1.197v-20.62h-1.977V11.197h-8.746v12.072
	h-4.34v-5.551h-3.404v5.551h-2.012l-5.551-0.189h-2.758v9.959h-0.046v1.935h0.046v13.739h-5.316V35.016h-5.046v12.95h-2.89v6.063
	h-1.218V13.712h-14.764v15.606h-7.114V28.33h-5.178v3.9h-1.346v2.043H176.7v2.786h1.767V57.07h-0.087v4.781h-2.897V44.415h1.58
	v-2.298h-1.58v-1.685h-1.253v-3.218h-0.489V28.33h-2.003l-0.076-2.716h-7.689v2.716h-1.359v6.643h-0.903v-0.979h-2.803v0.979h-2.876
	v2.241h-1.176v4.451h-3.882v20.187h-1.364V48.215h-0.914V37.522h-3.7V30.93h-9.206v8.429h-4.158v1.043h-3.911v6.771h-3.075v12.523
	h-10.302v10.029h-7.8v8.172h17.407v0.318h163.632V78.03h23.975v0.149H332v-9.04H315.915z M126.918,64.383h-1.461v-1.606h1.461
	V64.383z M126.983,61.421h-1.526v-1.606h1.526V61.421z M126.983,58.459h-1.526v-1.606h1.526V58.459z M126.983,55.497h-1.526v-1.606
	h1.526V55.497z M126.983,52.534h-1.526v-1.606h1.526V52.534z M126.983,49.572h-1.526v-1.606h1.526V49.572z M129.799,61.263h-1.141
	v-1.448h1.141V61.263z M129.799,57.673h-1.141v-0.82h1.141V57.673z M129.799,54.082h-1.141v-0.191h1.141V54.082z M129.799,52.534
	h-1.141v-0.399h1.141V52.534z M129.799,49.572h-1.141v-1.027h1.141V49.572z M130.421,46.901h-1.763v-1.947h1.763V46.901z
	 M130.421,43.31h-1.763v-1.947h1.763V43.31z M133.612,53.459h-1.068v-1.124h1.068V53.459z M133.612,46.901h-1.068v-0.288h1.068
	V46.901z M133.612,42.013h-1.068v-0.65h1.068V42.013z M135.789,61.685h-0.866v-1.124h0.866V61.685z M135.789,55.962h-0.866v-1.124
	h0.866V55.962z M135.789,50.239h-0.866v-1.123h0.866V50.239z M135.789,44.516h-0.866v-1.124h0.866V44.516z M138.077,47.018h-0.776
	V46.66h0.776V47.018z M138.077,34.147h-1.233v-1.362h1.233V34.147z M140.825,44.118h-1.223v-1.362h1.223V44.118z M140.825,37.181
	h-1.233v-1.362h1.233V37.181z M143.572,61.026h-0.766v-1.362h0.766V61.026z M143.572,54.089h-0.766v-1.362h0.766V54.089z
	 M143.572,47.152h-0.766V45.79h0.766V47.152z M143.572,40.214h-1.233v-1.362h1.233V40.214z M146.319,56.239h-0.96v-0.478h0.96
	V56.239z M146.319,50.185h-0.96v0L146.319,50.185L146.319,50.185z M146.319,43.248h-1.234v-1.362h1.234V43.248z M148.758,61.495
	h-0.062v-0.797h0.062V61.495z M148.758,59.743h-0.062v-0.797h0.062V59.743z M148.758,57.991h-0.062v-0.797h0.062V57.991z
	 M148.758,56.239h-0.062v-0.797h0.062V56.239z M148.758,54.487h-0.062v-0.797h0.062V54.487z M148.758,52.734h-0.062v-0.797h0.062
	V52.734z M148.758,50.982h-0.062v-0.797h0.062V50.982z M151.647,59.886L151.647,59.886l-0.001-0.966h0.001V59.886z M151.647,57.763
	L151.647,57.763l-0.001-0.966h0.001V57.763z M151.647,55.639L151.647,55.639l-0.001-0.966h0.001V55.639z M151.647,53.515
	L151.647,53.515l-0.001-0.966h0.001V53.515z M151.647,51.391L151.647,51.391l-0.001-0.966h0.001V51.391z M151.647,49.267
	L151.647,49.267l-0.001-0.966h0.001V49.267z M151.647,47.143L151.647,47.143l-0.001-0.966h0.001V47.143z M151.647,45.019
	L151.647,45.019l-0.001-0.966h0.001V45.019z M154.855,59.886h-0.782V58.92h0.782V59.886z M154.855,57.763h-0.782v-0.966h0.782
	V57.763z M154.855,55.639h-0.782v-0.966h0.782V55.639z M154.855,53.515h-0.782v-0.966h0.782V53.515z M154.855,51.391h-0.782v-0.966
	h0.782V51.391z M154.855,49.267h-0.782v-0.966h0.782V49.267z M154.855,47.143h-0.782v-0.966h0.782V47.143z M154.855,45.019h-0.782
	v-0.966h0.782V45.019z M157.884,50.546h-1.329v-1.737h1.329V50.546z M157.884,40.89h-1.65v-1.737h1.65V40.89z M162.613,40.89h-0.903
	v-1.737h0.903V40.89z M166.111,44.49h-1.622v-2.105h1.622V44.49z M166.111,32.785h-1.906V30.68h1.906V32.785z M168.581,49.876
	h-1.096v-2.105h1.096V49.876z M170.345,37.214h-0.599v0.245h-1.308v-2.105h1.906V37.214z M172.251,32.785h-1.906V30.68h1.906V32.785
	z M190.112,41.758h-1.65v-1.737h1.65V41.758z M190.112,35.833h-1.65v-1.736h1.65V35.833z M194.166,23.499h1.906v2.105h-1.906V23.499
	z M194.166,36.407h1.906v2.105h-1.906V36.407z M196.728,56.208h-1.608v-2.105h1.608V56.208z M203.336,33.838h-1.906v-2.105h1.906
	V33.838z M203.336,26.656h-1.906v-2.105h1.906V26.656z M208.086,61.623h-1.218v-2.441h1.218V61.623z M216.345,61.892h-0.21v-1.489
	h0.21V61.892z M224.096,27.406h-1.219V25.67h1.219V27.406z M231.658,48.712h-2.012V25.614h2.012V48.712z M239.402,48.905h-2.392
	v-3.238h2.392V48.905z M241.179,14.336h1.906v2.105h-1.906V14.336z M244.038,25.604h-1.906v-2.105h1.906V25.604z M261.397,34.89
	h-3.894v-2.105h3.894V34.89z M263.895,23.499h3.894v2.105h-3.894V23.499z M269.736,39.071h-3.894v-2.105h3.894V39.071z
	 M274.115,48.712h-1.464v-2.637h1.464V48.712z M281.649,59.611h-1.967v-9.696h1.967V59.611z M281.81,42.385h-2.129v-3.314h2.129
	V42.385z M290.893,59.841h-3.001v-3.314h3.001V59.841z M292.394,46.146h-3.001v-3.314h3.001V46.146z M300.359,42.385h-3.001v-3.314
	h3.001V42.385z M304.266,56.813h-3.001v-3.314h3.001V56.813z"/>
<g>
	<path style="fill:#FF5B1A;" d="M283.453,80.223l-3.375-7.971c-0.419-0.996-1.11-2.63-1.537-3.622l-3.364-7.974
		c-0.209-0.494-0.483-0.691-0.768-0.6c-0.25,0.079-0.515,0.414-0.722,0.975c-0.011,0.033-0.034,0.075-0.047,0.113l-3.364,10.11
		c-0.426,1.264-1.119,3.336-1.535,4.597l-3.378,10.114c-0.413,1.26-0.076,2.072,0.769,1.804l16.552-5.254
		C283.529,82.247,283.869,81.22,283.453,80.223z M267.766,84.436l3.324-9.978l2.957-8.875l2.96,6.996l3.321,7.869
		C280.328,80.449,267.766,84.436,267.766,84.436z"/>
	<path style="fill:#F71919;" d="M281.995,80.686l-3.366-7.974c-0.416-0.997-1.107-2.631-1.534-3.623l-3.364-7.974
		c-0.011-0.031-0.034-0.057-0.042-0.085c-0.011,0.033-0.034,0.075-0.047,0.113l-3.364,10.11c-0.426,1.264-1.119,3.336-1.535,4.597
		l-3.378,10.114c-0.413,1.26-0.076,2.072,0.769,1.804l2.148-0.682v-1.368l2.151-0.683v1.368l10.797-3.427
		c0.472-0.15,0.787-0.524,0.899-1.006C282.226,81.578,282.181,81.133,281.995,80.686z M267.766,84.436l3.324-9.978l2.957-8.875
		l2.96,6.996l3.321,7.869C280.328,80.449,267.766,84.436,267.766,84.436z"/>
	<polygon style="fill:#4F190B;" points="281.053,80.219 280.328,80.449 277.007,72.58 274.047,65.584 274.409,64.493 277.73,72.35 	
		"/>
	<polygon style="fill:#818181;" points="268.28,85.719 270.431,85.036 270.431,87.906 268.28,88.589 	"/>
	<polygon style="fill:#595A5A;" points="266.924,87.518 268.281,87.087 268.281,88.59 266.924,89.021 	"/>
	<polygon style="fill:#818181;" points="280.59,81.812 282.419,81.231 282.419,84.101 280.59,84.682 	"/>
	<polygon style="fill:#595A5A;" points="279.435,83.546 280.59,83.18 280.59,84.683 279.435,85.049 	"/>
	<path style="fill:#4F190B;" d="M274.409,60.055c-0.25,0.079-0.515,0.414-0.722,0.975c-0.011,0.033-0.034,0.075-0.047,0.113
		l-3.364,10.11c-0.426,1.264-1.119,3.336-1.535,4.597l-3.378,10.114c-0.413,1.26-0.076,2.072,0.769,1.804l-1.445,0.459
		c-0.842,0.267-1.184-0.543-0.766-1.805l3.375-10.113c0.416-1.261,1.108-3.334,1.524-4.594l3.375-10.113
		c0.207-0.626,0.481-0.997,0.769-1.088C272.964,60.513,274.409,60.055,274.409,60.055z"/>
</g>
<g style="display:none;">
	<path style="display:inline;fill:#CCCCCC;" d="M47.242,31.304c-2.431,0.767-1.243,4.534,1.187,3.769
		C50.859,34.306,49.671,30.536,47.242,31.304z"/>
	<path style="display:inline;fill:#CCCCCC;" d="M69.466,53.583c0.437-1.429,0.453-3-0.061-4.524
		c-0.327-0.967-0.834-1.822-1.471-2.541c0.994-1.012,1.408-2.522,0.923-3.958c-0.687-2.033-2.891-3.124-4.924-2.437
		c-0.292,0.098-0.557,0.235-0.808,0.391c-0.625-3.314-3.517-5.837-7.018-5.871c-3.984-0.038-7.245,3.16-7.284,7.145
		c-0.004,0.463,0.039,0.916,0.118,1.356c-1.543,0.81-2.32,2.633-1.744,4.336c0.492,1.457,1.825,2.383,3.274,2.441
		c-0.597,1.287-0.725,2.795-0.235,4.245c1.014,3.001,4.268,4.611,7.268,3.598c0.229-0.077,0.448-0.172,0.66-0.275
		c1.481,1.031,3.317,1.517,5.173,1.276c0.537,0.009,1.133-0.078,1.744-0.257c0.033,0.155,0.073,0.309,0.124,0.462
		c0.533,1.577,1.932,2.613,3.488,2.764c-0.363,0.473-0.491,1.112-0.286,1.719c0.327,0.968,1.377,1.488,2.345,1.161
		s1.488-1.377,1.161-2.345c-0.154-0.455-0.47-0.805-0.859-1.021c1.711-0.936,2.56-2.988,1.914-4.9
		C72.435,54.767,71.028,53.729,69.466,53.583z"/>
	<path style="display:inline;opacity:0.67;fill:#EDF3F4;" d="M103.322,54.215c0,0,23.681-12.531,28.186-12.845
		c0,0,2.414-0.247,2.2,0.314c0,0-18.965,8.173-23.261,10.687C110.448,52.372,104.474,55.01,103.322,54.215z"/>
	<path style="display:inline;fill:#910523;" d="M131.509,41.37c0,0,13.093-5.808,42.784-3.159c5.061,0.452,11.479,0.993,16.335,2.87
		l-1.435,0.441l13.355,5.188l8.499,3.973c0,0,2.649,1.104,2.98,1.104s2.097-0.331,2.98-0.331c0.883,0,10.044,1.104,11.479,0.993
		c0,0,1.104-0.883,3.422,4.636c0,0,1.766,0.441,0,2.539l-0.993,2.318l0.11,4.194l2.539,3.09c0,0,1.104,0.11,1.104,1.324
		c0,1.214,0.441,5.629-0.662,7.616c0,0,0.662,1.545,0.11,1.987s0.11,1.766-3.09,1.656l-18.322,1.435c0,0-0.331-2.318-0.993-4.967
		l-0.773,0.221c0,0,0.662-10.375-12.914-11.92c0,0-15.121-0.773-14.349,18.322c0,0-13.245,0.221-17.218,0.221
		c-3.973,0-55.959-0.221-55.959-0.221s-0.221-5.85-1.324-6.733c0,0-1.987-11.479-14.017-11.589c0,0-14.569-0.221-13.134,17.77
		c0,0,0,0.993-2.097,0.773l-13.797-0.552c0,0-1.545-0.331-1.987-2.428c0,0-2.98-0.883-3.311-1.104s-0.662-2.98,0.11-3.09
		l-0.773,0.11c0,0-0.331-4.746-0.221-5.077c0.11-0.331,0.221-2.097,0.773-2.097c0.552,0-0.883-3.973,0.331-4.856
		s6.843-2.207,6.843-2.207s22.075-4.746,22.516-4.746c0.441,0,5.629-0.662,5.629-0.662s3.201-1.545,4.415-3.201l2.87-0.993
		c0,0,1.214,0.331,1.656,0.221c0.441-0.11,6.512-2.318,10.596-4.636l15.037-6.862c0,0,3.053-1.109,3.098-1.253
		C133.794,41.414,133.647,41.328,131.509,41.37z"/>
	<path style="display:inline;fill:#910523;" d="M67.015,35.242c0,0,9.334,2.547,12.126,5.536c0,0,15.522,12.338,16.797,13.861
		c1.276,1.523,0.597,1.228,0.597,1.228l2.323,2.085L97.374,57.9c0,0-2.785-0.402-4.754-2.065c0,0-15.071-13.003-21.272-17.311
		C71.348,38.524,67.623,35.453,67.015,35.242z"/>
	<circle style="display:inline;fill:#333333;" cx="95.486" cy="80.042" r="12.013"/>
	<circle style="display:inline;fill:#676767;" cx="95.486" cy="80.042" r="8.168"/>
	<circle style="display:inline;fill:#333333;" cx="197.797" cy="80.042" r="12.013"/>
	<circle style="display:inline;fill:#676767;" cx="197.797" cy="80.042" r="8.168"/>
	<path style="display:inline;opacity:0.67;fill:#EDF3F4;" d="M190.628,41.08c0,0,19.238,6.601,25.576,10.459
		c0,0-1.01,0.551-2.847,0.092c0,0-19.564-9.001-23.421-9.828C189.935,41.803,187.971,41.348,190.628,41.08z"/>
	<path style="display:inline;opacity:0.4;fill:#EDF3F4;" d="M121.38,56.6l28.972-1.656l3.145-13.906c0,0-21.347,0.4-33.437,10.216
		c0,0-4.309,4.353-4.309,5.015C115.751,56.931,120.552,56.6,121.38,56.6z"/>
	<path style="display:inline;opacity:0.4;fill:#EDF3F4;" d="M158.132,41.369l16.224,0.828c0,0,6.125,0.828,7.781,2.152l-0.662,9.271
		l-24.171,1.159C157.304,54.779,157.801,41.369,158.132,41.369z"/>
	<path style="display:inline;opacity:0.4;fill:#EDF3F4;" d="M192.07,51.137c0,0-6.457-5.463-8.774-6.291l-0.662,8.774
		C182.634,53.62,189.09,52.958,192.07,51.137z"/>
	<path style="display:inline;" d="M153.018,43.399c0,0-11.89-2.695-32.121,8.349c0,0-3.961,3.025-4.115,4.761
		c0,0-4.238-0.863,4.857-6.71c0,0,13.136-8.706,31.858-8.761L153.018,43.399z"/>
	<path style="display:inline;" d="M157.763,44.609c0,0,0.813-1.863,1.834-1.863s16.798,0.371,22.552,2.877l-0.011-1.274
		c0,0-1.064-2.861-24.183-2.988L157.763,44.609z"/>
	<path style="display:inline;fill:none;stroke:#000000;stroke-width:0.1104;stroke-miterlimit:10;" d="M103.322,62.824
		c0,0,82.339-7.064,110.373-5.519"/>
	<path style="display:inline;fill:#FF2C55;" d="M214.23,56.546c0,0,2.473-1.233,9.471-0.788c6.997,0.445,6.488,0.636,7.188,1.463
		c0,0,1.337,0.542,1.018,2.402l-0.993,2.318c0,0-2.188-1.285-6.195,0.623c0,0-7.443-4.008-10.369-5.089
		C214.35,57.475,213.474,56.952,214.23,56.546z"/>
	<path style="display:inline;fill:#EA0032;" d="M225.8,76.75h3.562c0,0,0.573,0.509-0.509,1.781l-3.435,0.064
		C225.418,78.595,224.4,78.658,225.8,76.75z"/>
	<path style="display:inline;fill:#F3E9E4;" d="M60.718,70.881c0,0,5.702-3.843,13.467-3.165l12.665-5.88l1.206-2.035
		c0,0,0.579,0.102-12.439,2.94c0,0-11.006,2.488-11.383,2.865c-0.377,0.377-3.166,1.432-3.468,2.035
		C60.465,68.244,60.444,70.277,60.718,70.881z"/>
	<path style="display:inline;fill:#60041C;" d="M115.054,55.314c0,0,0.297-3.089,2.346-3.065c0,0,1.928-0.145,2.459,0.096
		c0.529,0.24,2.124,0.99,2.032,2.643c-0.092,1.653-0.389,1.858-1.911,2.66c0,0-1.07,0.494-3.399-0.048
		C116.396,57.417,115.513,56.784,115.054,55.314z"/>
	<path style="display:inline;fill:#60041C;" d="M142.089,59.748c0,0,4.756-1.766,10.191-0.679c0,0,0.951,0.951-0.408,1.902
		c-1.359,0.951-6.25,1.902-9.376-0.136C142.497,60.835,141.817,60.02,142.089,59.748z"/>
	<path style="display:inline;fill:#60041C;" d="M181.646,57.834c0,0,4.756-1.766,10.191-0.679c0,0,0.951,0.951-0.408,1.902
		s-6.25,1.902-9.376-0.136C182.054,58.921,181.374,58.105,181.646,57.834z"/>
</g>
<path style="fill:#7F7F7F;" d="M57.428,87.148l23.658-3.757l84.932,0.819c0,0,61.403,0.286,66.432,1.346s8.55,5.304,8.55,5.304
	s-2.515,1.061-11.065,1.061S66.984,94.043,62.457,92.982S46.866,90.33,57.428,87.148z"/>
<path style="fill:#910523;" d="M234.667,70.551c0-1.214-1.104-1.324-1.104-1.324l-2.539-3.09l-0.11-4.194l0.993-2.318
	c1.766-2.097,0-2.539,0-2.539c-2.318-5.519-3.422-4.636-3.422-4.636c-1.435,0.11-10.596-0.993-11.479-0.993s-2.649,0.331-2.98,0.331
	s-2.98-1.104-2.98-1.104l-8.499-3.973l-13.508-5.151l1.588-0.478c-4.856-1.876-11.274-2.418-16.335-2.87
	c-29.69-2.649-42.784,3.159-42.784,3.159c2.138-0.042,2.285,0.044,2.2,0.314c-0.046,0.145-3.098,1.253-3.098,1.253l-15.037,6.862
	c-4.084,2.318-10.154,4.525-10.596,4.636s-1.656-0.221-1.656-0.221l-2.87,0.993c-1.214,1.656-4.415,3.201-4.415,3.201
	s-5.188,0.662-5.629,0.662c-0.442,0-22.516,4.746-22.516,4.746s-5.629,1.325-6.843,2.207c-1.214,0.883,0.221,4.856-0.331,4.856
	s-0.662,1.766-0.773,2.097c-0.11,0.331,0.221,5.077,0.221,5.077l0.773-0.11c-0.773,0.11-0.442,2.87-0.11,3.09
	s3.311,1.104,3.311,1.104c0.441,2.097,1.987,2.428,1.987,2.428l13.797,0.552c2.097,0.221,2.097-0.773,2.097-0.773
	c-1.435-17.991,13.134-17.77,13.134-17.77c12.031,0.11,14.017,11.589,14.017,11.589c1.104,0.883,1.325,6.733,1.325,6.733
	s51.986,0.221,55.959,0.221c3.973,0,17.218-0.221,17.218-0.221c-0.773-19.095,14.349-18.322,14.349-18.322
	c13.576,1.545,12.914,11.92,12.914,11.92l0.773-0.221c0.662,2.649,0.993,4.967,0.993,4.967l18.322-1.435
	c3.201,0.11,2.539-1.214,3.09-1.656c0.552-0.441-0.11-1.987-0.11-1.987C235.108,76.18,234.667,71.766,234.667,70.551z
	 M150.351,54.946l-28.972,1.656c-0.828,0-5.629,0.331-5.629-0.331c0-0.662,4.309-5.015,4.309-5.015
	c12.09-9.816,33.437-10.216,33.437-10.216L150.351,54.946z M181.475,53.621l-24.171,1.159c0,0,0.497-13.41,0.828-13.41l16.224,0.828
	c0,0,6.125,0.828,7.781,2.152L181.475,53.621z M182.634,53.621l0.662-8.774c2.318,0.828,8.774,6.291,8.774,6.291
	C189.09,52.959,182.634,53.621,182.634,53.621z"/>
<g>
	<path d="M212.945,83.264c0.394-1.427,0.568-2.93,0.478-4.478c-0.47-8.023-7.754-14.123-16.268-13.624
		c-8.514,0.499-15.035,7.408-14.564,15.431c0.089,1.517,0.423,2.963,0.961,4.311L212.945,83.264z"/>
	<path d="M111.13,85.097c0.472-1.388,0.732-2.865,0.732-4.401c0-7.962-6.849-14.417-15.299-14.417s-15.299,6.455-15.299,14.417
		c0,1.505,0.246,2.955,0.7,4.319L111.13,85.097z"/>
	<path style="fill:#CCCCCC;" d="M43.828,27.006c-2.763,0.872-1.413,5.155,1.349,4.285C47.941,30.419,46.59,26.134,43.828,27.006z"/>
	<path style="fill:#CCCCCC;" d="M67.956,50.06c0.497-1.624,0.515-3.411-0.07-5.143c-0.371-1.099-0.948-2.071-1.672-2.888
		c1.13-1.15,1.601-2.867,1.05-4.499c-0.781-2.311-3.287-3.551-5.598-2.771c-0.332,0.112-0.634,0.268-0.918,0.445
		c-0.71-3.768-3.998-6.636-7.978-6.674c-4.53-0.044-8.237,3.593-8.281,8.122c-0.005,0.527,0.044,1.041,0.134,1.541
		c-1.754,0.921-2.637,2.993-1.983,4.93c0.559,1.656,2.074,2.709,3.723,2.775c-0.679,1.463-0.824,3.177-0.267,4.826
		c1.152,3.411,4.852,5.243,8.263,4.09c0.261-0.088,0.509-0.196,0.751-0.312c1.683,1.172,3.771,1.724,5.881,1.45
		c0.61,0.01,1.288-0.089,1.982-0.292c0.037,0.176,0.082,0.351,0.141,0.525c0.606,1.793,2.197,2.971,3.966,3.143
		c-0.412,0.538-0.558,1.264-0.325,1.954c0.372,1.1,1.565,1.691,2.665,1.319c1.1-0.372,1.691-1.565,1.319-2.666
		c-0.175-0.517-0.534-0.915-0.977-1.16c1.946-1.064,2.91-3.397,2.176-5.571C71.331,51.406,69.732,50.226,67.956,50.06z"/>
	<path style="fill:#60041C;" d="M103.322,54.216c0,0,23.681-12.531,28.186-12.845c0,0,2.414-0.247,2.2,0.314
		c0,0-18.833,8.305-23.128,10.82C110.58,52.505,104.909,55.515,103.322,54.216z"/>
	<path style="fill:#910523;" d="M67.015,35.244c0,0-0.03-0.324,0.767-0.079c2.662,0.817,9.21,3.315,11.359,5.615
		c0,0,14.65,11.776,15.926,13.299c1.276,1.523,1.469,1.79,1.469,1.79l2.323,2.085l-1.484-0.053c0,0-2.785-0.402-4.754-2.065
		c0,0-15.071-13.003-21.272-17.311C71.348,38.525,67.623,35.454,67.015,35.244z"/>
	<circle style="fill:#333333;" cx="95.486" cy="80.044" r="12.013"/>
	<circle style="fill:#676767;" cx="95.486" cy="80.044" r="8.168"/>
	<circle style="fill:#333333;" cx="197.797" cy="80.044" r="12.013"/>
	<circle style="fill:#676767;" cx="197.797" cy="80.044" r="8.168"/>
	<path style="fill:#60041C;" d="M190.628,41.082c0,0,19.238,6.601,25.576,10.459c0,0-1.01,0.653-2.847,0.193
		c0,0-21.168-8.786-24.041-9.998C189.316,41.736,187.971,41.349,190.628,41.082z"/>
	<path style="opacity:0.4;fill:#EDF3F4;" d="M121.38,56.601l28.972-1.656l3.145-13.906c0,0-21.347,0.4-33.437,10.216
		c0,0-4.309,4.353-4.309,5.015S120.552,56.601,121.38,56.601z"/>
	<path style="opacity:0.4;fill:#EDF3F4;" d="M158.132,41.37l16.224,0.828c0,0,6.125,0.828,7.781,2.152l-0.662,9.271l-24.171,1.159
		C157.304,54.78,157.801,41.37,158.132,41.37z"/>
	<path style="opacity:0.4;fill:#EDF3F4;" d="M192.07,51.138c0,0-6.457-5.463-8.774-6.291l-0.662,8.774
		C182.634,53.621,189.09,52.959,192.07,51.138z"/>
	<path d="M153.018,43.4c0,0-11.89-2.695-32.121,8.349c0,0-3.961,3.025-4.115,4.761c0,0-4.238-0.863,4.857-6.71
		c0,0,13.136-8.706,31.858-8.761L153.018,43.4z"/>
	<path d="M157.763,44.61c0,0,0.813-1.863,1.834-1.863s16.698,0.33,22.452,2.835l0.089-1.232c0,0-1.064-2.861-24.183-2.988
		L157.763,44.61z"/>
	<path style="fill:none;stroke:#000000;stroke-width:0.1104;stroke-miterlimit:10;" d="M103.322,62.825
		c0,0,82.339-7.064,110.373-5.519"/>
	<path style="fill:#FF2C55;" d="M214.23,56.547c0,0,2.473-1.233,9.471-0.788c6.997,0.445,6.488,0.636,7.188,1.463
		c0,0,1.337,0.542,1.018,2.402l-0.993,2.318c0,0-2.188-1.285-6.195,0.623c0,0-7.443-4.008-10.369-5.089
		C214.35,57.477,213.474,56.953,214.23,56.547z"/>
	<path style="fill:#EA0032;" d="M225.8,76.751h3.562c0,0,0.573,0.509-0.509,1.781l-3.435,0.064
		C225.418,78.596,224.4,78.66,225.8,76.751z"/>
	<path style="fill:#F3E9E4;" d="M60.718,70.883c0,0,5.702-3.843,13.467-3.165l12.665-5.88l1.206-2.035c0,0,0.579,0.102-12.439,2.94
		c0,0-11.006,2.488-11.383,2.865c-0.377,0.377-3.166,1.432-3.468,2.035C60.465,68.245,60.444,70.278,60.718,70.883z"/>
	<path style="fill:#60041C;" d="M115.054,55.315c0,0,0.297-3.089,2.346-3.065c0,0,1.928-0.145,2.459,0.096
		c0.529,0.24,2.124,0.99,2.032,2.643c-0.092,1.653-0.389,1.858-1.911,2.66c0,0-1.07,0.494-3.399-0.048
		C116.396,57.418,115.513,56.785,115.054,55.315z"/>
	<path style="fill:#60041C;" d="M142.089,59.75c0,0,4.756-1.766,10.191-0.679c0,0,0.951,0.951-0.408,1.902
		c-1.359,0.951-6.25,1.902-9.376-0.136C142.497,60.837,141.817,60.021,142.089,59.75z"/>
	<path style="fill:#60041C;" d="M181.646,57.835c0,0,4.756-1.766,10.191-0.679c0,0,0.951,0.951-0.408,1.902
		c-1.359,0.951-6.25,1.902-9.376-0.136C182.054,58.922,181.374,58.107,181.646,57.835z"/>
	<path d="M183.292,44.682c0,0,0.529,0.274,1.434,0.809c1.509,0.893,4.111,2.707,7.373,5.665l-1.473,0.725
		c0,0-0.626-1.22-7.419-5.971L183.292,44.682z"/>
</g>
</svg>
