<?xml version="1.0" encoding="utf-8"?>
<!-- Generator: Adobe Illustrator 21.1.0, SVG Export Plug-In . SVG Version: 6.00 Build 0)  -->
<svg version="1.1" id="Layer_1" xmlns="http://www.w3.org/2000/svg" xmlns:xlink="http://www.w3.org/1999/xlink" x="0px" y="0px"
	 viewBox="0 0 190 228" style="enable-background:new 0 0 190 228;" xml:space="preserve">
<g>
	<rect x="17.95" y="97.562" style="fill:#FFD34E;" width="139.851" height="118.895"/>
	<path style="fill:#9F6627;" d="M95.435,154.472c3.699-2.453,6.142-6.652,6.142-11.425c0-7.566-6.137-13.703-13.703-13.703
		c-7.565,0-13.698,6.137-13.698,13.703c0,4.773,2.441,8.972,6.14,11.425l-6.667,30.202h14.225h14.23L95.435,154.472z"/>
	<g>
		<path style="fill:#D2D3D4;" d="M146.685,97.562h-22.034V66.269c0.002-0.28-0.041-16.567-10.27-26.848
			c-5.918-5.946-14.51-8.96-25.538-8.96h-1.941c-11.088,0-19.717,3.05-25.639,9.068C51.129,49.825,51.095,65.934,51.099,66.094
			v31.468H29.065V66.269c-0.014-0.856-0.206-25.231,16.497-42.195C55.779,13.692,69.688,8.429,86.902,8.429h1.941
			c17.216,0,31.128,5.263,41.347,15.645c16.698,16.965,16.508,41.339,16.492,42.368L146.685,97.562z"/>
	</g>
</g>
<g>
	
		<ellipse transform="matrix(0.1435 -0.9896 0.9896 0.1435 2.1177 267.9721)" style="fill:#CD6E89;" cx="155.877" cy="132.763" rx="25.843" ry="25.843"/>
	<g>
		<path style="fill:#FFFFFF;" d="M153.224,138.057c-0.007-0.126-0.001-0.251,0.017-0.374c0.018-0.123,0.036-0.246,0.053-0.369
			c0.139-0.959,0.393-1.795,0.759-2.508c0.367-0.713,0.786-1.349,1.257-1.908c0.47-0.559,0.972-1.077,1.506-1.552
			c0.533-0.475,1.03-0.962,1.492-1.46c0.461-0.498,0.866-1.042,1.216-1.632c0.349-0.59,0.581-1.278,0.695-2.065
			c0.164-1.131-0.044-2.128-0.621-2.991c-0.578-0.862-1.544-1.392-2.897-1.588c-0.836-0.121-1.54-0.16-2.11-0.118
			c-0.572,0.043-1.055,0.129-1.451,0.26c-0.396,0.131-0.722,0.304-0.979,0.517s-0.49,0.431-0.698,0.652
			c0.587,0.11,1.052,0.41,1.396,0.899c0.343,0.489,0.467,1.066,0.371,1.73c-0.107,0.738-0.416,1.346-0.924,1.825
			c-0.51,0.479-1.256,0.647-2.239,0.504c-0.788-0.114-1.381-0.483-1.78-1.106c-0.4-0.623-0.538-1.352-0.417-2.189
			c0.1-0.688,0.345-1.393,0.739-2.115c0.393-0.721,0.986-1.357,1.78-1.908c0.794-0.55,1.8-0.957,3.015-1.22
			c1.215-0.263,2.708-0.267,4.475-0.01c1.227,0.178,2.367,0.437,3.42,0.778c1.053,0.341,1.951,0.81,2.691,1.408
			c0.74,0.597,1.285,1.329,1.635,2.196s0.439,1.903,0.264,3.108c-0.16,1.107-0.493,2.019-0.997,2.737
			c-0.503,0.718-1.098,1.335-1.784,1.851c-0.686,0.516-1.414,0.976-2.183,1.378c-0.769,0.404-1.516,0.848-2.238,1.333
			c-0.722,0.486-1.364,1.064-1.926,1.736c-0.562,0.671-0.967,1.517-1.215,2.535L153.224,138.057z M156.541,145.055
			c-0.118,0.812-0.5,1.46-1.149,1.943c-0.647,0.483-1.377,0.667-2.189,0.549c-0.787-0.114-1.428-0.496-1.925-1.146
			c-0.496-0.649-0.685-1.38-0.568-2.192c0.114-0.787,0.502-1.427,1.164-1.922c0.662-0.494,1.386-0.684,2.173-0.57
			c0.811,0.118,1.458,0.507,1.94,1.166C156.471,143.545,156.655,144.268,156.541,145.055z"/>
	</g>
</g>
</svg>
