<?xml version="1.0" encoding="utf-8"?>
<!-- Generator: Adobe Illustrator 21.1.0, SVG Export Plug-In . SVG Version: 6.00 Build 0)  -->
<svg version="1.1" id="Layer_1" xmlns="http://www.w3.org/2000/svg" xmlns:xlink="http://www.w3.org/1999/xlink" x="0px" y="0px"
	 viewBox="0 0 642.1 421.1" style="enable-background:new 0 0 642.1 421.1;" xml:space="preserve">
<style type="text/css">
	.st0{fill:#4CCBF2;}
	.st1{fill:#FFFFFF;}
	.st2{fill:#28B1DB;}
	.st3{fill:#C1C4D3;}
	.st4{fill:#DADCEA;}
	.st5{opacity:0.5;}
	.st6{fill:#414556;}
	.st7{fill:#272A44;}
	.st8{fill:#191C2D;}
	.st9{fill:#ED5729;}
	.st10{fill:#2BC1C1;}
	.st11{opacity:0.74;}
	.st12{fill:none;stroke:#4CCBF2;stroke-width:3;stroke-miterlimit:10;}
	.st13{fill:#EF3C0C;}
	.st14{fill:#891B1B;}
	.st15{fill:#282F39;}
	.st16{fill:#DCDBDE;}
	.st17{fill:#CAC9CD;}
	.st18{fill:#EDEDEE;}
	.st19{fill:#514B5A;}
	.st20{fill:#E8E6E6;}
	.st21{fill:#EDB529;}
	.st22{fill:#E73A3A;}
	.st23{fill:#EED467;}
	.st24{fill:#63CD63;}
	.st25{fill:#D7CDCD;}
	.st26{fill:#DB9A16;}
	.st27{fill:#595858;}
	.st28{fill:#EF4736;}
	.st29{fill:#FFFBF2;}
	.st30{fill:#E14136;}
	.st31{fill:#ED2424;}
	.st32{fill:#231F20;}
	.st33{fill:#F05E22;}
	.st34{fill:#0096BA;}
	.st35{fill:#0EA580;}
</style>
<g id="BACKGROUND">
	<rect id="XMLID_42_" x="0.2" y="0" class="st0" width="641.7" height="421.8"/>
</g>
<path class="st1" d="M443,145.2c-0.1,0-0.2,0-0.3-0.1l-52.8-11.7c-0.5-0.2-0.7-0.9-0.5-1.4c0.2-0.6,0.7-0.9,1.2-0.6l52.8,11.7
	c0.5,0.2,0.7,0.9,0.5,1.4C443.8,144.9,443.4,145.2,443,145.2z"/>
<path id="XMLID_836_" class="st2" d="M556.7,278.9c0,0-0.1,0-0.1-0.1h-0.1c-0.1,0-0.2-0.1-0.3-0.1h-0.1c-0.1,0-0.2,0-0.3-0.1
	c-0.1,0-0.1,0-0.2,0c-0.1,0-0.1,0-0.2,0c-0.1,0-0.2,0-0.2,0c-0.3,0-0.7-0.1-1.1-0.1c-0.4,0-0.7,0-1.2,0H417.4c-0.1,0-0.3,0-0.4,0
	s-0.1,0-0.2,0s-0.1,0-0.2,0s-0.2,0-0.3,0c-0.1,0-0.2,0-0.3,0h-0.1c-0.1,0-0.2,0-0.3,0c-0.1,0-0.2,0-0.4,0l0,0c-0.1,0-0.2,0-0.3,0
	c-0.6,0-1.2,0.1-1.8,0.2c-0.1,0-0.2,0-0.3,0c-0.2,0-0.5,0.1-0.7,0.1s-0.5,0.1-0.7,0.1c-0.1,0-0.1,0-0.2,0l0,0h-0.1
	c-0.3,0-0.6,0.1-0.9,0.1h-0.1c-0.4,0.1-0.8,0.2-1.2,0.2c-0.3,0.1-0.7,0.1-1,0.2c-0.1,0-0.2,0.1-0.4,0.1c-0.2,0.1-0.4,0.1-0.6,0.2
	c-0.1,0-0.1,0-0.2,0s-0.2,0.1-0.3,0.1c-0.1,0-0.2,0.1-0.3,0.1c-0.3,0.1-0.6,0.2-0.8,0.3c-0.1,0-0.1,0-0.2,0.1c-0.1,0-0.1,0-0.2,0.1
	c-0.1,0-0.1,0-0.2,0.1c-0.1,0-0.2,0.1-0.2,0.1c-0.1,0-0.2,0.1-0.2,0.1c-0.1,0-0.2,0.1-0.2,0.1l-56.3,25.4l0,0l0,0l-4.3,1.9
	c-3,1.3-1.8,2.4,2.7,2.4h33.4c-12.5,6.2-21.1,9-21.6,9h-0.2c2.1-0.3-0.6,0.1-0.7,0.1l3.8,0.1c-0.2,0.1-4.1,0.1-3.9,0.1
	c0,0,59.5,0,61.2,0s8.1-5,17.5-9.4h46c4.4,0,10.4-1.1,13.4-2.4l60.6-27.3C557.3,280,557.6,279.3,556.7,278.9z"/>
<path id="XMLID_768_" class="st2" d="M606.2,330.4H180.1c-2.9,0-5.3-2.4-5.3-5.3l0,0c0-2.9,2.4-5.3,5.3-5.3h426.1
	c2.9,0,5.3,2.4,5.3,5.3l0,0C611.5,328.1,609.1,330.4,606.2,330.4z"/>
<ellipse class="st3" cx="391.7" cy="319.9" rx="36.8" ry="6.8"/>
<path class="st3" d="M411.6,321.6h-36.5c-2.9,0-5.2-2.4-5.2-5.2V290c0-2.9,2.4-5.2,5.2-5.2h36.5c2.9,0,5.2,2.4,5.2,5.2v26.3
	C416.8,319.2,414.5,321.6,411.6,321.6z"/>
<path class="st4" d="M410.3,320.2h-36.5c-2.9,0-5.2-2.4-5.2-5.2v-26.3c0-2.9,2.4-5.2,5.2-5.2h36.5c2.9,0,5.2,2.4,5.2,5.2V315
	C415.5,317.9,413.1,320.2,410.3,320.2z"/>
<g class="st5">
	<polygon class="st2" points="260.8,203.5 177.7,210.2 173.8,172.8 256.9,166 	"/>
	<g>
		<path class="st2" d="M318.2,261.9H301c-0.4,0-0.8-0.2-0.9-0.5c-0.2-0.3-0.1-0.7,0.2-0.9l16.5-15.6l1.5,1.2l-15,14.2h14.9V261.9z"
			/>
	</g>
	<g>
		<path class="st2" d="M319.1,268.9h-19.4V82.6h19.4V268.9z M301.7,267.2h15.5V84.3h-15.5V267.2z"/>
	</g>
	<rect x="297" y="259.8" class="st2" width="24.7" height="23.7"/>
	<g>
		<path class="st2" d="M318.2,197.8H301c-0.4,0-0.8-0.2-0.9-0.5c-0.2-0.3-0.1-0.7,0.2-0.9l16.5-15.6l1.5,1.2l-15,14.2h14.9V197.8z"
			/>
	</g>
	<g>
		<path class="st2" d="M318.2,213.8H301c-0.4,0-0.8-0.2-0.9-0.5c-0.2-0.3-0.1-0.7,0.2-0.9l16.5-15.6l1.5,1.2l-15,14.2h14.9V213.8z"
			/>
	</g>
	<g>
		<path class="st2" d="M318.2,229.8H301c-0.4,0-0.8-0.2-0.9-0.5c-0.2-0.3-0.1-0.7,0.2-0.9l16.5-15.6l1.5,1.2l-15,14.2h14.9V229.8z"
			/>
	</g>
	<g>
		<path class="st2" d="M318.2,245.9H301c-0.4,0-0.8-0.2-0.9-0.5c-0.2-0.3-0.1-0.7,0.2-0.9l16.5-15.6l1.5,1.2l-15,14.2h14.9V245.9z"
			/>
	</g>
	<g>
		<path class="st2" d="M318.2,182.1H301c-0.4,0-0.8-0.2-0.9-0.5c-0.2-0.3-0.1-0.7,0.2-0.9l16.5-15.6l1.5,1.2l-15,14.2h14.9V182.1z"
			/>
	</g>
	<g>
		<path class="st2" d="M318.2,166.4H301c-0.4,0-0.8-0.2-0.9-0.5c-0.2-0.3-0.1-0.7,0.2-0.9l16.5-15.6l1.5,1.2l-15,14.2h14.9V166.4z"
			/>
	</g>
	<g>
		<path class="st2" d="M318.2,150.8H301c-0.4,0-0.8-0.2-0.9-0.5c-0.2-0.3-0.1-0.7,0.2-0.9l16.5-15.6l1.5,1.2l-15,14.2h14.9V150.8z"
			/>
	</g>
	<g>
		<path class="st2" d="M318.2,135.1H301c-0.4,0-0.8-0.2-0.9-0.5c-0.2-0.3-0.1-0.7,0.2-0.9l16.5-15.6l1.5,1.2l-15,14.2h14.9V135.1z"
			/>
	</g>
	<g>
		<path class="st2" d="M318.2,119.5H301c-0.4,0-0.8-0.2-0.9-0.5c-0.2-0.3-0.1-0.7,0.2-0.9l16.5-15.6l1.5,1.2l-15,14.2h14.9V119.5z"
			/>
	</g>
	<g>
		<path class="st2" d="M318.2,103.8H301c-0.4,0-0.8-0.2-0.9-0.5c-0.2-0.3-0.1-0.7,0.2-0.9l16.5-15.6l1.5,1.2l-15,14.2h14.9V103.8z"
			/>
	</g>
	<g>
		<path class="st2" d="M318.2,88.2H301c-0.4,0-0.8-0.2-0.9-0.5c-0.2-0.3-0.1-0.7,0.2-0.9l16.5-15.6l1.5,1.2l-15,14.2h14.9V88.2z"/>
	</g>
	<rect x="278.7" y="65.3" class="st2" width="40.4" height="23.2"/>
	<rect x="334.9" y="65.3" class="st2" width="31.5" height="17.9"/>
	<g>
		<path class="st2" d="M365.8,67H210.3c-0.5,0-1-0.4-1-0.9s0.4-0.9,1-0.9h155.5c0.5,0,1,0.4,1,0.9S366.4,67,365.8,67z"/>
	</g>
	<g>
		<rect x="217.6" y="70.2" class="st2" width="1" height="97"/>
	</g>
	<path class="st2" d="M310.3,65.5"/>
	<rect x="288.6" y="280.7" class="st2" width="41.6" height="6.8"/>
	<g>
		<path class="st2" d="M303.4,66.8c-0.1,0-0.3,0-0.4-0.1l-8.3-7.2h-76l-7.8,6.8c-0.2,0.2-0.5,0.2-0.7,0s-0.2-0.4,0-0.6l8.1-7.1h76.8
			l8.6,7.5c0.2,0.2,0.2,0.4,0,0.6C303.7,66.7,303.6,66.8,303.4,66.8z"/>
	</g>
	<g>
		<path class="st2" d="M366.5,66.8c-0.2,0-0.4-0.1-0.4-0.2l-8.3-13.9h-20.1l-7.8,13.4c-0.1,0.2-0.4,0.3-0.7,0.2
			c-0.2-0.1-0.3-0.4-0.2-0.6l8.1-13.9h21.3l8.6,14.3c0.1,0.2,0,0.5-0.2,0.6C366.7,66.7,366.6,66.8,366.5,66.8z"/>
	</g>
	<ellipse class="st2" cx="218.1" cy="70.9" rx="3.6" ry="3.9"/>
	<g>
		<path class="st2" d="M239.6,59.4c-0.2,0-0.4-0.1-0.5-0.3s0.1-0.5,0.3-0.5L312.9,39c0.1,0,0.2,0,0.3,0L348,51.9
			c0.3,0.1,0.4,0.3,0.3,0.6s-0.4,0.3-0.6,0.2L313,39.8l-73.3,19.5C239.7,59.4,239.6,59.4,239.6,59.4z"/>
	</g>
	<g>
		<path class="st2" d="M301.5,66.8c-0.1,0-0.2,0-0.4-0.1c-0.5-0.2-0.8-0.7-0.6-1.1L312.1,39c0.2-0.4,0.6-0.6,1-0.6s0.8,0.3,0.9,0.7
			l6,26c0.1,0.5-0.2,0.9-0.8,1c-0.5,0.1-1.1-0.2-1.2-0.7l-5.3-23l-10.3,23.8C302.3,66.6,301.9,66.8,301.5,66.8z"/>
	</g>
	<ellipse class="st2" cx="313.1" cy="39.3" rx="2" ry="1.7"/>
	<g>
		<path class="st2" d="M229.1,66.8c-0.1,0-0.2,0-0.3-0.1l-9.7-6.9v6.4c0,0.2-0.2,0.4-0.5,0.4s-0.5-0.2-0.5-0.4v-7.3
			c0-0.2,0.1-0.3,0.3-0.4c0.2-0.1,0.4-0.1,0.5,0.1l10.6,7.5c0.2,0.2,0.2,0.4,0.1,0.6C229.4,66.8,229.3,66.8,229.1,66.8z"/>
	</g>
	<g>
		<path class="st2" d="M238.5,66.8c-0.1,0-0.2,0-0.3-0.1l-9.7-6.9v6.4c0,0.2-0.2,0.4-0.5,0.4s-0.5-0.2-0.5-0.4v-7.3
			c0-0.2,0.1-0.3,0.3-0.4c0.2-0.1,0.4-0.1,0.5,0.1l10.6,7.5c0.2,0.2,0.2,0.4,0.1,0.6C238.8,66.8,238.7,66.8,238.5,66.8z"/>
	</g>
	<g>
		<path class="st2" d="M248,66.8c-0.1,0-0.2,0-0.3-0.1l-9.7-6.9v6.4c0,0.2-0.2,0.4-0.5,0.4s-0.5-0.2-0.5-0.4v-7.3
			c0-0.2,0.1-0.3,0.3-0.4c0.2-0.1,0.4-0.1,0.5,0.1l10.6,7.5c0.2,0.2,0.2,0.4,0.1,0.6C248.3,66.8,248.1,66.8,248,66.8z"/>
	</g>
	<g>
		<path class="st2" d="M257.4,66.8c-0.1,0-0.2,0-0.3-0.1l-9.7-6.9v6.4c0,0.2-0.2,0.4-0.5,0.4s-0.5-0.2-0.5-0.4v-7.3
			c0-0.2,0.1-0.3,0.3-0.4s0.4-0.1,0.5,0.1l10.6,7.5c0.2,0.2,0.2,0.4,0.1,0.6C257.7,66.8,257.5,66.8,257.4,66.8z"/>
	</g>
	<g>
		<path class="st2" d="M266.8,66.8c-0.1,0-0.2,0-0.3-0.1l-9.7-6.9v6.4c0,0.2-0.2,0.4-0.5,0.4c-0.3,0-0.5-0.2-0.5-0.4v-7.3
			c0-0.2,0.1-0.3,0.3-0.4c0.2-0.1,0.4-0.1,0.5,0.1l10.6,7.5c0.2,0.2,0.2,0.4,0.1,0.6C267.1,66.8,267,66.8,266.8,66.8z"/>
	</g>
	<g>
		<path class="st2" d="M276.2,66.8c-0.1,0-0.2,0-0.3-0.1l-9.7-6.9v6.4c0,0.2-0.2,0.4-0.5,0.4s-0.5-0.2-0.5-0.4v-7.3
			c0-0.2,0.1-0.3,0.3-0.4c0.2-0.1,0.4-0.1,0.5,0.1l10.6,7.5c0.2,0.2,0.2,0.4,0.1,0.6C276.5,66.8,276.4,66.8,276.2,66.8z"/>
	</g>
	<g>
		<path class="st2" d="M285.7,66.8c-0.1,0-0.2,0-0.3-0.1l-9.7-6.9v6.4c0,0.2-0.2,0.4-0.5,0.4s-0.5-0.2-0.5-0.4v-7.3
			c0-0.2,0.1-0.3,0.3-0.4c0.2-0.1,0.4-0.1,0.5,0.1l10.6,7.5c0.2,0.2,0.2,0.4,0.1,0.6C286,66.8,285.8,66.8,285.7,66.8z"/>
	</g>
	<g>
		<path class="st2" d="M295.1,66.8c-0.1,0-0.2,0-0.3-0.1l-9.7-6.9v6.4c0,0.2-0.2,0.4-0.5,0.4s-0.5-0.2-0.5-0.4v-7.3
			c0-0.2,0.1-0.3,0.3-0.4c0.2-0.1,0.4-0.1,0.5,0.1l10.6,7.5c0.2,0.2,0.2,0.4,0.1,0.6C295.4,66.8,295.2,66.8,295.1,66.8z"/>
	</g>
	<g>
		<path class="st2" d="M350.8,66.8c-0.1,0-0.3-0.1-0.4-0.2l-12.7-13.1v12.7c0,0.2-0.2,0.4-0.5,0.4s-0.5-0.2-0.5-0.4V52.4
			c0-0.2,0.1-0.3,0.3-0.4c0.2-0.1,0.4,0,0.5,0.1l13.5,14c0.2,0.2,0.2,0.5-0.1,0.6C351,66.8,350.9,66.8,350.8,66.8z"/>
	</g>
	<g>
		<path class="st2" d="M360.5,66.8c-0.2,0-0.3-0.1-0.4-0.2l-9.6-12.8v12.4c0,0.2-0.2,0.4-0.5,0.4s-0.5-0.2-0.5-0.4V52.4
			c0-0.2,0.1-0.4,0.4-0.4c0.2-0.1,0.4,0,0.6,0.2l10.6,14c0.2,0.2,0.1,0.5-0.1,0.6C360.7,66.8,360.6,66.8,360.5,66.8z"/>
	</g>
	<ellipse class="st2" cx="218.1" cy="168.3" rx="3.1" ry="2.7"/>
</g>
<g id="XMLID_865_">
	<rect id="XMLID_869_" x="387" y="0" class="st6" width="0.9" height="109"/>
	<rect id="XMLID_868_" x="391.5" y="0" class="st6" width="0.9" height="109"/>
	<rect id="XMLID_867_" x="396" y="0" class="st6" width="0.9" height="109"/>
	<rect id="XMLID_866_" x="400.4" y="0" class="st6" width="0.9" height="109"/>
</g>
<g id="XMLID_853_">
	<g id="XMLID_862_">
		<path id="XMLID_864_" class="st7" d="M398.6,130.2c-0.1,2.3-1.3,4.3-3.1,5.6c-0.2,0.1-0.4,0.3-0.7,0.4c-0.9,0.5-1.9,0.8-2.9,0.9
			c-0.3,0-0.6,0-1,0c-0.3,0-0.5,0-0.8-0.1c-1.5-0.2-2.9-1-3.9-2c-0.2-0.2-0.4-0.4-0.5-0.6c-1-1.2-1.6-2.7-1.6-4.4
			c0-0.1,0.1-0.2,0.2-0.2h0.1l0,0l0.1,0.1l1.8,1.8c0.3,0.3,0.6,0.6,1,0.8c0.2,0.1,0.5,0.3,0.7,0.4c0.7,0.3,1.5,0.4,2.2,0.4
			c0.3,0,0.5,0,0.8-0.1s0.5-0.1,0.8-0.2c0.1-0.1,0.3-0.1,0.4-0.2c0.2-0.1,0.5-0.2,0.7-0.4c0.3-0.2,0.6-0.4,0.8-0.7l0,0
			c2-2,2-5.3,0-7.3l-1.7-1.7c-0.2-0.2-0.2-0.4-0.2-0.6v-7.7c0-0.1,0-0.3,0-0.4c0.2-1.2,1.2-2.2,2.5-2.2c0.7,0,1.3,0.3,1.8,0.7
			c0.4,0.4,0.6,0.9,0.7,1.4c0,0.1,0,0.2,0,0.3v9.5c0,0.7,0.2,1.3,0.6,1.9C398.2,127,398.7,128.5,398.6,130.2z"/>
		<rect id="XMLID_863_" x="391.7" y="118.1" class="st8" width="5.1" height="2.5"/>
	</g>
	<path id="XMLID_861_" class="st6" d="M397.3,118.8h-5.8c-0.3,0-0.7-0.2-0.8-0.5l-4.4-9.2c-0.3-0.6,0.1-1.3,0.8-1.3h14.6
		c0.7,0,1.1,0.7,0.8,1.3l-4.4,9.2C397.9,118.6,397.6,118.8,397.3,118.8z"/>
	<g id="XMLID_854_">
		<path id="XMLID_860_" class="st9" d="M388.6,113.9l2.1,4.3c0.1,0.3,0.5,0.5,0.8,0.5h1.1l-2-4.9L388.6,113.9L388.6,113.9z"/>
		<polygon id="XMLID_859_" class="st1" points="390.6,113.9 390.6,113.9 392.6,118.8 394.7,118.8 392.6,113.9 		"/>
		<polygon id="XMLID_858_" class="st9" points="392.7,113.9 392.6,113.9 394.7,118.8 396.7,118.8 394.7,113.9 		"/>
		<path id="XMLID_857_" class="st1" d="M396.8,113.9h-2l0,0l2,4.9h0.5c0.3,0,0.7-0.2,0.8-0.5l0.3-0.6L396.8,113.9z"/>
		<polygon id="XMLID_856_" class="st9" points="399.5,115.4 398.9,113.9 396.8,113.9 396.8,113.9 398.4,117.7 		"/>
		<polygon id="XMLID_855_" class="st1" points="400.2,113.9 398.9,113.9 398.9,113.9 399.5,115.4 		"/>
	</g>
</g>
<path id="XMLID_2_" class="st4" d="M469.9,189.9v90.7c0,4.4-3.6,8-8,8H326.4c-4.4,0-8-3.6-8-8v-90.7c0-3.5,2.2-6.5,5.4-7.6
	c0.8-0.3,1.7-0.5,2.7-0.5H462C466.3,181.9,469.9,185.5,469.9,189.9z"/>
<path id="XMLID_3_" class="st8" d="M469.9,189.9v84.3H318.4v-84.3c0-0.1,0-0.2,0-0.3s0-0.2,0-0.3s0-0.2,0-0.3c0-0.2,0.1-0.4,0.1-0.6
	c0.1-0.3,0.1-0.6,0.2-0.9c0-0.1,0.1-0.2,0.1-0.3s0.1-0.2,0.1-0.3c0.2-0.6,0.5-1.1,0.9-1.6c0.2-0.3,0.5-0.6,0.8-0.9
	c0.9-0.9,1.9-1.5,3.1-1.9c0.3-0.1,0.6-0.2,1-0.3c0.2,0,0.4-0.1,0.7-0.1c0.2,0,0.4,0,0.6-0.1c0.1,0,0.3,0,0.4,0h135.5
	c0.6,0,1.1,0.1,1.6,0.2c0.3,0,0.5,0.1,0.8,0.2c0.1,0,0.3,0.1,0.4,0.1c0.9,0.3,1.7,0.8,2.3,1.3c0.2,0.2,0.4,0.3,0.6,0.5
	C469,185.7,469.9,187.7,469.9,189.9z"/>
<path id="XMLID_829_" class="st1" d="M467.3,189.9v90.7c0,4.4-3.6,8-8,8H323.8c-4.4,0-8-3.6-8-8v-90.7c0-3.5,2.2-6.5,5.4-7.6
	c0.8-0.3,1.7-0.5,2.7-0.5h135.5C463.7,181.9,467.3,185.5,467.3,189.9z"/>
<path id="XMLID_782_" class="st10" d="M467.3,189.9v84.3H315.8v-84.3c0-0.1,0-0.2,0-0.3s0-0.2,0-0.3s0-0.2,0-0.3
	c0-0.2,0.1-0.4,0.1-0.6c0.1-0.3,0.1-0.6,0.2-0.9c0-0.1,0.1-0.2,0.1-0.3s0.1-0.2,0.1-0.3c0.2-0.6,0.5-1.1,0.9-1.6
	c0.2-0.3,0.5-0.6,0.8-0.9c0.9-0.9,1.9-1.5,3.1-1.9c0.3-0.1,0.6-0.2,1-0.3c0.2,0,0.4-0.1,0.7-0.1c0.2,0,0.4,0,0.6-0.1
	c0.1,0,0.3,0,0.4,0h135.5c0.6,0,1.1,0.1,1.6,0.2c0.3,0,0.5,0.1,0.8,0.2c0.1,0,0.3,0.1,0.4,0.1c0.9,0.3,1.7,0.8,2.3,1.3
	c0.2,0.2,0.4,0.3,0.6,0.5C466.4,185.7,467.3,187.7,467.3,189.9z"/>
<circle id="XMLID_827_" class="st4" cx="390.7" cy="281.3" r="4.2"/>
<path id="XMLID_823_" class="st7" d="M465,184.2c-0.2-0.2-0.4-0.4-0.6-0.5c-0.7-0.6-1.5-1-2.3-1.3c-0.1,0-0.3-0.1-0.4-0.1
	c-0.3-0.1-0.5-0.1-0.8-0.2c-0.5-0.1-1.1-0.2-1.6-0.2H323.8c-0.1,0-0.3,0-0.4,0c-0.2,0-0.4,0-0.6,0.1c-0.2,0-0.4,0.1-0.7,0.1
	c-1.2,0.3-2.4,0.8-3.4,1.6l0,0c-0.2,0.2-0.5,0.4-0.7,0.6c-0.3,0.3-0.6,0.6-0.8,0.9c-0.4,0.5-0.7,1-0.9,1.6c0,0.1-0.1,0.2-0.1,0.3
	s-0.1,0.2-0.1,0.3c-0.1,0.3-0.2,0.6-0.2,0.9c0,0.2-0.1,0.4-0.1,0.6c0,0.1,0,0.2,0,0.3s0,0.2,0,0.3s0,0.2,0,0.3v84.3h151.5v-84.3
	C467.3,187.7,466.4,185.7,465,184.2z M461,266.3H322.1v-76.4c0-0.9,0.8-1.7,1.7-1.7h135.5c1,0,1.7,0.8,1.7,1.7L461,266.3L461,266.3z
	"/>
<path id="XMLID_1068_" class="st2" d="M303.7,290.3h-4.6c0.1-0.9,1.1-1.7,2.3-1.7S303.6,289.4,303.7,290.3z"/>
<g class="st11">
	<path class="st2" d="M558.7,249.7l-17.6-33.3c-0.7-1.5-2.2-2.6-4-2.6c-1.5,0-2.8,0.7-3.6,1.9l0,0l-16.8,22.4c-0.2,0-0.5,0-0.7,0
		h-7.6c-3,0-5.5,2.4-5.5,5.5v6.7h-6.7c-1.8,0-3.2,1.5-3.2,3.2v7.7c0,1.8,1.5,3.2,3.2,3.2h8.9v2.3h-7.8c-4.2,0-7.7,3.4-7.7,7.7
		c0,4.2,3.4,7.7,7.7,7.7h26.5c4.2,0,7.7-3.4,7.7-7.7c0-4.2-3.4-7.7-7.7-7.7H516v-2.3h8.9c0.6,0,1-0.5,1-1V260h1.2l0,0c0,0,0,0,0.1,0
		l0,0c0,0,0,0,0.1,0c0,0,0,0,0.1,0l0,0l0,0c0,0,0,0,0.1,0l0,0c0.1,0,0.1-0.1,0.2-0.1l0,0l0,0l0,0l0,0l0,0l0,0l0,0c0,0,0,0,0-0.1l0,0
		c0,0,0,0,0-0.1c0.1-0.1,0.1-0.2,0.1-0.4v-0.1v-4c0-2-0.6-3.8-1.7-5.5l-1.6-2.5l11.4-19.1l16.8,24.9c0.4,0.7,1,1.2,1.8,1.4v1.7
		l-0.3-0.8c-0.1-0.3-0.3-0.5-0.6-0.6s-0.5-0.1-0.8,0l-14.1,5.7l-2.4-2c-0.4-0.4-1.1-0.3-1.5,0.1s-0.3,1.1,0.1,1.5l7.6,6.3
		c1.4,1.1,3.1,1.8,4.9,1.8c1,0,1.9-0.2,2.9-0.6l3.5-1.4c1.5-0.6,2.5-2,2.7-3.5c0-0.1,0-0.2,0-0.3v-8c1.3-0.4,2.2-1.6,2.2-3.1
		C559.1,250.8,559,250.2,558.7,249.7L558.7,249.7z"/>
	<path class="st0" d="M494.1,274.6c0,1.8,1.5,3.2,3.2,3.2c1.8,0,3.2-1.5,3.2-3.2c0-1.2-0.6-2.2-1.6-2.8c-0.5-0.3-1.1-0.4-1.6-0.4
		C495.6,271.3,494.1,272.8,494.1,274.6L494.1,274.6z"/>
	<path class="st0" d="M506.2,277.8c1.8,0,3.2-1.5,3.2-3.2c0-1.2-0.6-2.2-1.6-2.8c-0.5-0.3-1.1-0.4-1.6-0.4c-1.8,0-3.2,1.5-3.2,3.2
		C503,276.3,504.4,277.8,506.2,277.8L506.2,277.8z"/>
	<path class="st0" d="M515.1,277.8c1.8,0,3.2-1.5,3.2-3.2c0-1.2-0.6-2.2-1.6-2.8c-0.5-0.3-1.1-0.4-1.6-0.4c-1.8,0-3.2,1.5-3.2,3.2
		C511.8,276.3,513.3,277.8,515.1,277.8L515.1,277.8z"/>
	<path class="st0" d="M523.9,277.8c1.8,0,3.2-1.5,3.2-3.2c0-1.2-0.6-2.2-1.6-2.8c-0.5-0.3-1.1-0.4-1.6-0.4c-1.8,0-3.2,1.5-3.2,3.2
		C520.6,276.3,522.1,277.8,523.9,277.8L523.9,277.8z"/>
	<path class="st2" d="M498.5,256.8h1.1c0.6,0,1-0.5,1-1c0-0.6-0.5-1-1-1h-1.1c-0.6,0-1,0.5-1,1C497.5,256.4,497.9,256.8,498.5,256.8
		L498.5,256.8z"/>
	<path class="st2" d="M498.5,260.1h1.1c0.6,0,1-0.5,1-1s-0.5-1-1-1h-1.1c-0.6,0-1,0.5-1,1S497.9,260.1,498.5,260.1L498.5,260.1z"/>
	<polygon class="st0" points="510.5,241.9 510.5,256 524.8,256 524.8,252.4 517.3,241.8 	"/>
</g>
<path class="st2" d="M495.2,102.8c-0.7,0-1.4,0-2,0.1c-0.9-3.9-7.3-7-14.9-7c-4.4,0-8.3,1-11.1,2.6c-2.1-1.9-5.3-3.2-9-3.2
	c-6.2,0-11.3,3.6-11.3,8c0,0.9,0.2,1.7,0.6,2.5c-4.3,1.8-6.9,4.1-6.9,6.6c0,5.5,12,9.9,26.9,9.9c9,0,16.9-1.6,21.8-4.1
	c1.8,0.4,3.9,0.7,6,0.7c8.3,0,15.1-3.6,15.1-8C510.3,106.4,503.6,102.8,495.2,102.8z"/>
<path class="st2" d="M338.9,120.8c0.3,0,0.6,0,0.9,0c0.4-1.7,3.1-3,6.4-3c1.9,0,3.6,0.4,4.8,1.1c0.9-0.8,2.3-1.4,3.9-1.4
	c2.7,0,4.9,1.5,4.9,3.5c0,0.4-0.1,0.7-0.2,1.1c1.8,0.8,3,1.8,3,2.8c0,2.4-5.2,4.3-11.6,4.3c-3.9,0-7.3-0.7-9.4-1.8
	c-0.8,0.2-1.7,0.3-2.6,0.3c-3.6,0-6.5-1.5-6.5-3.5C332.4,122.3,335.3,120.8,338.9,120.8z"/>
<path class="st2" d="M532.4,142.6c-0.4,0-0.8,0-1.2,0c-0.5-2.3-4.2-4-8.6-4c-2.5,0-4.8,0.6-6.3,1.5c-1.2-1.1-3.1-1.8-5.2-1.8
	c-3.6,0-6.5,2.1-6.5,4.6c0,0.5,0.1,1,0.3,1.4c-2.4,1-3.9,2.3-3.9,3.8c0,3.1,6.9,5.7,15.4,5.7c5.1,0,9.7-0.9,12.5-2.4
	c1.1,0.2,2.2,0.4,3.5,0.4c4.8,0,8.6-2.1,8.6-4.6S537.1,142.6,532.4,142.6z"/>
<line class="st12" x1="171" y1="182.7" x2="260.3" y2="175.5"/>
<ellipse class="st4" cx="392.3" cy="318.5" rx="26.5" ry="4.7"/>
<path class="st2" d="M196.9,316.1l31-15.4L325,300l-12.7,7.7c0,0-9.6,0.3-11.4,2.6c-1.8,2.2-9.7,5.8-9.7,5.8l-6.9,0.7
	c0,0-12-1.2-16.9-1.6s-22.5-0.4-22.5-0.4l-19.3-0.4c0,0-5.8,0.9-7.2,0.9s-8.5,1.8-10.3,1.8C206.3,317,196.9,316.1,196.9,316.1z"/>
<g>
	<path class="st13" d="M261.7,245.7h13.6c2.3,0,4.6,1,6.1,2.7l12.4,13.8c0.7,0.8,1.5,1.5,2.4,2.1l6.7,4.5c2.1,1.4,3.4,3.8,3.4,6.3
		v25.6c0,2.7-2.2,4.9-4.9,4.9h-37.2c-1.4,0-2.5-1.1-2.5-2.5V245.7L261.7,245.7z"/>
	<path class="st14" d="M306.2,300.8v-4.6h-44.5v7.1c0,1.3,1,2.3,2.3,2.3h37.4C304.1,305.6,306.2,303.5,306.2,300.8z"/>
	<path class="st15" d="M261.7,303.3v-7.1h-80.3c-1.3,0-2.3,1-2.3,2.3v4.6c0,1.3,1,2.3,2.3,2.3l82.2,0.2
		C262.5,305.4,261.7,304.4,261.7,303.3z"/>
	<path class="st16" d="M259.4,242.9h-84.9c-1.3,0-2.3,1-2.3,2.3v50.5c0,1.3,1,2.3,2.3,2.3h84.9c1.3,0,2.3-1,2.3-2.3v-50.5
		C261.7,243.9,260.7,242.9,259.4,242.9L259.4,242.9z"/>
	<path class="st17" d="M254.8,245.7c1.3,0,2.3,1,2.3,2.3l0,0c0,1.3-1,2.3-2.3,2.3l0,0h-75.7c-1.3,0-2.3-1-2.3-2.3l0,0
		c0-1.3,1-2.3,2.3-2.3"/>
	<path class="st18" d="M198.6,293.7c5.8,0,10.5,4.7,10.5,10.5s-4.7,10.5-10.5,10.5s-10.5-4.7-10.5-10.5S192.8,293.7,198.6,293.7
		L198.6,293.7z"/>
	<path class="st19" d="M198.6,296.2c-4.4,0-8,3.6-8,8s3.6,8,8,8s8-3.6,8-8C206.6,299.8,203,296.2,198.6,296.2L198.6,296.2z
		 M198.6,316.8c-7,0-12.6-5.7-12.6-12.6c0-7,5.7-12.6,12.6-12.6c7,0,12.6,5.7,12.6,12.6C211.2,311.2,205.6,316.8,198.6,316.8
		L198.6,316.8z"/>
	<path class="st16" d="M198.6,299.6c2.5,0,4.6,2.1,4.6,4.6s-2.1,4.6-4.6,4.6s-4.6-2.1-4.6-4.6S196.1,299.6,198.6,299.6L198.6,299.6z
		"/>
	<path class="st18" d="M278.9,293.7c5.8,0,10.5,4.7,10.5,10.5s-4.7,10.5-10.5,10.5s-10.5-4.7-10.5-10.5
		C268.4,298.4,273.1,293.7,278.9,293.7L278.9,293.7z"/>
	<path class="st19" d="M278.9,296.2c-4.4,0-8,3.6-8,8s3.6,8,8,8s8-3.6,8-8C287,299.8,283.4,296.2,278.9,296.2L278.9,296.2z
		 M278.9,316.8c-7,0-12.6-5.7-12.6-12.6c0-7,5.7-12.6,12.6-12.6s12.6,5.7,12.6,12.6C291.5,311.2,285.9,316.8,278.9,316.8
		L278.9,316.8z"/>
	<path class="st16" d="M278.9,299.6c2.5,0,4.6,2.1,4.6,4.6s-2.1,4.6-4.6,4.6s-4.6-2.1-4.6-4.6S276.4,299.6,278.9,299.6L278.9,299.6z
		"/>
	<path class="st18" d="M303.9,275.3h2.3v6.9h-2.3c-1.3,0-2.3-1-2.3-2.3v-2.3C301.6,276.4,302.7,275.3,303.9,275.3L303.9,275.3z"/>
	<path class="st14" d="M268.4,254v14.7c0,1,0.8,1.8,1.8,1.8h18.6c1.5,0,2.3-1.8,1.3-2.9l-12.9-14.7c-0.3-0.4-0.8-0.6-1.3-0.6h-5.6
		C269.2,252.2,268.4,253,268.4,254z"/>
	<path class="st14" d="M273.5,276.2h-4.2c-0.5,0-0.9-0.4-0.9-0.9l0,0c0-0.5,0.4-0.9,0.9-0.9h4.2c0.5,0,0.9,0.4,0.9,0.9l0,0
		C274.3,275.8,273.9,276.2,273.5,276.2z"/>
</g>
<path class="st1" d="M337.3,145.4c-0.4,0-0.7-0.3-0.9-0.7c-0.2-0.6,0-1.2,0.5-1.5l52.4-12.2c0.5-0.2,1,0,1.2,0.6s0,1.2-0.5,1.5
	l-52.4,12.2C337.6,145.4,337.5,145.4,337.3,145.4z"/>
<path id="XMLID_820_" class="st20" d="M455.3,148.7v90.9c0,2.9-2.4,5.3-5.3,5.3H330.2c-2.9,0-5.3-2.4-5.3-5.3v-90.9
	c0-2.9,2.4-5.3,5.3-5.3H450C452.9,143.4,455.3,145.8,455.3,148.7z"/>
<path id="XMLID_819_" class="st21" d="M455.3,148.7v12.5H324.9v-12.5c0-2.9,2.4-5.3,5.3-5.3H450
	C452.9,143.4,455.3,145.8,455.3,148.7z"/>
<path id="XMLID_818_" class="st1" d="M444.4,156.8h-61.6c-1.9,0-3.5-1.2-3.5-2.6l0,0c0-1.5,1.6-2.6,3.5-2.6h61.6
	c1.9,0,3.5,1.2,3.5,2.6l0,0C447.9,155.7,446.4,156.8,444.4,156.8z"/>
<path id="XMLID_6_" class="st1" d="M372.4,156.8h-11.3c-1.9,0-3.5-1.2-3.5-2.6l0,0c0-1.5,1.6-2.6,3.5-2.6h11.3
	c1.9,0,3.5,1.2,3.5,2.6l0,0C375.9,155.7,374.3,156.8,372.4,156.8z"/>
<circle id="XMLID_817_" class="st22" cx="336.2" cy="154" r="2.6"/>
<circle id="XMLID_816_" class="st23" cx="342.8" cy="154" r="2.6"/>
<circle id="XMLID_815_" class="st24" cx="349.4" cy="154" r="2.6"/>
<path id="XMLID_813_" class="st1" d="M383.7,235.6h-46.5c-2.8,0-5.1-2.3-5.1-5.1v-38.4c0-2.8,2.3-5.1,5.1-5.1h46.5
	c2.8,0,5.1,2.3,5.1,5.1v38.4C388.8,233.3,386.5,235.6,383.7,235.6z"/>
<path id="XMLID_1_" class="st1" d="M444.9,215.2h-46.5c-2.8,0-5.1-2.3-5.1-5.1V192c0-2.8,2.3-5.1,5.1-5.1h46.5
	c2.8,0,5.1,2.3,5.1,5.1v18.1C449.9,213,447.7,215.2,444.9,215.2z"/>
<path id="XMLID_809_" class="st1" d="M448.6,222h-54.1c-0.7,0-1.2-0.6-1.2-1.2v-0.4c0-0.7,0.6-1.2,1.2-1.2h54.1
	c0.7,0,1.2,0.6,1.2,1.2v0.4C449.9,221.5,449.3,222,448.6,222z"/>
<path id="XMLID_808_" class="st1" d="M448.6,229h-54.1c-0.7,0-1.2-0.6-1.2-1.2v-0.4c0-0.7,0.6-1.2,1.2-1.2h54.1
	c0.7,0,1.2,0.6,1.2,1.2v0.4C449.9,228.5,449.3,229,448.6,229z"/>
<path id="XMLID_773_" class="st1" d="M448.6,236.4h-54.1c-0.7,0-1.2-0.6-1.2-1.2v-0.4c0-0.7,0.6-1.2,1.2-1.2h54.1
	c0.7,0,1.2,0.6,1.2,1.2v0.4C449.9,235.8,449.3,236.4,448.6,236.4z"/>
<rect id="XMLID_804_" x="324.9" y="161.3" class="st25" width="130.4" height="2.9"/>
<g>
	<g>
		<path class="st25" d="M360.5,194.6c-11.2-0.4-14.5,10.4-13.4,15.3c1.1,4.9,12.6,17.9,13.4,17.9s12.3-12.9,13.4-17.9
			C375,205,371.7,194.2,360.5,194.6z M360.5,214.5c-5.6,0-10.2-3.8-10.2-8.6s4.6-8.6,10.2-8.6s10.2,3.8,10.2,8.6
			S366.2,214.5,360.5,214.5z"/>
		<path class="st25" d="M366.8,202.9c-0.3-0.3-1.7-0.2-2,0c0,0,0-0.1-0.1-0.1c-0.7-1.8-2.1-1.7-4.3-1.6c-2.2-0.1-3.6-0.2-4.3,1.6
			c0,0,0,0.1-0.1,0.1c-0.3-0.2-1.7-0.3-2,0c-0.2,0.2,0.3,1.1,0.9,1.2c-0.3,0.4-0.7,1-0.7,1.7c0,0.4-0.1,0.8,0,1.2
			c-0.1,0.2-0.1,0.4-0.1,0.6v1.9c0,0.7,0.4,1.2,1,1.2h0.4c0.5,0,1-0.5,1-1.2v-1c0.9,0.2,2.2,0.2,4,0.2c1.8,0.1,3,0,3.9-0.2v1
			c0,0.7,0.4,1.2,1,1.2h0.4c0.5,0,1-0.5,1-1.2v-1.9c0-0.2,0-0.4-0.1-0.6c0.1-0.4,0-0.8,0-1.2c-0.1-0.7-0.4-1.3-0.7-1.7
			C366.5,204,367.1,203.1,366.8,202.9z M356.8,207.7c-0.6,0-1.1-0.4-1.1-1s0.5-1,1.1-1s1.1,0.4,1.1,1S357.4,207.7,356.8,207.7z
			 M360.5,203.7c-1.1,0-4.1,0.3-4.1-0.1c0-0.6,0.5-0.6,1.1-1.4c0.6-0.8,2-0.7,3-0.7s2.4-0.1,3,0.7c0.6,0.7,1.1,0.8,1.1,1.4
			C364.6,204,361.6,203.8,360.5,203.7z M364.1,207.7c-0.6,0-1.1-0.4-1.1-1s0.5-1,1.1-1s1.1,0.4,1.1,1S364.7,207.7,364.1,207.7z"/>
	</g>
	<path class="st1" d="M364.6,203.6c0-0.6-0.5-0.6-1.1-1.4c-0.6-0.8-2-0.7-3-0.7s-2.4-0.1-3,0.7c-0.6,0.7-1.1,0.8-1.1,1.4
		c0,0.4,3,0.2,4.1,0.1C361.6,203.8,364.6,204,364.6,203.6z"/>
</g>
<circle class="st26" cx="393.8" cy="101.6" r="8.5"/>
<circle class="st27" cx="393.8" cy="101.6" r="5.8"/>
<polygon class="st2" points="484.7,316.6 504.5,310.2 508,309.2 509.1,309.6 501.2,316.6 "/>
<polygon class="st2" points="512.3,316.6 532.1,310.2 535.5,309.2 536.7,309.6 528.8,316.6 "/>
<g>
	<g>
		<polygon class="st28" points="498.3,314.2 486.8,314.2 487.7,310.8 488.4,308 489,305.6 489.7,302.8 491.5,295.9 493.6,295.9 
			495.4,302.8 496.1,305.6 496.7,308 497.5,310.8 		"/>
		<polygon class="st29" points="496.1,305.6 489,305.6 489.7,302.8 495.4,302.8 		"/>
		<polygon class="st29" points="497.5,310.8 487.7,310.8 488.4,308 496.7,308 		"/>
	</g>
	<rect x="484.3" y="314.2" class="st30" width="16.5" height="2.4"/>
</g>
<g>
	<g>
		<polygon class="st28" points="525.9,314.2 514.4,314.2 515.3,310.8 516,308 516.6,305.6 517.3,302.8 519.1,295.9 521.2,295.9 
			523,302.8 523.7,305.6 524.3,308 525.1,310.8 		"/>
		<polygon class="st29" points="523.7,305.6 516.6,305.6 517.3,302.8 523,302.8 		"/>
		<polygon class="st29" points="525.1,310.8 515.3,310.8 516,308 524.3,308 		"/>
	</g>
	<rect x="511.9" y="314.2" class="st30" width="16.5" height="2.4"/>
</g>
<g>
	<g>
		<path class="st31" d="M371.5,179.6L371.5,179.6l-2.1-3.1v4.7h-1.1v-6.6h1.2l2,3.1l2-3.1h1.2v6.6h-1.2v-4.8L371.5,179.6z"/>
		<path class="st31" d="M381.4,175.6h-3.8v1.7h3.3v1h-3.3v1.8h3.8v1h-5v-6.6h4.9v1.1H381.4z"/>
		<path class="st31" d="M386,181.3c-2.1,0-3.4-1.5-3.4-3.4s1.4-3.4,3.4-3.4c1.2,0,1.9,0.3,2.5,0.9l-0.7,0.9c-0.5-0.4-1-0.7-1.9-0.7
			c-1.2,0-2.2,1.1-2.2,2.3c0,1.4,0.9,2.4,2.3,2.4c0.6,0,1.2-0.2,1.6-0.5v-1.2h-1.7v-1h2.8v2.8C388.1,180.9,387.2,181.3,386,181.3z"
			/>
		<path class="st31" d="M396.6,181.2h-1.2l-0.7-1.6h-3.1l-0.7,1.6h-1.2l2.9-6.7h1.1L396.6,181.2z M393.1,175.9l-1.1,2.7h2.3
			L393.1,175.9z"/>
	</g>
	<g>
		<g>
			<path class="st32" d="M399.1,174.6v6.6h-1.2v-6.6H399.1z"/>
			<path class="st32" d="M409.9,181.2h-1.2v-5.6h-2.1v-1.1h5.4v1.1h-2.1L409.9,181.2L409.9,181.2z"/>
		</g>
		<g>
			<path class="st31" d="M409,170c-0.1,0-0.2,0-0.3-0.1c-2.8-2.8-7.4-2.8-10.2,0l0,0c-0.2,0.2-0.5,0.2-0.6,0c-0.2-0.2-0.2-0.5,0-0.6
				c3.2-3.2,8.3-3.2,11.4,0l0,0c0.2,0.2,0.2,0.5,0,0.6C409.2,170,409.1,170,409,170z"/>
			<path class="st33" d="M407.6,171.4c-0.1,0-0.2,0-0.3-0.1c-2.1-2.1-5.4-2.1-7.5,0c-0.2,0.2-0.5,0.2-0.6,0c-0.2-0.2-0.2-0.5,0-0.6
				c2.4-2.4,6.3-2.4,8.7,0l0,0c0.2,0.2,0.2,0.5,0,0.6C407.9,171.4,407.7,171.4,407.6,171.4z"/>
			<path class="st34" d="M406.3,172.8c-0.1,0-0.2,0-0.3-0.1c-1.3-1.3-3.5-1.3-4.8,0l0,0c-0.2,0.2-0.5,0.2-0.6,0
				c-0.2-0.2-0.2-0.5,0-0.6c1.7-1.7,4.4-1.7,6,0l0,0c0.2,0.2,0.2,0.5,0,0.6C406.5,172.7,406.4,172.8,406.3,172.8z"/>
			<path class="st35" d="M404.9,174.1c-0.1,0-0.2,0-0.3-0.1c-0.6-0.6-1.5-0.6-2.1,0c-0.2,0.2-0.5,0.2-0.6,0c-0.2-0.2-0.2-0.5,0-0.6
				c0.9-0.9,2.4-0.9,3.3,0c0.2,0.2,0.2,0.5,0,0.6C405.2,174.1,405,174.1,404.9,174.1z"/>
		</g>
		<g>
			<g>
				<path d="M405.9,176.3c-1.3-1.3-3.3-1.3-4.6,0c-0.6,0.6-0.9,1.4-0.9,2.3c0,0.9,0.3,1.7,0.9,2.3l0,0c0.1,0.1,0.2,0.1,0.3,0.1
					c0.1,0,0.2-0.1,0.3-0.1c0.2-0.2,0.2-0.5,0-0.7c-0.9-0.9-0.9-2.4,0-3.3c0.9-0.9,2.4-0.9,3.3,0c0.4,0.4,0.7,1,0.7,1.6
					s-0.2,1.2-0.7,1.6c-0.1,0.1-0.1,0.2-0.1,0.3c0,0.3,0.2,0.5,0.5,0.5c0.1,0,0.2-0.1,0.3-0.1C407.1,179.6,407.1,177.6,405.9,176.3z
					"/>
			</g>
			<path class="st31" d="M405,177.1h-0.1c-0.1,0.1-0.7,0.3-0.9,0.5c-0.1,0-0.2-0.1-0.4-0.1c-0.6,0-1.1,0.5-1.1,1.1s0.5,1.1,1.1,1.1
				s1.1-0.5,1.1-1.1c0-0.2,0-0.3-0.1-0.5c0.2-0.3,0.4-0.8,0.4-0.9C405,177.1,405,177.1,405,177.1z"/>
		</g>
	</g>
</g>
<g>
	<polygon class="st0" points="284.6,79.3 283.1,77 282.2,77 282.2,81.9 283.1,81.9 283.1,78.4 284.6,80.7 284.6,80.7 286.2,78.4 
		286.2,81.9 287.1,81.9 287.1,77 286.1,77 	"/>
	<polygon class="st0" points="289.2,79.8 291.7,79.8 291.7,79 289.2,79 289.2,77.8 292,77.8 292,77 288.3,77 288.3,81.9 292,81.9 
		292,81.1 289.2,81.1 	"/>
	<path class="st0" d="M295.3,79.9h1.3v0.9c-0.3,0.2-0.7,0.4-1.2,0.4c-1,0-1.7-0.7-1.7-1.8c0-1,0.7-1.7,1.6-1.7c0.6,0,1,0.2,1.4,0.5
		l0.5-0.7c-0.5-0.4-1-0.7-1.9-0.7c-1.5,0-2.5,1.2-2.5,2.6s1,2.5,2.6,2.5c0.9,0,1.6-0.4,2.1-0.8V79h-2.1L295.3,79.9L295.3,79.9z"/>
	<path class="st0" d="M300.3,76.9l-2.2,5h0.9l0.5-1.2h2.3l0.5,1.2h0.9l-2.2-5H300.3z M299.9,80l0.8-2l0.9,2H299.9z"/>
	<rect x="304.3" y="77" class="st0" width="0.9" height="4.9"/>
	<polygon class="st0" points="310.7,77 310.7,77.8 312.3,77.8 312.3,81.9 313.2,81.9 313.2,77.8 314.7,77.8 314.7,77 	"/>
	<path class="st0" d="M304.7,73.5L304.7,73.5c2.1-2.1,5.5-2.1,7.6,0c0.1,0.1,0.1,0.1,0.2,0.1s0.2,0,0.2-0.1c0.1-0.1,0.1-0.3,0-0.5
		l0,0c-2.4-2.3-6.2-2.3-8.5,0c-0.1,0.1-0.1,0.3,0,0.5C304.3,73.6,304.5,73.6,304.7,73.5z"/>
	<path class="st0" d="M311.2,74.5c0.1,0.1,0.1,0.1,0.2,0.1s0.2,0,0.2-0.1c0.1-0.1,0.1-0.3,0-0.5l0,0c-1.8-1.8-4.7-1.8-6.5,0
		c-0.1,0.1-0.1,0.3,0,0.5c0.1,0.1,0.3,0.1,0.5,0C307.2,73,309.7,73,311.2,74.5z"/>
	<path class="st0" d="M310.5,75.6c0.1,0,0.2,0,0.2-0.1c0.1-0.1,0.1-0.3,0-0.5l0,0c-1.2-1.2-3.3-1.2-4.5,0c-0.1,0.1-0.1,0.3,0,0.5
		c0.1,0.1,0.3,0.1,0.5,0l0,0c1-1,2.6-1,3.5,0C310.3,75.6,310.4,75.6,310.5,75.6z"/>
	<path class="st0" d="M307.2,76.1c-0.1,0.1-0.1,0.3,0,0.5c0.1,0.1,0.3,0.1,0.5,0c0.4-0.4,1.1-0.4,1.5,0c0.1,0.1,0.1,0.1,0.2,0.1
		s0.2,0,0.2-0.1c0.1-0.1,0.1-0.3,0-0.5C309,75.4,307.9,75.4,307.2,76.1z"/>
	<path class="st0" d="M306.8,78.3c-0.5,0.5-0.7,1.1-0.7,1.7s0.2,1.2,0.7,1.7l0,0c0.1,0.1,0.2,0.1,0.2,0.1c0.1,0,0.2,0,0.3-0.1
		c0.1-0.1,0.1-0.4,0-0.5c-0.7-0.7-0.7-1.8,0-2.4c0.7-0.7,1.8-0.7,2.4,0c0.3,0.3,0.5,0.8,0.5,1.2c0,0.5-0.2,0.9-0.5,1.2
		c-0.1,0.1-0.1,0.2-0.1,0.2c0,0.2,0.2,0.3,0.4,0.3c0.1,0,0.2,0,0.2-0.1c0.9-0.9,0.9-2.5,0-3.4C309.2,77.3,307.7,77.3,306.8,78.3z"/>
	<path class="st0" d="M309.5,78.8C309.5,78.8,309.4,78.8,309.5,78.8c-0.2,0-0.6,0.2-0.8,0.4c-0.1,0-0.2,0-0.3,0
		c-0.5,0-0.8,0.4-0.8,0.8c0,0.5,0.4,0.8,0.8,0.8s0.8-0.4,0.8-0.8c0-0.1,0-0.3-0.1-0.4C309.3,79.4,309.5,79,309.5,78.8
		C309.5,78.9,309.5,78.8,309.5,78.8z"/>
</g>
<g>
	<polygon class="st1" points="275.6,282.1 274.9,281 274.5,281 274.5,283.3 274.9,283.3 274.9,281.7 275.6,282.7 275.6,282.7 
		276.3,281.7 276.3,283.3 276.7,283.3 276.7,281 276.3,281 	"/>
	<polygon class="st1" points="277.7,282.3 278.8,282.3 278.8,282 277.7,282 277.7,281.4 278.9,281.4 278.9,281 277.3,281 
		277.3,283.3 278.9,283.3 278.9,282.9 277.7,282.9 	"/>
	<path class="st1" d="M280.5,282.4h0.6v0.4c-0.1,0.1-0.3,0.2-0.5,0.2c-0.5,0-0.8-0.3-0.8-0.8c0-0.4,0.3-0.8,0.7-0.8
		c0.3,0,0.5,0.1,0.6,0.2l0.2-0.3c-0.2-0.2-0.5-0.3-0.9-0.3c-0.7,0-1.2,0.5-1.2,1.2s0.5,1.2,1.2,1.2c0.4,0,0.7-0.2,0.9-0.3V282h-1
		v0.4H280.5z"/>
	<path class="st1" d="M282.7,281l-1,2.3h0.4l0.2-0.5h1.1l0.2,0.5h0.4l-1-2.3H282.7z M282.5,282.4l0.4-0.9l0.4,0.9H282.5z"/>
	<rect x="284.5" y="281" class="st1" width="0.4" height="2.2"/>
	<polygon class="st1" points="287.4,281 287.4,281.4 288.1,281.4 288.1,283.3 288.5,283.3 288.5,281.4 289.2,281.4 289.2,281 	"/>
	<path class="st1" d="M284.7,279.5L284.7,279.5c0.9-0.9,2.5-0.9,3.4,0h0.1h0.1c0.1-0.1,0.1-0.2,0-0.2l0,0c-1.1-1.1-2.8-1.1-3.9,0
		c-0.1,0.1-0.1,0.2,0,0.2C284.5,279.5,284.6,279.5,284.7,279.5z"/>
	<path class="st1" d="M287.7,279.9h0.1h0.1c0.1-0.1,0.1-0.2,0-0.2l0,0c-0.8-0.8-2.1-0.8-2.9,0c-0.1,0.1-0.1,0.2,0,0.2
		c0.1,0.1,0.2,0.1,0.2,0C285.8,279.2,287,279.2,287.7,279.9z"/>
	<path class="st1" d="M287.3,280.4h0.1c0.1-0.1,0.1-0.2,0-0.2l0,0c-0.6-0.6-1.5-0.6-2,0c-0.1,0.1-0.1,0.2,0,0.2
		c0.1,0.1,0.2,0.1,0.2,0l0,0C286,280,286.8,280,287.3,280.4L287.3,280.4z"/>
	<path class="st1" d="M285.8,280.6c-0.1,0.1-0.1,0.2,0,0.2c0.1,0.1,0.2,0.1,0.2,0c0.2-0.2,0.5-0.2,0.7,0h0.1h0.1
		c0.1-0.1,0.1-0.2,0-0.2C286.7,280.3,286.1,280.3,285.8,280.6z"/>
	<path class="st1" d="M285.6,281.6c-0.2,0.2-0.3,0.5-0.3,0.8s0.1,0.6,0.3,0.8l0,0h0.1h0.1c0.1-0.1,0.1-0.2,0-0.2
		c-0.3-0.3-0.3-0.8,0-1.1c0.3-0.3,0.8-0.3,1.1,0c0.1,0.1,0.2,0.3,0.2,0.5s-0.1,0.4-0.2,0.5v0.1c0,0.1,0.1,0.2,0.2,0.2h0.1
		c0.4-0.4,0.4-1.1,0-1.5C286.7,281.2,286.1,281.2,285.6,281.6z"/>
	<path class="st1" d="M286.9,281.9C286.9,281.9,286.8,281.9,286.9,281.9c-0.1,0-0.3,0.1-0.3,0.2h-0.1c-0.2,0-0.4,0.2-0.4,0.4
		s0.2,0.4,0.4,0.4s0.4-0.2,0.4-0.4c0-0.1,0-0.1,0-0.2C286.8,282.1,286.9,281.9,286.9,281.9L286.9,281.9z"/>
</g>
<g>
	<path class="st2" d="M275.5,152.9c-0.3-0.1-0.6-0.4-0.8-0.7c-5.1-9.8-17.7-14.7-28.2-11l0,0c-0.7,0.2-1.4-0.1-1.8-0.7
		c-0.3-0.6,0-1.3,0.6-1.5c11.7-4.3,25.9,1.3,31.7,12.3l0,0c0.3,0.6,0.1,1.3-0.6,1.5C276.2,153,275.8,153,275.5,152.9z"/>
	<path class="st2" d="M270.5,154.7c-0.3-0.1-0.6-0.4-0.8-0.7c-3.8-7.2-13-10.8-20.7-8c-0.7,0.2-1.4-0.1-1.8-0.7
		c-0.3-0.6,0-1.3,0.6-1.5c9-3.3,19.8,1,24.2,9.4l0,0c0.3,0.6,0.1,1.3-0.6,1.5C271.2,154.8,270.8,154.8,270.5,154.7z"/>
	<path class="st2" d="M265.4,156.5c-0.3-0.1-0.6-0.4-0.8-0.7c-2.4-4.6-8.3-6.9-13.2-5.1l0,0c-0.7,0.2-1.4-0.1-1.8-0.7
		c-0.3-0.6,0-1.3,0.6-1.5c6.2-2.2,13.7,0.7,16.7,6.5l0,0c0.3,0.6,0.1,1.3-0.6,1.5C266.1,156.6,265.8,156.6,265.4,156.5z"/>
	<path class="st2" d="M260.4,158.3c-0.3-0.1-0.6-0.4-0.8-0.7c-1-2-3.6-3-5.7-2.2c-0.7,0.2-1.4-0.1-1.8-0.7c-0.3-0.6,0-1.3,0.6-1.5
		c3.4-1.2,7.6,0.4,9.2,3.6c0.3,0.6,0.1,1.3-0.6,1.5C261.1,158.5,260.7,158.5,260.4,158.3z"/>
</g>
<g>
	<path class="st2" d="M519.4,219.3c-0.2,0.1-0.5,0.1-0.7,0c-7.6-3.1-17,0.2-21,7.3l0,0c-0.3,0.4-0.9,0.6-1.3,0.4
		c-0.5-0.2-0.6-0.7-0.4-1.1c4.5-8,15.1-11.7,23.6-8.2l0,0c0.5,0.2,0.7,0.7,0.4,1.1C519.9,219,519.6,219.2,519.4,219.3z"/>
	<path class="st2" d="M517.5,222.7c-0.2,0.1-0.5,0.1-0.7,0c-5.6-2.2-12.4,0.2-15.4,5.4c-0.3,0.4-0.9,0.6-1.3,0.4
		c-0.5-0.2-0.6-0.7-0.4-1.1c3.5-6.1,11.5-8.9,18-6.3l0,0c0.5,0.2,0.7,0.7,0.4,1.1C517.9,222.5,517.7,222.6,517.5,222.7z"/>
	<path class="st2" d="M515.5,226.1c-0.2,0.1-0.5,0.1-0.7,0c-3.5-1.4-7.9,0.1-9.8,3.4l0,0c-0.3,0.4-0.9,0.6-1.3,0.4
		c-0.5-0.2-0.6-0.7-0.4-1.1c2.4-4.2,8-6.2,12.5-4.3l0,0c0.5,0.2,0.7,0.7,0.4,1.1C516,225.9,515.8,226,515.5,226.1z"/>
	<path class="st2" d="M513.6,229.6c-0.2,0.1-0.5,0.1-0.7,0c-1.5-0.6-3.4,0-4.3,1.5c-0.3,0.4-0.9,0.6-1.3,0.4
		c-0.5-0.2-0.6-0.7-0.4-1.1c1.3-2.3,4.4-3.4,6.9-2.4c0.5,0.2,0.7,0.7,0.4,1.1C514,229.3,513.8,229.5,513.6,229.6z"/>
</g>
<g>
	<path class="st2" d="M289.7,216.3c-0.5,0.1-1,0-1.4-0.2c-13.9-8-33.1-4.2-42.9,8.5l0,0c-0.6,0.8-1.8,1-2.7,0.5
		c-0.8-0.5-1-1.5-0.5-2.3c11-14.3,32.6-18.6,48.3-9.5l0,0c0.9,0.5,1.1,1.6,0.5,2.4C290.6,216,290.2,216.2,289.7,216.3z"/>
	<path class="st2" d="M285,222.5c-0.5,0.1-1,0-1.4-0.2c-10.2-5.9-24.3-3.1-31.5,6.2c-0.6,0.8-1.8,1-2.7,0.5c-0.8-0.5-1-1.5-0.5-2.3
		c8.4-10.9,24.9-14.2,36.9-7.3l0,0c0.9,0.5,1.1,1.6,0.5,2.4C285.9,222.1,285.5,222.4,285,222.5z"/>
	<path class="st2" d="M280.2,228.6c-0.5,0.1-1,0-1.4-0.2c-6.5-3.8-15.5-2-20.1,4l0,0c-0.6,0.8-1.8,1-2.7,0.5c-0.8-0.5-1-1.5-0.5-2.3
		c5.8-7.5,17.2-9.8,25.5-5l0,0c0.9,0.5,1.1,1.6,0.5,2.4C281.2,228.2,280.7,228.5,280.2,228.6z"/>
	<path class="st2" d="M275.5,234.7c-0.5,0.1-1,0-1.4-0.2c-2.8-1.6-6.7-0.9-8.7,1.7c-0.6,0.8-1.8,1-2.7,0.5c-0.8-0.5-1-1.5-0.5-2.3
		c3.2-4.2,9.5-5.4,14.1-2.8c0.9,0.5,1.1,1.6,0.5,2.4C276.5,234.4,276,234.6,275.5,234.7z"/>
</g>
</svg>
