<?xml version="1.0" encoding="utf-8"?>
<!-- Generator: Adobe Illustrator 21.1.0, SVG Export Plug-In . SVG Version: 6.00 Build 0)  -->
<svg version="1.1" id="Isometric_City" xmlns="http://www.w3.org/2000/svg" xmlns:xlink="http://www.w3.org/1999/xlink" x="0px"
	 y="0px" viewBox="0 0 1701.3 1701.3" style="enable-background:new 0 0 1701.3 1701.3;" xml:space="preserve">
<style type="text/css">
	.st0{fill:#FFFFFF;}
	.st1{fill:#CAD5D8;}
	.st2{fill:#9EBDC6;}
	.st3{fill:#FFE2B0;}
	.st4{fill:#6B6B6B;}
	.st5{opacity:0.6;fill:#D1D3D4;}
	.st6{fill:#F7AFA6;}
	.st7{fill:url(#SVGID_1_);}
	.st8{fill:url(#SVGID_2_);}
	.st9{fill:url(#SVGID_3_);}
	.st10{fill:url(#SVGID_4_);}
	.st11{fill:url(#SVGID_5_);}
	.st12{fill:url(#SVGID_6_);}
</style>
<g>
	<polygon class="st0" points="369.1,486.9 708.2,486.9 708.2,507.4 347.3,507.4 	"/>
	<g>
		<g>
			<g>
				<g>
					<g>
						<polygon class="st1" points="550.8,255.8 209,268.2 229.8,259.1 617.1,205.6 						"/>
					</g>
					<g>
						<path class="st1" d="M1075.9,199.1l-89.9-30.5c0,0-212.4,19-244.2,28.7c-32.6,10-50.2,6.5-69.9,9.7
							c-19.7,3.2-63.4,37.9-35.4,43.5c33.7,6.5,79.6-16.9,106.7-24.2c26.7-7.2,36.6-12.6,70.5-10.2
							C903.8,223.1,1061.1,200.1,1075.9,199.1z"/>
					</g>
					<g>
						<polygon class="st2" points="741.3,706.6 956.4,747.3 989,706.3 742.3,661.9 						"/>
						<polygon class="st1" points="922.6,1004.6 1076.7,866.7 921.9,803.2 951.8,761.6 744.8,720.2 738.3,864 						"/>
						<g>
							<polygon class="st2" points="1068.2,521 1092.8,507.5 1051.4,493.8 1026.9,506.7 							"/>
							<polygon class="st2" points="1209.5,569.8 1234.2,554.6 1185.7,538.5 1161,553.1 							"/>
						</g>
						<g>
							<polygon class="st2" points="1011.8,548.3 1038.7,534.6 997.7,519.6 971.1,532.8 							"/>
							<polygon class="st2" points="1079.6,574.3 1106.8,559.6 1062.4,543.4 1035.4,557.5 							"/>
							<polygon class="st2" points="1178.1,515.1 1202.6,501.9 1158.1,488 1133.6,500.6 							"/>
							<polygon class="st2" points="884.9,418.4 912.7,407.4 868.2,393.4 844.4,406.5 							"/>
							<polygon class="st2" points="837,441.1 864.8,430.1 820.3,416.1 796.5,429.2 							"/>
							<polygon class="st2" points="657.4,672.1 659.1,647.3 568.9,630.1 567.6,653.1 							"/>
							<polygon class="st2" points="1296.8,466.1 1306,450.1 1261,440.1 1251.1,455.5 							"/>
							<polygon class="st2" points="1313.2,437.4 1322.5,421.5 1277.4,411.4 1267.5,426.9 							"/>
							<polygon class="st2" points="1098.7,392.6 1113.8,381.6 1016.2,367.8 1003.2,375.7 							"/>
							<polygon class="st2" points="1151.6,601.4 1178.9,585.8 1130.7,568.2 1103.5,583.2 							"/>
						</g>
						<polygon class="st2" points="270.4,303.2 93.2,306.8 80.9,317.8 -32.3,324.9 -16.3,336.6 249.5,321.1 						"/>
						<polygon class="st2" points="270.2,287.3 341.9,285.5 349.2,281.2 278,283.1 						"/>
						<polygon class="st2" points="145.8,289 217.4,287.1 224.8,282.9 153.5,284.8 						"/>
						<polygon class="st2" points="7.3,289.1 78.9,287.3 86.3,283 15,284.9 						"/>
						<polygon class="st2" points="398,284.7 474.2,282.7 480.9,278.3 405.1,280.3 						"/>
						<polygon class="st2" points="729.4,249.2 675.2,259.5 689.3,263 744.6,252.1 						"/>
						<polygon class="st2" points="817.1,232.3 763.6,242.5 778.6,245.8 833.1,235.1 						"/>
						<polygon class="st2" points="1131.2,310.5 982.8,315.1 995.1,331.3 1162.9,331.9 						"/>
						<polygon class="st2" points="772.8,320.7 659,320.4 659.5,329.6 782.4,332.4 						"/>
						<polygon class="st2" points="353,348.3 320.7,351.9 317.5,366.7 350.2,363.1 						"/>
						<polygon class="st2" points="444.9,308.2 418.1,308.8 415.1,322.1 445.3,319.2 						"/>
						<polygon class="st2" points="263.7,359 234.3,362.1 228.2,377.3 257.6,374.5 						"/>
					</g>
					<g>
						<polygon class="st1" points="727.8,279.2 692.5,269.7 832.5,244.8 1045.2,222.3 1081,243 950.1,271.9 815.4,267 						"/>
						<polygon class="st1" points="1069.3,453.7 943,419.6 832.9,461.2 764.3,435.7 701.2,464.6 700.5,511.9 892.9,541.1 						"/>
						<polygon class="st1" points="382.2,292 -79.6,296.6 -3.9,345.2 364.1,322.8 						"/>
						<polygon class="st1" points="560.5,358.3 526,356.1 489.7,366.4 519.2,432.9 						"/>
					</g>
					<g>
						<path class="st0" d="M518.9,266c-1.9-1.2-5.6-1.9-8.5-1.6c-7.1,0.4-133.6,4.6-241.3,8.1c0,0,0,0-0.1,0
							c-36.4,1.2-226.7,3.1-254.1,4c-2.9,0.1-5.1,1.2-5,2.5c0.1,1.3,2.6,2.3,5.6,2.2c30.3-0.9,214.9-2.7,241.7-3.5L231,291.5
							l-310.4,2.6c-2.9,0-5.4,1.2-5.5,2.5c-0.1,1.4,2.2,2.5,5.2,2.4l373.7-3.3L260.2,326L-4.5,342.3c-3.2,0.2-5.5,1.7-5.2,3.3
							c0.3,1.6,3.3,2.8,6.5,2.6L362.4,326l-3.4,8.8L92.3,365.1c-3.3,0.4-5.4,2.1-4.7,3.9c0.7,1.8,4.1,2.9,7.5,2.6l112.1-13L184,420
							c-0.8,2.2,1.6,4.5,5.5,5.1c1.2,0.2,2.5,0.2,3.6,0.1c2.4-0.3,4.3-1.4,4.8-2.9L221,357l74-8.2l-17.3,51.1c-0.7,2,1.9,4.3,5.9,5
							c1.4,0.3,2.8,0.3,4,0.1c2.2-0.3,3.9-1.2,4.4-2.6l17.3-55.2l293.8-32.7c0.1,0,0.2,0,0.3,0c3.3-0.5,4-2.1,1.7-3.6
							c-2.4-1.6-7.2-2.6-10.7-2.2l-119.6,13.3l-0.4-28.5l69.3-0.9c0.6,0,1.2,0,1.7-0.1c2.6-0.4,3.7-1.5,2.6-2.7
							c-1.3-1.5-5.4-2.7-9-2.6L303,290.5c0,0,0,0,0,0l-56.4,0.8l26.4-14.2c157.1-4.9,242-7.7,244.1-8
							C520.1,268.7,520.9,267.3,518.9,266z M373.8,333.2l14-38.6l73.1-0.9l-0.4,29.9L373.8,333.2z M308.1,295.6l66.5-0.9l-9.7,25
							l-89,5.4L308.1,295.6z"/>
						<path class="st0" d="M216.9,547.1l467.3,87.7l-8.6,232.6c-0.2,6.3,7.1,15,16.4,19.4c4.3,2,8.3,2.8,11.4,2.4
							c3.6-0.5,5.8-2.6,5.8-6.1l1.6-243.3l194.4,36.5c1.6,0.4,3,0.7,4.4,0.8l103.3,19.4c1.1,0.3,2.2,0.5,3.2,0.6l111.4,20.9
							c2.7,0.5,4.9,0.6,6.7,0.4c1.1-0.1,1.9-0.4,2.6-0.8l95.2-61.1c1,0,1.9,0,2.7-0.1c1.6-0.2,2.7-0.7,3.2-1.6
							c0.3-0.6,0.2-1.3-0.1-2.1l158.8-101.9c1.6-1,0.5-3-3-5.3c-3.5-2.3-9-4.6-14.9-6.3L950.4,414.3c-5.1-1.5-10.2-1.9-12.7-1
							l-109.9,41.2l-57.4-21.1l96.7-57.6l459.2,116.6c5.2,1.3,10,1.9,13.1,1.7l189.1-9.7L2336.3,856c19.4,8.9,46,17,59.2,17.8
							c1.8,0.1,3.3,0.1,4.4-0.1c7-1,0.4-7-16.8-14.8l-842.9-380.8c-1.2-0.6-2.6-1.3-4.2-1.9c-0.1,0-0.2-0.1-0.3-0.1l-264.1-119.3
							c-5-2.3-13.4-4-18.8-3.9c-5.4,0.1-5.8,2-0.9,4.2l76.5,35.2l-169.9-16.5c-3.5-0.4-6.2-0.2-7.4,0.5l-41.1,24.3
							c-0.9-0.2-1.8-0.4-2.7-0.6l-139.7-25.2l24.2-22.1c1.5-1.4-2.1-3.8-8-5.4c-5.9-1.6-11.9-1.8-13.4-0.4l-28.9,25.5
							c-1,0.9-0.2,2.2,2.2,3.6c2.4,1.4,6,2.6,9.7,3.3l147,27l-25,14.8l-200.2-50l33-19.6c2.1-1.2-0.6-3.6-6-5.3
							c-5.3-1.6-11.3-2-13.4-0.8L691.9,460.2c-0.8,0.5-1.2,1.1-1.2,1.8l-5.9,158.4l-355.7-64.8l46.8-90.1L496,425.9
							c1.9-0.6,2.8-1.9,2.3-3.3L473,354.5c-0.7-1.9-4.6-3.6-8.7-3.9c-4.1-0.2-6.8,1.1-6.2,3l7.6,22.1l-95.6,26.4c0,0,0,0-0.1,0
							L287.2,425c-2.8,0.8-4,2.6-3,4.5l23.8,45.8l-29.1,9.5l-44-68.3c-1.4-2.2-5.5-3.5-9.1-3c0,0-0.1,0-0.1,0
							c-3.7,0.5-5.6,2.7-4.2,4.9l46.3,74.9c1,1.6,2.9,2.9,5.4,3.6c1.8,0.5,3.7,0.7,5.5,0.5c0.6-0.1,1.2-0.2,1.7-0.4l72.5-23.9
							l-43.1,79L219,535.5c-4.7-0.9-9,1-9.6,4.2C208.8,542.9,212.1,546.2,216.9,547.1z M300.5,431.6l70.2-19.5l18.9,36.6l-67.7,22.1
							L300.5,431.6z M403.4,444.1l-19.4-35.8l35.8-10c4.6,8.3,11.5,23.6,16.4,35.1L403.4,444.1z M480.6,419l-30.4,9.9
							c-4.7-10.1-12.5-26.4-17.5-34.1l36.1-10.1L480.6,419z M1234,391.2l-50.9,56.6l-79.5-19.8l71-43.1L1234,391.2z M1213.7,455.5
							l52.2-60.9l84.4,7.8l150.8,69.4l-184.2,9.5L1213.7,455.5z M1057.4,454l-38.6,17.7c-0.7,0.2-1.3,0.4-1.7,0.8l-133.7,61.4
							l-171.8-25.7l0.3-39.9l49.1-29.2l68.3,25.5c5.2,1.9,10.8,2.5,13.6,1.5l111.6-42.5L1057.4,454z M1204.1,634.6L942.7,529.7
							l44-20.6l265.4,95.7L1204.1,634.6z M1264.2,597.3l-265.2-94l39.7-18.6l266.7,87L1264.2,597.3z M1353.5,541.8l-36.6,22.8
							l-266.4-85.4l35.5-16.7L1353.5,541.8z M1030.7,683.4l24.8-48.6c1.5-2.9-4-8-12.5-11.7l-134.9-59.3l-1.5-17.3l23.3-10.9
							l261.4,106.9l-87.4,54.3L1030.7,683.4z M916.9,662.7l-7.5-86l110.7,49.6l-27.7,50.2L916.9,662.7z M710.9,625.2l0.7-106
							L879.9,545l6.1,112.1L710.9,625.2z"/>
						<path class="st0" d="M909.3,234l163-16.9c3.4-0.4,9.1,0.4,12.6,1.6c3.5,1.3,3.6,2.6,0.1,3l-246.7,25.5L706,270.7l20.2,5.4
							l83.3-11.6c0,0,0,0,0,0c0.7-0.1,1.6-0.1,2.5-0.1l139.5,2.6l173.4-38.6c2.9-0.6,8.9-0.1,13.4,1.2c4.6,1.3,6,2.9,3.1,3.6
							L995.2,266l134.9,21.2c6.2,1,11.4,2.9,11.7,4.4c0.1,0.6-0.7,1.1-2.2,1.3c-2,0.3-5.1,0.2-8.6-0.4l-148.4-23.7l-16.6,3.7
							l-122.8,31.7c-0.3,0.1-0.6,0.1-1,0.2c-3.1,0.4-8.1-0.2-11.8-1.6c-4.1-1.5-5-3.4-2.1-4.1L931.7,272l-111.5-2.3l-87,12.1
							c0,0,0,0,0,0c0,0,0,0,0,0l-153.1,21.3c0,0,0,0,0,0c-3.3,0.5-8-0.4-10.4-2c-2.4-1.5-1.7-3.1,1.6-3.6L713,277.9l-44.1-12.3
							c-3.5-1-5-2.5-3.3-3.4c1.7-0.9,5.9-0.9,9.4,0l15.7,4.4l79.2-14.1l-6.8-1.4c-4-0.7-6.4-2.2-5.5-3.2c0.9-1,4.8-1.3,8.7-0.6
							l16.2,2.9l43.7-7.8c0.2,0,0.5-0.1,0.8-0.1l61.8-6.4L909.3,234z"/>
					</g>
					<path class="st3" d="M117.1,429.1l377.6-92.5c1.8-0.5,3.9-0.7,6.3-0.7l84.8-0.2l11.5-24.2l-55.9-12.3c-4.5-1-8.2-2.6-10.2-4.3
						c-2-1.8-2.2-3.5-0.4-4.9l96.1-78.3c2.5-2,4.3-3.3,11.9-1.9c7.6,1.4,5.7,2.6,3.2,4.6L567,292.3l47.5,10.1l529.8-24.8
						c10.1-0.4,37.1,5.8,47,9.7c8.8,3.5,21.4,10.5,14.1,11.5c-1,0.1-2.1,0.2-3.3,0.3L633,315.8l-8.3,20.3l702.1,8
						c13.4,0.2,33.7,4.5,45.4,9.6c9.6,4.2,25.9,12.8,18.3,13.9c-1.8,0.2-4,0.4-6.7,0.3l-765.2-16.7L390.5,958.3
						c-2.8,7.2-8.8,11.4-16.1,12.5c-7.9,1.1-35.7-5.6-44.3-11.9c-16.4-12.1-44.4-30.2-37.6-43.9l286.2-564l-63.2-0.1l-382,104.6
						c-8.2,2.2-19-3.8-22.5-8.8C107.5,441.6,109.3,431.1,117.1,429.1z"/>
				</g>
				<g>
					<path class="st0" d="M1020.5,1013.3c2.9-0.4,5.3-1.3,7-2.9l597.1-499.6c2.8-2.5-3.6-6.7-14-9.4c-10.3-2.7-20.9-2.8-23.8-0.4
						L983.8,989.3c-5.8,4.9,0.8,11.2,12.1,18.2C1004.1,1012.5,1013.5,1014.3,1020.5,1013.3z"/>
				</g>
			</g>
			<g>
				<polygon class="st0" points="1511.3,581.5 1523.4,574.5 1338,484.2 1325.9,491.2 				"/>
			</g>
		</g>
		<polygon class="st1" points="1527.6,614.7 1152.9,946.8 2046.6,853.5 		"/>
	</g>
</g>
<g>
	<path class="st4" d="M662.7,765c11-10.6,16.5-19,19.3-25.1c1.7-3.1,2.7-6.7,2.7-10.5c0-12.1-9.8-21.9-21.9-21.9
		c-11.8,0-21.4,9.4-21.8,21.1h0c0,0-4.1,13.6,19.1,36.4H662.7z M662.1,737.9c-4.7,0-8.6-3.8-8.6-8.6c0-4.7,3.8-8.6,8.6-8.6
		c4.7,0,8.6,3.8,8.6,8.6C670.7,734.1,666.8,737.9,662.1,737.9z"/>
	<path class="st5" d="M697,749.9c-11.8,0-27.5,2.5-35.4,5.5h0c0,0-11,3.3-1.6,9.6c17.9-2.8,28.8-5,35.4-6.6c3.7-0.8,7-1.8,9.5-2.8
		C712.6,752.5,709.1,749.9,697,749.9z M677.1,758.1c-5.1,0-6.6-1.1-3.3-2.4c3.3-1.3,10.1-2.4,15.2-2.4c5.1,0,6.6,1.1,3.3,2.4
		C688.9,757,682.2,758.1,677.1,758.1z"/>
	<path class="st6" d="M660.1,707.5c-11.8,0-21.4,9.4-21.8,21.1h0c0,0-2.8,12.7,21.8,36.4c11-10.6,16.5-19,19.3-25.1
		c1.7-3.1,2.7-6.7,2.7-10.5C682,717.3,672.2,707.5,660.1,707.5z M660.1,738.6c-5.1,0-9.2-4.1-9.2-9.2c0-5.1,4.1-9.2,9.2-9.2
		c5.1,0,9.2,4.1,9.2,9.2C669.3,734.5,665.2,738.6,660.1,738.6z"/>
</g>
<g>
	<path class="st4" d="M389.3,815.6c12.8-12.3,19.2-22.1,22.4-29.1c2-3.6,3.1-7.8,3.1-12.2c0-14-11.4-25.4-25.4-25.4
		c-13.7,0-24.9,10.9-25.3,24.5h0c0,0-4.7,15.7,22.1,42.2H389.3z M388.5,784.2c-5.5,0-9.9-4.4-9.9-9.9c0-5.5,4.4-9.9,9.9-9.9
		c5.5,0,9.9,4.4,9.9,9.9C398.5,779.8,394,784.2,388.5,784.2z"/>
	<path class="st5" d="M429.1,798.1c-13.7,0-31.8,2.9-41.1,6.4h0c0,0-12.7,3.9-1.8,11.1c20.7-3.2,33.4-5.8,41-7.6c4.3-1,8.1-2,11-3.2
		C447.1,801.1,443.1,798.1,429.1,798.1z M405.9,807.5c-5.9,0-7.6-1.3-3.8-2.8c3.8-1.6,11.7-2.8,17.6-2.8c5.9,0,7.6,1.3,3.8,2.8
		C419.7,806.3,411.8,807.5,405.9,807.5z"/>
	<path class="st6" d="M386.2,748.9c-13.7,0-24.9,10.9-25.3,24.5h0c0,0-3.3,14.7,25.3,42.2c12.8-12.3,19.2-22.1,22.4-29.1
		c2-3.6,3.1-7.8,3.1-12.2C411.6,760.3,400.2,748.9,386.2,748.9z M386.2,785c-5.9,0-10.7-4.8-10.7-10.7c0-5.9,4.8-10.7,10.7-10.7
		c5.9,0,10.7,4.8,10.7,10.7C396.9,780.2,392.1,785,386.2,785z"/>
</g>
<g>
	<path class="st4" d="M1392.6,679.3c11.5-11.1,17.3-19.9,20.2-26.2c1.8-3.3,2.8-7,2.8-11c0-12.7-10.3-22.9-22.9-22.9
		c-12.4,0-22.4,9.8-22.9,22.1h0c0,0-4.3,14.2,19.9,38.1H1392.6z M1392,651c-4.9,0-9-4-9-9c0-4.9,4-9,9-9c4.9,0,9,4,9,9
		C1400.9,647,1396.9,651,1392,651z"/>
	<path class="st5" d="M1428.5,663.5c-12.4,0-28.7,2.6-37,5.8h0c0,0-11.5,3.5-1.7,10c18.7-2.9,30.1-5.2,37-6.9
		c3.9-0.9,7.4-1.8,9.9-2.9C1444.8,666.2,1441.2,663.5,1428.5,663.5z M1407.6,672.1c-5.3,0-6.9-1.1-3.5-2.5
		c3.4-1.4,10.5-2.5,15.9-2.5c5.3,0,6.9,1.1,3.5,2.5C1420.1,670.9,1412.9,672.1,1407.6,672.1z"/>
	<path class="st6" d="M1389.9,619.1c-12.4,0-22.4,9.8-22.9,22.1h0c0,0-3,13.3,22.8,38.1c11.5-11.1,17.3-19.9,20.2-26.2
		c1.8-3.3,2.8-7,2.8-11C1412.8,629.4,1402.5,619.1,1389.9,619.1z M1389.9,651.7c-5.3,0-9.7-4.3-9.7-9.7c0-5.3,4.3-9.7,9.7-9.7
		c5.3,0,9.7,4.3,9.7,9.7C1399.5,647.4,1395.2,651.7,1389.9,651.7z"/>
</g>
<g>
	<path class="st4" d="M1214.3,631.9c11.7-11.3,17.5-20.2,20.4-26.6c1.8-3.3,2.9-7.1,2.9-11.2c0-12.8-10.4-23.2-23.2-23.2
		c-12.5,0-22.7,10-23.2,22.4h0c0,0-4.3,14.4,20.2,38.6H1214.3z M1213.6,603.2c-5,0-9.1-4.1-9.1-9.1c0-5,4.1-9.1,9.1-9.1
		c5,0,9.1,4.1,9.1,9.1C1222.7,599.1,1218.6,603.2,1213.6,603.2z"/>
	<path class="st5" d="M1250.7,615.9c-12.5,0-29.1,2.6-37.5,5.9h0c0,0-11.6,3.5-1.7,10.1c18.9-3,30.5-5.3,37.5-7
		c4-0.9,7.5-1.9,10.1-2.9C1267.2,618.6,1263.5,615.9,1250.7,615.9z M1229.5,624.5c-5.4,0-7-1.2-3.5-2.6c3.5-1.4,10.7-2.6,16.1-2.6
		c5.4,0,7,1.2,3.5,2.6C1242.1,623.4,1234.9,624.5,1229.5,624.5z"/>
	<path class="st6" d="M1211.5,570.9c-12.5,0-22.7,10-23.2,22.4h0c0,0-3,13.5,23.1,38.6c11.7-11.3,17.5-20.2,20.4-26.6
		c1.8-3.3,2.9-7.1,2.9-11.2C1234.7,581.3,1224.3,570.9,1211.5,570.9z M1211.5,603.9c-5.4,0-9.8-4.4-9.8-9.8c0-5.4,4.4-9.8,9.8-9.8
		c5.4,0,9.8,4.4,9.8,9.8C1221.3,599.5,1216.9,603.9,1211.5,603.9z"/>
</g>
<g>
	<linearGradient id="SVGID_1_" gradientUnits="userSpaceOnUse" x1="327.1783" y1="313.6974" x2="363.168" y2="313.6974">
		<stop  offset="0" style="stop-color:#AB0634"/>
		<stop  offset="1" style="stop-color:#820024"/>
	</linearGradient>
	<path class="st7" d="M345.2,337.2c9-8.7,13.5-15.5,15.7-20.5c1.4-2.6,2.2-5.5,2.2-8.6c0-9.9-8-17.9-17.9-17.9
		c-9.7,0-17.5,7.7-17.8,17.2h0c0,0-3.3,11.1,15.6,29.7H345.2z M344.7,315.1c-3.9,0-7-3.1-7-7c0-3.9,3.1-7,7-7c3.9,0,7,3.1,7,7
		C351.7,311.9,348.5,315.1,344.7,315.1z"/>
	<path class="st5" d="M373.2,324.8c-9.7,0-22.4,2-28.9,4.5h0c0,0-9,2.7-1.3,7.8c14.6-2.3,23.5-4.1,28.9-5.4c3.1-0.7,5.7-1.4,7.7-2.3
		C386,327,383.1,324.8,373.2,324.8z M356.9,331.5c-4.2,0-5.4-0.9-2.7-2c2.7-1.1,8.2-2,12.4-2c4.2,0,5.4,0.9,2.7,2
		C366.6,330.6,361.1,331.5,356.9,331.5z"/>
	<path class="st6" d="M343.1,290.2c-9.7,0-17.5,7.7-17.8,17.2h0c0,0-2.3,10.4,17.8,29.7c9-8.7,13.5-15.5,15.7-20.5
		c1.4-2.6,2.2-5.5,2.2-8.6C360.9,298.2,352.9,290.2,343.1,290.2z M343.1,315.6c-4.2,0-7.5-3.4-7.5-7.5c0-4.2,3.4-7.5,7.5-7.5
		c4.2,0,7.5,3.4,7.5,7.5C350.6,312.3,347.2,315.6,343.1,315.6z"/>
</g>
<g>
	<linearGradient id="SVGID_2_" gradientUnits="userSpaceOnUse" x1="596.9346" y1="225.7552" x2="625.9706" y2="225.7552">
		<stop  offset="0" style="stop-color:#AB0634"/>
		<stop  offset="1" style="stop-color:#820024"/>
	</linearGradient>
	<path class="st8" d="M611.5,244.7c7.3-7,10.9-12.5,12.7-16.5c1.1-2.1,1.8-4.4,1.8-7c0-8-6.5-14.4-14.4-14.4
		c-7.8,0-14.1,6.2-14.4,13.9h0c0,0-2.7,8.9,12.6,24H611.5z M611.1,226.9c-3.1,0-5.6-2.5-5.6-5.6c0-3.1,2.5-5.6,5.6-5.6
		c3.1,0,5.6,2.5,5.6,5.6C616.7,224.3,614.2,226.9,611.1,226.9z"/>
	<path class="st5" d="M634.1,234.8c-7.8,0-18.1,1.6-23.3,3.7h0c0,0-7.2,2.2-1,6.3c11.8-1.8,19-3.3,23.3-4.3c2.5-0.5,4.6-1.2,6.3-1.8
		C644.4,236.4,642.1,234.8,634.1,234.8z M620.9,240.1c-3.4,0-4.3-0.7-2.2-1.6c2.2-0.9,6.6-1.6,10-1.6c3.4,0,4.3,0.7,2.2,1.6
		C628.8,239.4,624.3,240.1,620.9,240.1z"/>
	<path class="st6" d="M609.7,206.8c-7.8,0-14.1,6.2-14.4,13.9h0c0,0-1.9,8.4,14.4,24c7.3-7,10.9-12.5,12.7-16.5
		c1.1-2.1,1.8-4.4,1.8-7C624.2,213.3,617.7,206.8,609.7,206.8z M609.7,227.3c-3.4,0-6.1-2.7-6.1-6.1s2.7-6.1,6.1-6.1
		c3.4,0,6.1,2.7,6.1,6.1S613.1,227.3,609.7,227.3z"/>
</g>
<g>
	<linearGradient id="SVGID_3_" gradientUnits="userSpaceOnUse" x1="1101.9897" y1="510.9172" x2="1145.193" y2="510.9172">
		<stop  offset="0" style="stop-color:#AB0634"/>
		<stop  offset="1" style="stop-color:#820024"/>
	</linearGradient>
	<path class="st9" d="M1123.6,539.1c10.8-10.4,16.2-18.7,18.9-24.6c1.7-3.1,2.7-6.6,2.7-10.3c0-11.9-9.6-21.5-21.5-21.5
		c-11.6,0-21,9.2-21.4,20.7h0c0,0-4,13.3,18.7,35.7H1123.6z M1123,512.6c-4.6,0-8.4-3.8-8.4-8.4c0-4.6,3.8-8.4,8.4-8.4
		c4.6,0,8.4,3.8,8.4,8.4C1131.4,508.8,1127.6,512.6,1123,512.6z"/>
	<path class="st5" d="M1157.3,524.3c-11.6,0-26.9,2.4-34.7,5.4h0c0,0-10.8,3.3-1.6,9.4c17.5-2.7,28.2-4.9,34.7-6.5
		c3.7-0.8,6.9-1.7,9.3-2.7C1172.6,526.8,1169.1,524.3,1157.3,524.3z M1137.7,532.3c-5,0-6.5-1.1-3.2-2.4c3.2-1.3,9.9-2.4,14.9-2.4
		c5,0,6.5,1.1,3.2,2.4C1149.3,531.3,1142.7,532.3,1137.7,532.3z"/>
	<path class="st6" d="M1121,482.7c-11.6,0-21,9.2-21.4,20.7h0c0,0-2.8,12.5,21.4,35.7c10.8-10.4,16.2-18.7,18.9-24.6
		c1.7-3.1,2.7-6.6,2.7-10.3C1142.5,492.3,1132.9,482.7,1121,482.7z M1121,513.2c-5,0-9.1-4.1-9.1-9.1c0-5,4.1-9.1,9.1-9.1
		c5,0,9.1,4.1,9.1,9.1C1130.1,509.2,1126,513.2,1121,513.2z"/>
</g>
<g>
	<linearGradient id="SVGID_4_" gradientUnits="userSpaceOnUse" x1="1463.9097" y1="455.233" x2="1507.1129" y2="455.233">
		<stop  offset="0" style="stop-color:#AB0634"/>
		<stop  offset="1" style="stop-color:#820024"/>
	</linearGradient>
	<path class="st10" d="M1485.6,483.4c10.8-10.4,16.2-18.7,18.9-24.6c1.7-3.1,2.7-6.6,2.7-10.3c0-11.9-9.6-21.5-21.5-21.5
		c-11.6,0-21,9.2-21.4,20.7h0c0,0-4,13.3,18.7,35.7H1485.6z M1484.9,456.9c-4.6,0-8.4-3.8-8.4-8.4c0-4.6,3.8-8.4,8.4-8.4
		c4.6,0,8.4,3.8,8.4,8.4C1493.3,453.1,1489.6,456.9,1484.9,456.9z"/>
	<path class="st5" d="M1519.2,468.6c-11.6,0-26.9,2.4-34.7,5.4h0c0,0-10.8,3.3-1.6,9.4c17.5-2.7,28.2-4.9,34.7-6.5
		c3.7-0.8,6.9-1.7,9.3-2.7C1534.5,471.1,1531,468.6,1519.2,468.6z M1499.6,476.6c-5,0-6.5-1.1-3.2-2.4c3.2-1.3,9.9-2.4,14.9-2.4
		c5,0,6.5,1.1,3.2,2.4C1511.2,475.6,1504.6,476.6,1499.6,476.6z"/>
	<path class="st6" d="M1483,427c-11.6,0-21,9.2-21.4,20.7h0c0,0-2.8,12.5,21.4,35.7c10.8-10.4,16.2-18.7,18.9-24.6
		c1.7-3.1,2.7-6.6,2.7-10.3C1504.4,436.6,1494.8,427,1483,427z M1483,457.6c-5,0-9.1-4.1-9.1-9.1s4.1-9.1,9.1-9.1
		c5,0,9.1,4.1,9.1,9.1S1488,457.6,1483,457.6z"/>
</g>
<g>
	<linearGradient id="SVGID_5_" gradientUnits="userSpaceOnUse" x1="1273.6771" y1="334.8273" x2="1310.6348" y2="334.8273">
		<stop  offset="0" style="stop-color:#AB0634"/>
		<stop  offset="1" style="stop-color:#820024"/>
	</linearGradient>
	<path class="st11" d="M1292.2,359c9.3-8.9,13.9-16,16.2-21c1.4-2.6,2.3-5.6,2.3-8.8c0-10.1-8.2-18.4-18.4-18.4
		c-9.9,0-18,7.9-18.3,17.7h0c0,0-3.4,11.4,16,30.5H1292.2z M1291.6,336.2c-4,0-7.2-3.2-7.2-7.2c0-4,3.2-7.2,7.2-7.2
		c4,0,7.2,3.2,7.2,7.2C1298.8,333,1295.6,336.2,1291.6,336.2z"/>
	<path class="st5" d="M1321,346.3c-9.9,0-23,2.1-29.7,4.7h0c0,0-9.2,2.8-1.3,8c15-2.3,24.1-4.2,29.7-5.5c3.1-0.7,5.9-1.5,8-2.3
		C1334,348.4,1331.1,346.3,1321,346.3z M1304.2,353.1c-4.3,0-5.5-0.9-2.8-2c2.7-1.1,8.4-2,12.7-2c4.3,0,5.5,0.9,2.8,2
		C1314.2,352.2,1308.5,353.1,1304.2,353.1z"/>
	<path class="st6" d="M1290,310.7c-9.9,0-18,7.9-18.3,17.7h0c0,0-2.4,10.7,18.3,30.5c9.3-8.9,13.9-16,16.2-21
		c1.4-2.6,2.3-5.6,2.3-8.8C1308.3,318.9,1300.1,310.7,1290,310.7z M1290,336.8c-4.3,0-7.7-3.5-7.7-7.7s3.5-7.7,7.7-7.7
		c4.3,0,7.7,3.5,7.7,7.7S1294.3,336.8,1290,336.8z"/>
</g>
<g>
	<linearGradient id="SVGID_6_" gradientUnits="userSpaceOnUse" x1="468.5104" y1="476.8945" x2="509.028" y2="476.8945">
		<stop  offset="0" style="stop-color:#AB0634"/>
		<stop  offset="1" style="stop-color:#820024"/>
	</linearGradient>
	<path class="st12" d="M488.8,503.3c10.1-9.8,15.2-17.5,17.7-23.1c1.6-2.9,2.5-6.2,2.5-9.7c0-11.1-9-20.1-20.1-20.1
		c-10.9,0-19.7,8.6-20.1,19.4h0c0,0-3.8,12.5,17.5,33.5H488.8z M488.2,478.4c-4.3,0-7.9-3.5-7.9-7.9c0-4.3,3.5-7.9,7.9-7.9
		c4.3,0,7.9,3.5,7.9,7.9C496.1,474.9,492.6,478.4,488.2,478.4z"/>
	<path class="st5" d="M520.4,489.4c-10.9,0-25.3,2.3-32.6,5.1h0c0,0-10.1,3.1-1.5,8.8c16.4-2.6,26.5-4.6,32.5-6.1
		c3.4-0.8,6.5-1.6,8.7-2.5C534.7,491.8,531.5,489.4,520.4,489.4z M502,497c-4.7,0-6.1-1-3-2.2c3-1.2,9.3-2.2,13.9-2.2
		c4.7,0,6.1,1,3,2.2C512.9,496,506.7,497,502,497z"/>
	<path class="st6" d="M486.4,450.4c-10.9,0-19.7,8.6-20.1,19.4h0c0,0-2.6,11.7,20,33.5c10.1-9.8,15.2-17.5,17.7-23.1
		c1.6-2.9,2.5-6.2,2.5-9.7C506.5,459.5,497.5,450.4,486.4,450.4z M486.4,479.1c-4.7,0-8.5-3.8-8.5-8.5c0-4.7,3.8-8.5,8.5-8.5
		c4.7,0,8.5,3.8,8.5,8.5C494.9,475.3,491.1,479.1,486.4,479.1z"/>
</g>
</svg>
