<?xml version="1.0" encoding="utf-8"?>
<!-- Generator: Adobe Illustrator 21.1.0, SVG Export Plug-In . SVG Version: 6.00 Build 0)  -->
<svg version="1.1" id="Layer_1" xmlns="http://www.w3.org/2000/svg" xmlns:xlink="http://www.w3.org/1999/xlink" x="0px" y="0px"
	 viewBox="0 0 432 171" style="enable-background:new 0 0 432 171;" xml:space="preserve">
<g>
	<path style="fill:#46A5A2;" d="M288.97,68.369h-25.04c-0.979,0-1.818,0.697-1.999,1.659l-3.857,20.57
		c-0.385,2.054-1.871,3.728-3.864,4.355l-11.213,3.527c-2.119,0.667-3.561,2.631-3.561,4.853v23.576h7.263l5.699-10.09
		c1.864-3.3,5.36-5.341,9.15-5.341h29.454V70.403C291.003,69.28,290.093,68.369,288.97,68.369z"/>
	<path style="fill:#246663;" d="M246.7,126.908h41.035c1.805,0,3.268-1.463,3.268-3.268v-12.163h-29.446
		c-3.795,0-7.297,2.044-9.163,5.348L246.7,126.908z"/>
	<path style="fill:#D9F3F9;" d="M261.42,91.615l3.139-18.507c0.118-0.693-0.416-1.325-1.119-1.325h-1.838l-3.528,18.815
		c-0.219,1.17-0.797,2.216-1.621,3.017l4.138-1.091C261.021,92.41,261.346,92.055,261.42,91.615z"/>
	<path style="fill:#D9F3F9;" d="M266.873,73.586l-2.275,15.79c-0.198,1.378,0.973,2.565,2.353,2.385l17.718-2.309
		c1.047-0.136,1.831-1.029,1.831-2.085V73.886c0-1.161-0.941-2.103-2.103-2.103h-15.443
		C267.909,71.783,267.022,72.551,266.873,73.586z"/>
	<polygon style="fill:#35383F;" points="239.437,121.485 239.437,126.908 246.7,126.908 249.763,121.485 	"/>
	<circle style="fill:#534C5B;" cx="263.356" cy="130.055" r="13.945"/>
	<circle style="fill:#EEEDED;" cx="263.356" cy="130.055" r="8.425"/>
	<circle style="fill:#246663;" cx="263.356" cy="130.055" r="4.164"/>
	<path style="fill:#35383F;" d="M286.355,102.795h-3.995c-0.562,0-1.017-0.455-1.017-1.017l0,0c0-0.562,0.455-1.017,1.017-1.017
		h3.995c0.562,0,1.017,0.455,1.017,1.017l0,0C287.372,102.34,286.917,102.795,286.355,102.795z"/>
	<rect x="291.003" y="114.271" style="fill:#35383F;" width="99.356" height="9.926"/>
	<rect x="291.003" y="109.187" style="fill:#606368;" width="99.356" height="5.084"/>
	<path style="fill:#DCDBDE;" d="M392.635,124.197h-11.121c-0.856,0-1.549-0.694-1.549-1.549v-4.551c0-0.856,0.694-1.549,1.549-1.549
		h11.121c0.856,0,1.549,0.694,1.549,1.549v4.551C394.184,123.503,393.491,124.197,392.635,124.197z"/>
	<path style="fill:#BCAFA2;" d="M391.62,74.223h-94.913c-1.867,0-3.381,1.608-3.381,3.591v31.372h99.046
		c1.451,0,2.627-1.249,2.627-2.79V77.815C395.001,75.831,393.488,74.223,391.62,74.223z M342.568,102.435
		c0,0.759-0.578,1.373-1.293,1.373h-43.787c-0.714,0-1.293-0.614-1.293-1.373l0,0c0-0.759,0.578-1.373,1.293-1.373h43.787
		C341.988,101.061,342.568,101.677,342.568,102.435L342.568,102.435z M341.274,97.151h-43.787c-0.714,0-1.293-0.614-1.293-1.373
		s0.578-1.373,1.293-1.373h43.787c0.714,0,1.292,0.614,1.292,1.373S341.988,97.151,341.274,97.151z M342.568,89.12
		c0,0.759-0.578,1.373-1.293,1.373h-43.787c-0.714,0-1.293-0.614-1.293-1.373l0,0c0-0.759,0.578-1.373,1.293-1.373h43.787
		C341.988,87.747,342.568,88.361,342.568,89.12L342.568,89.12z M342.568,82.463c0,0.759-0.578,1.373-1.293,1.373h-43.787
		c-0.714,0-1.293-0.614-1.293-1.373l0,0c0-0.759,0.578-1.373,1.293-1.373h43.787C341.988,81.09,342.568,81.704,342.568,82.463
		L342.568,82.463z M392.434,102.691c0,0.617-0.471,1.117-1.052,1.117h-44.329c-0.714,0-1.293-0.615-1.293-1.373
		c0-0.759,0.578-1.373,1.293-1.373h44.329c0.581,0,1.052,0.5,1.052,1.117V102.691z M392.434,96.033c0,0.617-0.471,1.117-1.052,1.117
		h-44.329c-0.714,0-1.293-0.614-1.293-1.373s0.578-1.373,1.293-1.373h44.329c0.581,0,1.052,0.5,1.052,1.117V96.033z M392.434,89.12
		c0,0.759-0.579,1.373-1.293,1.373h-44.088c-0.714,0-1.293-0.615-1.293-1.373l0,0c0-0.759,0.578-1.373,1.293-1.373h44.088
		C391.855,87.747,392.434,88.361,392.434,89.12L392.434,89.12z M391.141,83.836h-44.088c-0.714,0-1.293-0.615-1.293-1.373
		c0-0.759,0.578-1.373,1.293-1.373h44.088c0.714,0,1.293,0.615,1.293,1.373C392.434,83.221,391.855,83.836,391.141,83.836z"/>
	<circle style="fill:#534C5B;" cx="366.028" cy="130.055" r="13.945"/>
	<circle style="fill:#EEEDED;" cx="366.028" cy="130.055" r="8.425"/>
	<circle style="fill:#246663;" cx="366.028" cy="130.055" r="4.164"/>
	<path style="fill:#DCDBDE;" d="M241.449,126.908h-1.688c-1.027,0-1.86-0.633-1.86-1.413v-8.099c0-0.78,0.833-1.413,1.86-1.413
		h1.688c1.181,0,2.138,0.727,2.138,1.624v7.677C243.587,126.181,242.63,126.908,241.449,126.908z"/>
	<path style="fill:#DCDBDE;" d="M243.504,109.187h-4.037v-6.391h4.037c1.765,0,3.196,1.431,3.196,3.196l0,0
		C246.7,107.756,245.269,109.187,243.504,109.187z"/>
</g>
<path style="fill:#141619;" d="M76.493,137.606c0.424-1.344,0.652-2.774,0.652-4.258c0-7.818-6.337-14.156-14.156-14.156
	s-14.156,6.337-14.156,14.156c0,1.484,0.228,2.914,0.652,4.258H76.493z"/>
<path style="fill:#606368;" d="M186.892,109.741L165.79,97.242l-14.239-12.077c-6.009-5.097-13.632-7.895-21.511-7.895H46.997
	c-3.246,0-5.994,2.393-6.44,5.607l-4.056,29.182v15.56c0,5.515,4.471,9.985,9.985,9.985h2.999c-0.424-1.344-0.652-2.774-0.652-4.258
	c0-7.818,6.337-14.156,14.156-14.156s14.156,6.337,14.156,14.156c0,1.484-0.228,2.914-0.652,4.258h80.832
	c-0.424-1.344-0.652-2.774-0.652-4.258c0-7.818,6.337-14.156,14.156-14.156c7.818,0,14.156,6.337,14.156,14.156
	c0,1.484-0.228,2.914-0.652,4.258h1.85c2.554,0,4.625-2.07,4.625-4.625v-16.37C190.808,113.79,189.319,111.178,186.892,109.741z"/>
<path style="fill:#141619;" d="M184.332,137.606c0.424-1.344,0.652-2.774,0.652-4.258c0-7.818-6.337-14.156-14.156-14.156
	c-7.818,0-14.156,6.337-14.156,14.156c0,1.484,0.228,2.914,0.652,4.258H184.332z"/>
<path style="fill:#D9F3F9;" d="M125.426,84.523v17.66c0,1.219,0.989,2.207,2.207,2.207h32.354c2.102,0,3.014-2.659,1.355-3.95
	l-22.704-17.66c-0.388-0.302-0.865-0.464-1.355-0.464h-9.649C126.415,82.316,125.426,83.304,125.426,84.523z"/>
<path style="fill:#BF4927;" d="M41.43,80.411c-0.445,0.736-0.749,1.57-0.875,2.468l-3.839,27.623h0.51
	c1.345,0,2.481-0.998,2.653-2.331l3.231-24.923C43.274,81.988,42.538,80.843,41.43,80.411z"/>
<path style="fill:#444649;" d="M133.694,108.96h-6.307c-0.581,0-1.051-0.47-1.051-1.051l0,0c0-0.581,0.47-1.051,1.051-1.051h6.307
	c0.581,0,1.051,0.47,1.051,1.051l0,0C134.745,108.49,134.275,108.96,133.694,108.96z"/>
<path style="fill:#DCDBDE;" d="M186.892,109.741l-4.213-2.495v3.886c0,1.277,1.035,2.312,2.312,2.312h5.16
	C189.493,111.922,188.367,110.614,186.892,109.741z"/>
<circle style="fill:#252B31;" cx="170.828" cy="133.348" r="10.652"/>
<circle style="fill:#7C8BA1;" cx="170.828" cy="133.348" r="6.746"/>
<circle style="fill:#282828;" cx="170.828" cy="133.348" r="2.699"/>
<circle style="fill:#252B31;" cx="62.989" cy="133.348" r="10.652"/>
<circle style="fill:#7C8BA1;" cx="62.989" cy="133.348" r="6.746"/>
<circle style="fill:#282828;" cx="62.989" cy="133.348" r="2.699"/>
<g>
	<path style="fill:#444649;" d="M118.909,118.631c-0.388,0-0.701-0.314-0.701-0.701V82.316c0-0.388,0.314-0.701,0.701-0.701
		c0.388,0,0.701,0.314,0.701,0.701v35.614C119.61,118.318,119.297,118.631,118.909,118.631z"/>
</g>
<g>
	<path style="fill:#444649;" d="M49.276,86.383c0-0.388,0.416-0.701,0.927-0.701h47.115c0.513,0,0.927,0.314,0.927,0.701
		c0,0.388-0.416,0.701-0.927,0.701H50.203C49.691,87.084,49.276,86.771,49.276,86.383z"/>
</g>
<g>
	<path style="fill:#444649;" d="M49.276,89.872c0-0.388,0.416-0.701,0.927-0.701h47.115c0.513,0,0.927,0.314,0.927,0.701
		c0,0.388-0.416,0.701-0.927,0.701H50.203C49.691,90.573,49.276,90.26,49.276,89.872z"/>
</g>
<g>
	<path style="fill:#444649;" d="M49.276,93.362c0-0.388,0.416-0.701,0.927-0.701h47.115c0.513,0,0.927,0.314,0.927,0.701
		c0,0.388-0.416,0.701-0.927,0.701H50.203C49.691,94.062,49.276,93.749,49.276,93.362z"/>
</g>
<g>
	<path style="fill:#444649;" d="M49.276,96.851c0-0.388,0.416-0.701,0.927-0.701h47.115c0.513,0,0.927,0.314,0.927,0.701
		c0,0.388-0.416,0.701-0.927,0.701H50.203C49.691,97.552,49.276,97.238,49.276,96.851z"/>
</g>
<g>
	<path style="fill:#444649;" d="M49.276,100.34c0-0.388,0.416-0.701,0.927-0.701h47.115c0.513,0,0.927,0.314,0.927,0.701
		c0,0.388-0.416,0.701-0.927,0.701H50.203C49.691,101.041,49.276,100.728,49.276,100.34z"/>
</g>
<g>
	<path style="fill:#444649;" d="M49.276,103.829c0-0.388,0.416-0.701,0.927-0.701h47.115c0.513,0,0.927,0.314,0.927,0.701
		c0,0.388-0.416,0.701-0.927,0.701H50.203C49.691,104.53,49.276,104.217,49.276,103.829z"/>
</g>
<path style="fill:#535456;" d="M36.5,117.93v9.689c0,5.515,4.471,9.985,9.985,9.985h2.999c-0.424-1.344-0.652-2.774-0.652-4.258
	c0-7.818,6.337-14.156,14.156-14.156s14.156,6.337,14.156,14.156c0,1.484-0.228,2.914-0.652,4.258h80.832
	c-0.424-1.344-0.652-2.774-0.652-4.258c0-7.818,6.337-14.156,14.156-14.156c7.818,0,14.156,6.337,14.156,14.156
	c0,1.484-0.228,2.914-0.652,4.258h1.85c2.554,0,4.625-2.07,4.625-4.625v-15.05H36.5V117.93z"/>
<g>
	<path style="fill:#ED2024;" d="M259.439,31.546l-11.985-11.989c-0.541-0.541-1.282-0.855-2.068-0.855h-16.939
		c-0.785,0-1.527,0.314-2.068,0.855L214.39,31.546c-0.541,0.541-0.855,1.282-0.855,2.068v16.939c0,0.785,0.314,1.527,0.855,2.068
		l11.989,11.985c0.541,0.544,1.282,0.858,2.068,0.858h16.939c0.785,0,1.527-0.314,2.068-0.858l11.985-11.985
		c0.544-0.541,0.859-1.282,0.859-2.068V33.614C260.298,32.828,259.984,32.087,259.439,31.546L259.439,31.546z M257.372,50.552
		l-11.985,11.985h-16.939l-11.985-11.985V33.614l11.985-11.985h16.939l11.985,11.985V50.552z"/>
	<path style="fill:#ED2024;" d="M236.908,27.462c-1.611,0-2.908,1.315-2.908,2.926V45c0,1.615,1.297,2.926,2.908,2.926
		c1.615,0,2.926-1.311,2.926-2.926V30.388C239.834,28.777,238.522,27.462,236.908,27.462L236.908,27.462z"/>
	<path style="fill:#ED2024;" d="M239.834,53.778c0,1.611-1.297,2.908-2.926,2.908c-1.611,0-2.908-1.297-2.908-2.908
		c0-1.629,1.297-2.926,2.908-2.926C238.537,50.852,239.834,52.149,239.834,53.778L239.834,53.778z"/>
</g>
<g>
	<path style="fill:#ED2024;" d="M205.953,55.081l-11.985-11.989c-0.541-0.541-1.282-0.855-2.068-0.855h-16.939
		c-0.785,0-1.527,0.314-2.068,0.855l-11.989,11.989c-0.541,0.541-0.855,1.282-0.855,2.068v16.939c0,0.785,0.314,1.527,0.855,2.068
		l11.989,11.985c0.541,0.544,1.282,0.858,2.068,0.858H191.9c0.785,0,1.527-0.314,2.068-0.858l11.985-11.985
		c0.544-0.541,0.859-1.282,0.859-2.068V57.149C206.812,56.363,206.497,55.622,205.953,55.081L205.953,55.081z M203.886,74.088
		l-11.985,11.985h-16.939l-11.985-11.985V57.149l11.985-11.985h16.939l11.985,11.985V74.088z"/>
	<path style="fill:#ED2024;" d="M183.422,50.997c-1.611,0-2.908,1.315-2.908,2.926v14.612c0,1.615,1.297,2.926,2.908,2.926
		c1.615,0,2.926-1.311,2.926-2.926V53.923C186.348,52.312,185.036,50.997,183.422,50.997L183.422,50.997z"/>
	<path style="fill:#ED2024;" d="M186.348,77.313c0,1.611-1.297,2.908-2.926,2.908c-1.611,0-2.908-1.297-2.908-2.908
		c0-1.629,1.297-2.926,2.908-2.926C185.051,74.387,186.348,75.684,186.348,77.313L186.348,77.313z"/>
</g>
<path id="XMLID_768_" style="fill:#D8D8D8;" d="M417.754,154.539H14.015c-2.77,0-5.015-2.37-5.015-5.293l0,0
	c0-2.923,2.245-5.293,5.015-5.293h403.739c2.77,0,5.015,2.37,5.015,5.293l0,0C422.77,152.169,420.524,154.539,417.754,154.539z"/>
</svg>
