<?xml version="1.0" encoding="utf-8"?>
<!-- Generator: Adobe Illustrator 21.1.0, SVG Export Plug-In . SVG Version: 6.00 Build 0)  -->
<svg version="1.1" id="Layer_1" xmlns="http://www.w3.org/2000/svg" xmlns:xlink="http://www.w3.org/1999/xlink" x="0px" y="0px"
	 viewBox="0 0 329.28 271.89" style="enable-background:new 0 0 329.28 271.89;" xml:space="preserve">
<ellipse style="opacity:0.62;fill:#3F362A;enable-background:new    ;" cx="166" cy="255.173" rx="136" ry="8.108"/>
<g>
	<path style="fill:#D6D6D6;" d="M31.148,179.049v30.29c0,2.708,2.213,4.916,4.917,4.916h259.872c2.708,0,4.917-2.208,4.917-4.916
		v-30.29H31.148z"/>
	<path style="fill:#534B62;" d="M300.854,22.807c0-2.705-2.209-4.917-4.917-4.917H36.065c-2.705,0-4.919,2.212-4.919,4.917v156.242
		h269.708V22.807z"/>
	<rect x="120.187" y="214.254" style="fill:#CECECE;" width="92.767" height="28.537"/>
	<rect x="97.894" y="242.736" style="fill:#D6D6D6;" width="136.079" height="11.333"/>
	<rect x="120.187" y="214.254" style="fill:#BDBDBD;" width="92.767" height="10.293"/>
	<rect x="45.09" y="31.919" style="fill:#5AB3B1;" width="241.874" height="132.717"/>
</g>
<g>
	<g>
		<g>
			<g>
				<path style="fill:#667273;" d="M120.83,64.618v3.302h-13.448v-3.302c0-0.048,0-0.095,0.008-0.143
					c0.072-1.958,1.679-3.517,3.652-3.517h6.135c1.122,0,2.133,0.517,2.809,1.321C120.511,62.907,120.83,63.727,120.83,64.618z"/>
				<rect x="109.992" y="67.458" style="fill:#667273;" width="8.228" height="90.361"/>
				<rect x="101.462" y="157.78" style="fill:#667273;" width="25.288" height="6.803"/>
				<g>
					<circle style="fill:#EF4736;" cx="114.199" cy="50.994" r="10.42"/>
					<circle style="opacity:0.4;fill:#FFDA04;enable-background:new    ;" cx="114.199" cy="50.994" r="7.072"/>
					<circle style="fill:#FFDA04;" cx="114.199" cy="50.994" r="4.645"/>
				</g>
			</g>
			<g>
				<path style="fill:#667273;" d="M222.9,64.618v3.302h-13.448v-3.302c0-0.048,0-0.095,0.008-0.143
					c0.072-1.958,1.679-3.517,3.652-3.517h6.135c1.122,0,2.133,0.517,2.809,1.321C222.582,62.907,222.9,63.727,222.9,64.618z"/>
				<rect x="212.063" y="67.458" style="fill:#667273;" width="8.228" height="90.361"/>
				<rect x="203.533" y="157.78" style="fill:#667273;" width="25.288" height="6.803"/>
				<g>
					<circle style="fill:#EF4736;" cx="216.269" cy="50.994" r="10.42"/>
					<circle style="opacity:0.4;fill:#FFDA04;enable-background:new    ;" cx="216.269" cy="50.994" r="7.072"/>
					<circle style="fill:#FFDA04;" cx="216.269" cy="50.994" r="4.645"/>
				</g>
			</g>
		</g>
		<g>
			<rect x="96.395" y="127.336" style="fill:#FFFBF2;" width="137.492" height="19.964"/>
			<polygon style="fill:#EF4736;" points="111.562,127.336 96.395,142.534 96.395,134.37 103.414,127.336 			"/>
			<polygon style="fill:#EF4736;" points="127.524,127.336 107.599,147.301 99.443,147.301 119.368,127.336 			"/>
			<polygon style="fill:#EF4736;" points="143.478,127.336 123.553,147.301 115.405,147.301 135.33,127.336 			"/>
			<polygon style="fill:#EF4736;" points="159.44,127.336 139.515,147.301 131.359,147.301 151.284,127.336 			"/>
			<polygon style="fill:#EF4736;" points="175.402,127.336 155.477,147.301 147.321,147.301 167.246,127.336 			"/>
			<polygon style="fill:#EF4736;" points="191.356,127.336 171.431,147.301 163.275,147.301 183.2,127.336 			"/>
			<polygon style="fill:#EF4736;" points="207.318,127.336 187.393,147.301 179.237,147.301 199.162,127.336 			"/>
			<polygon style="fill:#EF4736;" points="223.272,127.336 203.347,147.301 195.199,147.301 215.124,127.336 			"/>
			<polygon style="fill:#EF4736;" points="233.887,127.336 233.887,132.699 219.31,147.301 211.153,147.301 231.078,127.336 			"/>
			<polygon style="fill:#EF4736;" points="233.887,140.513 233.887,147.301 227.115,147.301 			"/>
		</g>
		<g>
			<rect x="96.397" y="67.457" style="fill:#FFFBF2;" width="137.492" height="39.921"/>
			<polygon style="fill:#EF4736;" points="120.458,67.458 96.395,91.569 96.395,78.726 107.647,67.458 			"/>
			<polygon style="fill:#EF4736;" points="146.088,67.458 106.246,107.379 96.395,107.379 96.395,104.404 133.269,67.458 			"/>
			<polygon style="fill:#EF4736;" points="171.71,67.458 131.868,107.379 119.057,107.379 158.899,67.458 			"/>
			<polygon style="fill:#EF4736;" points="197.34,67.458 157.498,107.379 144.687,107.379 184.529,67.458 			"/>
			<polygon style="fill:#EF4736;" points="222.97,67.458 183.128,107.379 170.309,107.379 210.151,67.458 			"/>
			<polygon style="fill:#EF4736;" points="233.887,69.352 233.887,82.187 208.75,107.379 195.939,107.379 			"/>
			<polygon style="fill:#EF4736;" points="233.887,96.367 233.887,107.379 222.898,107.379 			"/>
		</g>
	</g>
	<path style="opacity:0.3;fill:#606060;enable-background:new    ;" d="M204.931,89.284c-0.127,0.679-0.466,1.341-0.996,1.865
		l-16.223,16.228h-22.57v-39.92h20.228l18.565,18.571C204.822,86.913,205.15,88.139,204.931,89.284z"/>
	<path style="fill:#FFDA04;" d="M200.954,87.453c0,0.693-0.264,1.387-0.792,1.915l-35.384,35.384c-1.056,1.056-2.767,1.056-3.823,0
		l-35.384-35.384c-1.056-1.056-1.056-2.767,0-3.823l27.137-27.131l8.247-8.253c1.056-1.056,2.767-1.056,3.823,0l35.384,35.384
		C200.69,86.073,200.954,86.767,200.954,87.453z"/>
	<g>
		<circle style="fill:#474745;" cx="132.611" cy="87.573" r="1.026"/>
	</g>
	<g>
		<circle style="fill:#474745;" cx="193.142" cy="87.573" r="1.026"/>
	</g>
	<g>
		<path style="fill:#FFFFFF;" d="M162.867,122.067c-0.769,0-1.492-0.299-2.035-0.843l-31.733-31.733
			c-1.122-1.122-1.122-2.948,0-4.07l31.732-31.733c1.088-1.088,2.984-1.088,4.07,0l31.734,31.733
			c0.543,0.544,0.842,1.267,0.842,2.035c0,0.769-0.3,1.492-0.842,2.035l-31.734,31.733
			C164.358,121.768,163.635,122.067,162.867,122.067z M162.867,53.758c-0.525,0-1.019,0.204-1.39,0.575l-31.733,31.733
			c-0.766,0.766-0.766,2.013,0,2.779l31.733,31.733c0.742,0.743,2.037,0.743,2.779,0l31.734-31.733
			c0.371-0.371,0.575-0.865,0.575-1.39s-0.204-1.018-0.575-1.389l-31.734-31.733C163.885,53.962,163.392,53.758,162.867,53.758z"/>
	</g>
	<g>
		<g>
			<path style="fill:#414042;" d="M150.441,89.809c-0.157,0-0.292-0.057-0.405-0.171c-0.114-0.113-0.171-0.248-0.171-0.405v-2.582
				h-6.614c-0.157,0-0.292-0.057-0.405-0.17c-0.114-0.114-0.171-0.249-0.171-0.405v-1.515c0-0.199,0.046-0.373,0.139-0.523
				c0.092-0.15,0.202-0.31,0.33-0.48l6.53-8.151c0.284-0.356,0.575-0.534,0.874-0.534h1.622c0.156,0,0.291,0.057,0.405,0.17
				c0.113,0.114,0.171,0.249,0.171,0.405v8.535h1.834c0.156,0,0.291,0.057,0.405,0.171c0.113,0.114,0.171,0.249,0.171,0.405v1.515
				c0,0.157-0.058,0.292-0.171,0.405c-0.114,0.114-0.25,0.17-0.405,0.17h-1.834v2.582c0,0.157-0.058,0.292-0.171,0.405
				c-0.114,0.114-0.25,0.171-0.405,0.171h-1.729V89.809z M149.865,83.984v-4.566l-3.649,4.566H149.865z"/>
			<path style="fill:#414042;" d="M168.535,80.442c0.015,0.27,0.022,0.569,0.022,0.896s0,0.661,0,1.003c0,0.341,0,0.676,0,1.003
				c0,0.327-0.007,0.626-0.022,0.896c-0.043,0.825-0.167,1.59-0.373,2.294c-0.207,0.704-0.534,1.316-0.982,1.835
				c-0.447,0.52-1.032,0.925-1.749,1.216c-0.718,0.291-1.598,0.438-2.635,0.438c-1.054,0-1.935-0.147-2.646-0.438
				c-0.712-0.291-1.291-0.697-1.739-1.216c-0.448-0.519-0.776-1.131-0.982-1.835c-0.207-0.704-0.33-1.469-0.373-2.294
				c-0.029-0.541-0.043-1.156-0.043-1.846s0.014-1.305,0.043-1.846c0.043-0.825,0.166-1.596,0.373-2.315
				c0.206-0.718,0.534-1.341,0.982-1.867c0.447-0.526,1.027-0.943,1.739-1.249s1.593-0.459,2.646-0.459
				c1.037,0,1.916,0.146,2.635,0.438c0.717,0.291,1.302,0.697,1.749,1.216c0.448,0.519,0.775,1.131,0.982,1.834
				C168.367,78.853,168.492,79.617,168.535,80.442z M159.936,84.134c0.072,1.024,0.317,1.818,0.737,2.379
				c0.419,0.563,1.126,0.843,2.123,0.843c0.995,0,1.703-0.281,2.122-0.843c0.42-0.561,0.665-1.355,0.737-2.379
				c0.028-0.54,0.043-1.138,0.043-1.792s-0.015-1.252-0.043-1.793c-0.072-1.023-0.317-1.817-0.737-2.378
				c-0.419-0.562-1.127-0.843-2.122-0.843c-0.997,0-1.704,0.281-2.123,0.843c-0.42,0.561-0.665,1.355-0.737,2.378
				c-0.029,0.541-0.043,1.139-0.043,1.793S159.907,83.593,159.936,84.134z"/>
			<path style="fill:#414042;" d="M178.158,89.809c-0.157,0-0.291-0.057-0.406-0.171c-0.114-0.113-0.171-0.248-0.171-0.405v-2.582
				h-6.614c-0.157,0-0.291-0.057-0.405-0.17c-0.114-0.114-0.171-0.249-0.171-0.405v-1.515c0-0.199,0.046-0.373,0.139-0.523
				c0.092-0.15,0.203-0.31,0.332-0.48l6.529-8.151c0.284-0.356,0.576-0.534,0.874-0.534h1.622c0.157,0,0.292,0.057,0.405,0.17
				c0.114,0.114,0.171,0.249,0.171,0.405v8.535h1.836c0.156,0,0.291,0.057,0.405,0.171c0.113,0.114,0.17,0.249,0.17,0.405v1.515
				c0,0.157-0.057,0.292-0.17,0.405c-0.114,0.114-0.25,0.17-0.405,0.17h-1.836v2.582c0,0.157-0.057,0.292-0.171,0.405
				c-0.113,0.114-0.248,0.171-0.405,0.171h-1.729V89.809z M177.582,83.984v-4.566l-3.648,4.566H177.582z"/>
		</g>
		<g>
			<path style="fill:#414042;" d="M151.592,98.658c0.061,0,0.113,0.022,0.158,0.067c0.045,0.044,0.067,0.097,0.067,0.158v0.3
				c0,0.062-0.022,0.114-0.067,0.159c-0.045,0.044-0.097,0.066-0.158,0.066h-3.374c-0.061,0-0.114-0.023-0.159-0.066
				c-0.044-0.045-0.066-0.098-0.066-0.159v-5.395c0-0.061,0.022-0.114,0.066-0.159c0.045-0.044,0.098-0.066,0.159-0.066h3.307
				c0.061,0,0.114,0.023,0.158,0.066c0.045,0.045,0.067,0.098,0.067,0.159v0.3c0,0.061-0.022,0.114-0.067,0.158
				c-0.044,0.045-0.097,0.067-0.158,0.067h-2.74v1.763h2.556c0.061,0,0.114,0.022,0.158,0.066c0.045,0.044,0.067,0.098,0.067,0.159
				v0.3c0,0.061-0.022,0.114-0.067,0.159c-0.044,0.044-0.097,0.067-0.158,0.067h-2.556v1.829h2.807V98.658z"/>
			<path style="fill:#414042;" d="M156.017,93.563c0.274,0,0.531,0.033,0.773,0.1c0.243,0.067,0.455,0.17,0.639,0.31
				c0.184,0.139,0.33,0.317,0.439,0.534c0.109,0.217,0.163,0.479,0.163,0.785c0,0.451-0.113,0.81-0.338,1.078
				c-0.225,0.267-0.514,0.456-0.864,0.568l1.26,2.197c0.017,0.034,0.025,0.064,0.025,0.092c0,0.05-0.019,0.093-0.054,0.129
				c-0.036,0.036-0.08,0.054-0.129,0.054h-0.359c-0.111,0-0.193-0.028-0.246-0.084c-0.053-0.055-0.09-0.103-0.113-0.142l-1.211-2.13
				h-1.437v2.13c0,0.062-0.022,0.114-0.066,0.159c-0.045,0.044-0.098,0.066-0.159,0.066h-0.342c-0.061,0-0.114-0.023-0.159-0.066
				c-0.044-0.045-0.066-0.098-0.066-0.159v-5.395c0-0.061,0.022-0.114,0.066-0.159c0.045-0.044,0.098-0.066,0.159-0.066h2.019
				V93.563z M154.564,96.303h1.412c0.401,0,0.712-0.08,0.931-0.238c0.221-0.159,0.33-0.416,0.33-0.773
				c0-0.356-0.11-0.608-0.33-0.755c-0.219-0.148-0.53-0.222-0.931-0.222h-1.412V96.303z"/>
			<path style="fill:#414042;" d="M162.29,93.563c0.274,0,0.531,0.033,0.773,0.1c0.243,0.067,0.455,0.17,0.639,0.31
				c0.184,0.139,0.33,0.317,0.439,0.534c0.109,0.217,0.163,0.479,0.163,0.785c0,0.451-0.113,0.81-0.338,1.078
				c-0.225,0.267-0.514,0.456-0.864,0.568l1.26,2.197c0.017,0.034,0.025,0.064,0.025,0.092c0,0.05-0.018,0.093-0.054,0.129
				c-0.036,0.036-0.08,0.054-0.129,0.054h-0.359c-0.111,0-0.193-0.028-0.246-0.084c-0.053-0.055-0.09-0.103-0.113-0.142l-1.211-2.13
				h-1.437v2.13c0,0.062-0.022,0.114-0.066,0.159c-0.045,0.044-0.098,0.066-0.159,0.066h-0.342c-0.061,0-0.114-0.023-0.159-0.066
				c-0.044-0.045-0.066-0.098-0.066-0.159v-5.395c0-0.061,0.022-0.114,0.066-0.159c0.045-0.044,0.098-0.066,0.159-0.066h2.019
				V93.563z M160.837,96.303h1.412c0.401,0,0.712-0.08,0.931-0.238c0.221-0.159,0.33-0.416,0.33-0.773
				c0-0.356-0.11-0.608-0.33-0.755c-0.219-0.148-0.53-0.222-0.931-0.222h-1.412V96.303z"/>
			<path style="fill:#414042;" d="M166.098,95.743c0.006-0.312,0.06-0.606,0.163-0.881c0.103-0.276,0.252-0.515,0.447-0.719
				c0.195-0.203,0.434-0.365,0.718-0.485c0.283-0.12,0.609-0.18,0.977-0.18c0.367,0,0.693,0.06,0.976,0.18
				c0.284,0.12,0.523,0.281,0.718,0.485c0.195,0.203,0.344,0.442,0.447,0.719c0.103,0.275,0.157,0.569,0.163,0.881
				c0.017,0.496,0.017,0.991,0,1.487c-0.012,0.312-0.068,0.606-0.171,0.881c-0.103,0.276-0.252,0.516-0.447,0.723
				c-0.195,0.206-0.433,0.367-0.714,0.484c-0.282,0.117-0.605,0.176-0.973,0.176c-0.369,0-0.692-0.059-0.974-0.176
				c-0.281-0.117-0.519-0.278-0.714-0.484c-0.195-0.207-0.344-0.447-0.447-0.723c-0.103-0.275-0.159-0.569-0.171-0.881
				C166.082,96.734,166.082,96.239,166.098,95.743z M169.915,95.785c-0.012-0.262-0.054-0.49-0.129-0.685s-0.179-0.356-0.313-0.485
				c-0.134-0.128-0.291-0.224-0.471-0.288c-0.181-0.064-0.38-0.096-0.597-0.096s-0.417,0.032-0.597,0.096
				c-0.181,0.064-0.338,0.16-0.472,0.288s-0.239,0.289-0.318,0.485c-0.077,0.195-0.119,0.423-0.125,0.685
				c-0.012,0.25-0.017,0.484-0.017,0.701s0.006,0.451,0.017,0.701c0.006,0.262,0.047,0.49,0.125,0.685
				c0.079,0.195,0.184,0.357,0.318,0.485c0.134,0.128,0.291,0.224,0.472,0.288c0.18,0.064,0.38,0.096,0.597,0.096
				s0.416-0.032,0.597-0.096c0.18-0.064,0.337-0.16,0.471-0.288c0.134-0.128,0.238-0.289,0.313-0.485
				c0.075-0.195,0.118-0.423,0.129-0.685c0.012-0.25,0.017-0.484,0.017-0.701S169.927,96.035,169.915,95.785z"/>
			<path style="fill:#414042;" d="M175.009,93.563c0.274,0,0.531,0.033,0.773,0.1c0.243,0.067,0.455,0.17,0.639,0.31
				c0.184,0.139,0.33,0.317,0.439,0.534s0.163,0.479,0.163,0.785c0,0.451-0.113,0.81-0.338,1.078
				c-0.225,0.267-0.514,0.456-0.864,0.568l1.26,2.197c0.017,0.034,0.025,0.064,0.025,0.092c0,0.05-0.019,0.093-0.054,0.129
				c-0.036,0.036-0.08,0.054-0.129,0.054h-0.359c-0.111,0-0.193-0.028-0.246-0.084c-0.053-0.055-0.09-0.103-0.113-0.142l-1.211-2.13
				h-1.437v2.13c0,0.062-0.022,0.114-0.066,0.159c-0.045,0.044-0.098,0.066-0.159,0.066h-0.342c-0.061,0-0.114-0.023-0.159-0.066
				c-0.044-0.045-0.066-0.098-0.066-0.159v-5.395c0-0.061,0.022-0.114,0.066-0.159c0.045-0.044,0.098-0.066,0.159-0.066h2.019
				V93.563z M173.556,96.303h1.412c0.401,0,0.712-0.08,0.931-0.238c0.221-0.159,0.33-0.416,0.33-0.773
				c0-0.356-0.11-0.608-0.33-0.755c-0.219-0.148-0.53-0.222-0.931-0.222h-1.412V96.303z"/>
		</g>
	</g>
</g>
</svg>
