<?xml version="1.0" encoding="utf-8"?>
<!-- Generator: Adobe Illustrator 21.1.0, SVG Export Plug-In . SVG Version: 6.00 Build 0)  -->
<svg version="1.1" id="Layer_1" xmlns="http://www.w3.org/2000/svg" xmlns:xlink="http://www.w3.org/1999/xlink" x="0px" y="0px"
	 viewBox="0 0 329.28 151.09" style="enable-background:new 0 0 329.28 151.09;" xml:space="preserve">
<rect x="0.369" y="-0.153" style="display:none;fill:#C8D1E3;" width="329.082" height="143.285"/>
<g style="display:none;">
	<rect x="4.338" y="84.893" style="display:inline;fill:#3B3C3B;" width="325.849" height="21.391"/>
	<polygon style="display:inline;fill:#73778F;" points="296.145,51.696 307.009,51.696 317.874,51.696 332.601,66.423 
		332.601,68.595 330.186,68.595 330.186,106.283 307.009,106.283 283.833,106.283 283.833,68.595 281.419,68.595 281.419,66.423 	
		"/>
	<polygon style="display:inline;fill:#73778F;" points="184.79,51.696 195.654,51.696 206.518,51.696 221.244,66.423 
		221.244,68.595 218.83,68.595 218.83,106.283 195.654,106.283 172.477,106.283 172.477,68.595 170.063,68.595 170.063,66.423 	"/>
	<polygon style="display:inline;fill:#73778F;" points="124.681,41.098 137.655,41.098 150.628,41.098 168.214,58.684 
		168.214,61.278 165.331,61.278 165.331,106.283 137.655,106.283 109.979,106.283 109.979,61.278 107.096,61.278 107.096,58.684 	
		"/>
	<polygon style="display:inline;fill:#73778F;" points="13.987,64.321 22.501,64.321 31.016,64.321 42.557,75.863 42.557,77.566 
		40.665,77.566 40.665,107.102 22.501,107.102 4.338,107.102 4.338,77.566 2.445,77.566 2.445,75.863 	"/>
	<rect x="205.672" y="41.098" style="display:inline;fill:#A9B4CF;" width="64.701" height="22.404"/>
	<rect x="210.863" y="60.642" style="display:inline;fill:#A9B4CF;" width="54.32" height="45.642"/>
	<rect x="261.016" y="81.573" style="display:inline;fill:#A9B4CF;" width="37.666" height="24.71"/>
	<rect x="294.516" y="93.928" style="display:inline;fill:#A9B4CF;" width="24.987" height="12.355"/>
	<rect x="102.528" y="-3.711" style="display:inline;fill:#A9B4CF;" width="43.995" height="110.813"/>
	<rect x="36.073" y="3.532" style="display:inline;fill:#A9B4CF;" width="69.53" height="103.571"/>
	<rect x="210.863" y="63.502" style="display:inline;fill:#73778F;" width="54.32" height="3.139"/>
	<rect x="215.329" y="32.239" style="display:inline;fill:#73778F;" width="7.967" height="22.09"/>
	<g style="display:inline;">
		<rect x="247.982" y="72.175" style="fill:#73778F;" width="11.648" height="9.398"/>
		<rect x="232.199" y="72.175" style="fill:#73778F;" width="11.648" height="9.398"/>
		<rect x="216.416" y="72.175" style="fill:#73778F;" width="11.648" height="9.398"/>
	</g>
	<g style="display:inline;">
		<g>
			<rect x="77.659" y="16.771" style="fill:#73778F;" width="11.648" height="9.398"/>
			<rect x="61.875" y="16.771" style="fill:#73778F;" width="11.648" height="9.398"/>
			<rect x="46.092" y="16.771" style="fill:#73778F;" width="11.648" height="9.398"/>
		</g>
		<g>
			<rect x="77.659" y="31.161" style="fill:#73778F;" width="11.648" height="9.398"/>
			<rect x="61.875" y="31.161" style="fill:#73778F;" width="11.648" height="9.398"/>
			<rect x="46.092" y="31.161" style="fill:#73778F;" width="11.648" height="9.398"/>
		</g>
	</g>
	<g style="display:inline;">
		<g>
			<rect x="77.659" y="57.484" style="fill:#73778F;" width="11.648" height="9.398"/>
			<rect x="61.875" y="57.484" style="fill:#73778F;" width="11.648" height="9.398"/>
			<rect x="46.092" y="57.484" style="fill:#73778F;" width="11.648" height="9.398"/>
		</g>
		<g>
			<rect x="77.659" y="71.874" style="fill:#73778F;" width="11.648" height="9.398"/>
			<rect x="61.875" y="71.874" style="fill:#73778F;" width="11.648" height="9.398"/>
			<rect x="46.092" y="71.874" style="fill:#73778F;" width="11.648" height="9.398"/>
		</g>
	</g>
	<rect x="265.183" y="86.68" style="display:inline;fill:#73778F;" width="29.333" height="19.604"/>
	<rect x="179.84" y="72.175" style="display:inline;fill:#A9B4CF;" width="25.832" height="11.288"/>
	<rect x="306.587" y="72.175" style="display:inline;fill:#A9B4CF;" width="12.916" height="11.288"/>
	<rect x="32.814" y="47.569" style="display:inline;fill:#73778F;" width="69.771" height="2.656"/>
	<rect x="32.814" y="2.189" style="display:inline;fill:#73778F;" width="69.771" height="3.75"/>
	<polygon style="display:inline;fill:#73778F;" points="102.585,2.189 102.585,107.102 93.839,107.102 	"/>
	<polygon style="display:inline;fill:#3B3C3B;" points="36.073,69.378 36.073,107.102 29.554,107.102 	"/>
	<polygon style="display:inline;fill:#3B3C3B;" points="210.863,63.502 205.672,106.283 210.863,106.283 	"/>
	<polygon style="display:inline;fill:#3B3C3B;" points="294.516,86.68 291.377,106.283 294.516,106.283 	"/>
	<rect x="46.092" y="90.904" style="display:inline;fill:#73778F;" width="43.214" height="16.198"/>
</g>
<path style="display:none;fill:#B8DFED;" d="M306.02,107.55v-9.26h-1.837v-8.098h-9.761V46h-6.412v20.785h-16.681v-6.387h-9.761
	v6.387h-1.592v-7.799h-5.551v17.147h-3.382v-34.49h-16.901v14.051h-5.206V25.663h-4.996v55.93h-1.521V55.391h-2.512V33.923h-11.114
	v15.34h-5.514v-7.054h-4.326v7.054h-2.556V34.867h0.926c1.023,0,1.852-0.916,1.852-2.045v-1.337c0-1.13-0.829-2.045-1.852-2.045
	h-1.14c0-2.085-1.531-3.776-3.42-3.776c-1.889,0-3.42,1.69-3.42,3.776h-1.139c-1.023,0-1.853,0.916-1.853,2.045v1.337
	c0,1.13,0.829,2.045,1.853,2.045h1.14v14.155h-3.504v12.655h-5.127v2.458h5.127v17.458h-6.755V64.19h-6.412v16.456H169v7.704h-1.548
	V43.531h-18.761v13.418h-9.04v-1.255h-6.58v4.956h-1.71v2.596h-2.245v3.54h2.245v25.429h-0.111v6.076h-3.682V76.133h2.008v-2.92
	h-2.008v-2.142h-1.592v-4.089h-0.621V55.694h-2.546l0.819-3.452h-10.687v3.452h-1.727v8.442h-1.147v-1.244h-3.562v1.244h-3.654
	v2.847h-1.495v5.655h-4.933V98.29h-1.733V80.961h-1.161V67.374H88.83v-8.376H77.131v10.711h-5.284v1.325h-4.969v8.604h-3.908v15.913
	H49.88v12.744h-9.912v10.384h22.119v0.405h207.93v-0.235h30.465v0.19h25.977V107.55H306.02z M65.858,101.507h-1.856v-2.041h1.856
	V101.507z M65.942,97.743h-1.939v-2.04h1.939V97.743z M65.942,93.979h-1.939v-2.041h1.939V93.979z M65.942,90.215h-1.939v-2.04
	h1.939V90.215z M65.942,86.45h-1.939v-2.04h1.939V86.45z M65.942,82.686h-1.939v-2.041h1.939V82.686z M69.519,97.543h-1.45v-1.84
	h1.45V97.543z M69.519,92.98h-1.45v-1.042h1.45V92.98z M69.519,88.417h-1.45v-0.243h1.45V88.417z M69.519,86.45h-1.45v-0.507h1.45
	V86.45z M69.519,82.686h-1.45v-1.305h1.45V82.686z M70.31,79.292h-2.24v-2.473h2.24V79.292z M70.31,74.729h-2.24v-2.473h2.24V74.729
	z M74.365,87.626h-1.357v-1.428h1.357V87.626z M74.365,79.292h-1.357v-0.366h1.357V79.292z M74.365,73.081h-1.357v-0.826h1.357
	V73.081z M77.131,98.079H76.03v-1.428h1.101V98.079z M77.131,90.806H76.03v-1.428h1.101V90.806z M77.131,83.533H76.03v-1.428h1.101
	V83.533z M77.131,76.261H76.03v-1.428h1.101V76.261z M80.039,79.441h-0.986v-0.455h0.986V79.441z M80.039,63.086h-1.567v-1.731
	h1.567V63.086z M83.53,75.756h-1.554v-1.731h1.554V75.756z M83.53,66.941h-1.567V65.21h1.567V66.941z M87.021,97.241h-0.974v-1.731
	h0.974V97.241z M87.021,88.426h-0.974v-1.731h0.974V88.426z M87.021,79.611h-0.974V77.88h0.974V79.611z M87.021,70.795h-1.567
	v-1.731h1.567V70.795z M90.512,91.158h-1.219V90.55h1.219V91.158z M90.512,83.466h-1.219v0L90.512,83.466L90.512,83.466z
	 M90.512,74.65h-1.567v-1.731h1.567V74.65z M93.611,97.837h-0.079v-1.013h0.079V97.837z M93.611,95.611h-0.079v-1.013h0.079V95.611z
	 M93.611,93.384h-0.079v-1.013h0.079V93.384z M93.611,91.158h-0.079v-1.013h0.079V91.158z M93.611,88.931h-0.079v-1.013h0.079
	V88.931z M93.611,86.704h-0.079v-1.013h0.079V86.704z M93.611,84.478h-0.079v-1.013h0.079V84.478z M97.281,95.793H97.28v-1.228
	h0.001V95.793z M97.281,93.094H97.28v-1.228h0.001V93.094z M97.281,90.395H97.28v-1.228h0.001V90.395z M97.281,87.696H97.28v-1.228
	h0.001V87.696z M97.281,84.998H97.28v-1.228h0.001V84.998z M97.281,82.299H97.28v-1.228h0.001V82.299z M97.281,79.6H97.28v-1.228
	h0.001V79.6z M97.281,76.901H97.28v-1.228h0.001V76.901z M101.359,95.793h-0.993v-1.228h0.993V95.793z M101.359,93.094h-0.993
	v-1.228h0.993V93.094z M101.359,90.395h-0.993v-1.228h0.993V90.395z M101.359,87.696h-0.993v-1.228h0.993V87.696z M101.359,84.998
	h-0.993v-1.228h0.993V84.998z M101.359,82.299h-0.993v-1.228h0.993V82.299z M101.359,79.6h-0.993v-1.228h0.993V79.6z
	 M101.359,76.901h-0.993v-1.228h0.993V76.901z M105.207,83.923h-1.689v-2.207h1.689V83.923z M105.207,71.653h-2.097v-2.207h2.097
	V71.653z M111.217,71.653h-1.147v-2.207h1.147V71.653z M115.662,76.228h-2.061v-2.675h2.061V76.228z M115.662,61.355h-2.422V58.68
	h2.422V61.355z M118.8,83.072h-1.393v-2.675h1.393V83.072z M121.041,66.983h-0.761v0.312h-1.662V64.62h2.422V66.983z
	 M123.464,61.355h-2.422V58.68h2.422V61.355z M146.161,72.756h-2.097V70.55h2.097V72.756z M146.161,65.228h-2.097v-2.206h2.097
	V65.228z M151.312,49.555h2.422v2.675h-2.422V49.555z M151.312,65.957h2.422v2.675h-2.422V65.957z M154.567,91.119h-2.044v-2.675
	h2.044V91.119z M157.264,73.992h-2.422v-0.438h2.422V73.992z M162.964,62.692h-2.422v-2.675h2.422V62.692z M162.964,53.567h-2.422
	v-2.675h2.422V53.567z M169,98h-1.548v-3.102H169V98z M179.494,98.341h-0.267v-1.892h0.267V98.341z M188.843,73.86h-2.097v-2.206
	h2.097V73.86z M189.344,64.125h-0.501v-2.207h0.501V64.125z M189.344,54.52h-1.55v-2.207h1.55V54.52z M198.953,81.593h-2.556V52.242
	h2.556V81.593z M208.793,73.86h-3.04v-2.206h3.04V73.86z M208.793,55.391h-1.007v11.592h-4.507V52.242h5.514V55.391z
	 M211.051,37.912h2.422v2.675h-2.422V37.912z M214.684,52.23h-2.422v-2.675h2.422V52.23z M236.742,64.03h-4.949v-2.675h4.949V64.03z
	 M239.917,49.555h4.948v2.675h-4.948V49.555z M247.339,69.342h-4.948v-2.675h4.948V69.342z M252.903,81.593h-1.861v-3.351h1.861
	V81.593z M262.477,95.443h-2.5V83.122h2.5V95.443z M262.681,73.553h-2.705v-4.211h2.705V73.553z M274.224,95.735h-3.814v-4.211
	h3.814V95.735z M276.131,78.333h-3.814v-4.211h3.814V78.333z M286.253,73.553h-3.814v-4.211h3.814V73.553z M291.216,91.887h-3.813
	v-4.211h3.813V91.887z"/>
<polygon style="opacity:0.3;fill:#2E2E2E;" points="331.526,14.378 -1.024,56.133 -5.212,80.579 412.145,28.19 "/>
<polygon style="fill:#FFD954;" points="321.489,12.659 -2,53.667 -6.188,78.113 402.108,26.471 "/>
<g>
	<path style="fill:#C5992D;" d="M90.552,49.837c-0.108-0.866-0.506-1.572-1.193-2.115c-0.688-0.543-1.467-0.76-2.34-0.65
		l-3.138,0.393l1.661,13.248l3.138-0.393c0.866-0.109,1.567-0.512,2.101-1.208c0.535-0.697,0.748-1.481,0.639-2.354L90.552,49.837z
		 M89.255,57.891c-0.19,0.257-0.443,0.404-0.761,0.444l-1.205,0.151l-1.158-9.233l1.205-0.151c0.31-0.039,0.59,0.04,0.84,0.238
		c0.251,0.198,0.395,0.456,0.435,0.772l0.869,6.93C89.52,57.352,89.444,57.636,89.255,57.891z"/>
	<path style="fill:#C5992D;" d="M99.327,48.586c-0.11-0.874-0.512-1.582-1.205-2.124c-0.694-0.543-1.482-0.759-2.362-0.648
		c-0.866,0.109-1.571,0.51-2.112,1.204c-0.543,0.694-0.759,1.481-0.649,2.362l0.906,7.225c0.109,0.874,0.51,1.582,1.2,2.125
		c0.691,0.543,1.476,0.759,2.356,0.649c0.874-0.11,1.582-0.512,2.124-1.205c0.543-0.695,0.758-1.482,0.648-2.362L99.327,48.586z
		 M97.917,56.902c-0.194,0.25-0.449,0.395-0.766,0.434c-0.317,0.04-0.603-0.037-0.855-0.231c-0.253-0.194-0.4-0.449-0.439-0.765
		l-0.909-7.247c-0.04-0.317,0.039-0.601,0.237-0.851c0.197-0.25,0.455-0.395,0.772-0.434c0.317-0.04,0.6,0.037,0.849,0.231
		c0.25,0.194,0.395,0.45,0.435,0.767l0.909,7.247C98.188,56.368,98.111,56.652,97.917,56.902z"/>
	<polygon style="fill:#C5992D;" points="112.308,43.9 113.425,52.803 109.659,44.232 107.417,44.513 109.079,57.761 111.075,57.511 
		110.011,49.028 113.822,57.166 115.966,56.897 114.305,43.649 	"/>
	<path style="fill:#C5992D;" d="M123.508,45.554c-0.109-0.874-0.512-1.582-1.205-2.124c-0.695-0.542-1.482-0.758-2.362-0.648
		c-0.866,0.109-1.571,0.51-2.113,1.204c-0.543,0.694-0.758,1.481-0.648,2.362l0.906,7.225c0.109,0.874,0.51,1.582,1.2,2.125
		c0.69,0.543,1.476,0.759,2.356,0.649c0.873-0.109,1.581-0.511,2.124-1.205c0.542-0.695,0.759-1.481,0.648-2.362L123.508,45.554z
		 M122.098,53.869c-0.193,0.25-0.449,0.395-0.767,0.435c-0.316,0.04-0.601-0.038-0.855-0.231c-0.253-0.194-0.4-0.449-0.439-0.765
		l-0.909-7.247c-0.04-0.317,0.039-0.6,0.236-0.851c0.197-0.25,0.455-0.394,0.772-0.434c0.317-0.04,0.601,0.037,0.85,0.231
		c0.25,0.195,0.394,0.45,0.434,0.767l0.909,7.247C122.369,53.336,122.292,53.619,122.098,53.869z"/>
	<polygon style="fill:#C5992D;" points="131.733,43.514 131.481,41.506 125.248,42.288 125.5,44.295 127.623,44.029 129.031,55.259 
		131.028,55.008 129.62,43.779 	"/>
	<path style="fill:#C5992D;" d="M145.213,48.315l-2.071,0.26l0.229,1.827c0.039,0.317-0.04,0.6-0.237,0.851
		c-0.197,0.25-0.455,0.395-0.772,0.435c-0.317,0.04-0.601-0.038-0.85-0.231c-0.25-0.194-0.395-0.45-0.435-0.767l-0.909-7.247
		c-0.04-0.317,0.037-0.602,0.231-0.855c0.193-0.253,0.449-0.4,0.766-0.44c0.317-0.039,0.602,0.039,0.856,0.236
		c0.254,0.197,0.4,0.454,0.44,0.771l0.195,1.553l2.07-0.26l-0.19-1.511c-0.109-0.873-0.509-1.581-1.2-2.124
		c-0.69-0.542-1.476-0.759-2.356-0.649c-0.873,0.109-1.581,0.511-2.123,1.205c-0.543,0.694-0.759,1.481-0.648,2.361l0.906,7.226
		c0.11,0.873,0.511,1.579,1.205,2.119c0.693,0.539,1.48,0.753,2.36,0.642c0.866-0.109,1.571-0.508,2.114-1.198
		c0.543-0.691,0.759-1.476,0.649-2.356L145.213,48.315z"/>
	<path style="fill:#C5992D;" d="M153.463,43.911l-0.241-1.923c-0.12-0.958-0.442-1.676-0.968-2.153
		c-0.598-0.547-1.453-0.751-2.566-0.612l-3.148,0.395l1.66,13.237l1.996-0.25l-0.625-4.987l1.151-0.144
		c0.064-0.008,0.123-0.015,0.18-0.022l1.836,4.835l2.159-0.271l-2.203-5.594C153.324,45.684,153.581,44.848,153.463,43.911z
		 M151.294,45.052c-0.194,0.253-0.449,0.399-0.766,0.439l-1.205,0.151l-0.531-4.236l1.204-0.151
		c0.761-0.095,1.189,0.241,1.286,1.009l0.243,1.933C151.565,44.515,151.488,44.799,151.294,45.052z"/>
	<path style="fill:#C5992D;" d="M162.06,40.72c-0.11-0.874-0.511-1.582-1.206-2.125c-0.694-0.542-1.481-0.758-2.361-0.648
		c-0.867,0.109-1.571,0.51-2.113,1.204c-0.543,0.694-0.759,1.482-0.648,2.362l0.906,7.225c0.11,0.873,0.51,1.582,1.2,2.125
		c0.69,0.543,1.476,0.759,2.356,0.649c0.873-0.11,1.581-0.511,2.124-1.205c0.542-0.695,0.758-1.481,0.648-2.362L162.06,40.72z
		 M160.651,49.035c-0.194,0.25-0.449,0.395-0.767,0.435c-0.316,0.039-0.602-0.037-0.855-0.231c-0.252-0.194-0.399-0.449-0.439-0.766
		l-0.909-7.247c-0.04-0.317,0.039-0.6,0.236-0.851c0.197-0.25,0.455-0.394,0.772-0.434c0.318-0.04,0.601,0.038,0.85,0.231
		c0.25,0.195,0.394,0.45,0.434,0.767l0.909,7.247C160.921,48.501,160.845,48.785,160.651,49.035z"/>
	<path style="fill:#C5992D;" d="M171.459,45.303c-0.102-0.181-0.23-0.376-0.385-0.586c-0.328-0.445-0.769-0.884-1.324-1.315
		c-0.168-0.136-0.508-0.369-1.021-0.698c-0.436-0.275-0.766-0.52-0.994-0.734c-0.6-0.562-0.937-1.145-1.013-1.751
		c-0.049-0.387-0.012-0.721,0.11-1.001c0.149-0.348,0.407-0.545,0.774-0.591c0.345-0.043,0.623,0.033,0.833,0.229
		c0.292,0.271,0.499,0.674,0.624,1.209l1.869-0.589c-0.122-0.571-0.332-1.063-0.631-1.476c-0.298-0.414-0.661-0.719-1.086-0.915
		c-0.547-0.254-1.176-0.336-1.887-0.247c-0.74,0.093-1.336,0.358-1.789,0.794c-0.732,0.722-1.022,1.685-0.871,2.891
		c0.084,0.669,0.31,1.271,0.677,1.805c0.339,0.473,0.878,0.989,1.621,1.547c0.882,0.648,1.544,1.135,1.986,1.458
		c0.568,0.48,0.887,0.996,0.956,1.545c0.048,0.381,0.017,0.682-0.091,0.903c-0.208,0.448-0.53,0.707-0.965,0.776
		c-0.309,0.053-0.599-0.037-0.87-0.269c-0.368-0.306-0.643-0.84-0.824-1.6l-1.885,0.375c0.13,0.7,0.355,1.306,0.674,1.821
		c0.318,0.515,0.712,0.903,1.182,1.166c0.563,0.323,1.234,0.435,2.017,0.338c0.422-0.053,0.786-0.149,1.091-0.288
		c0.568-0.257,0.987-0.628,1.256-1.112c0.411-0.717,0.551-1.535,0.422-2.457C171.86,46.161,171.708,45.751,171.459,45.303z"/>
	<path style="fill:#C5992D;" d="M180.179,44.21c-0.102-0.181-0.23-0.376-0.385-0.585c-0.328-0.445-0.769-0.884-1.324-1.315
		c-0.167-0.136-0.508-0.369-1.021-0.698c-0.436-0.274-0.766-0.519-0.993-0.734c-0.601-0.562-0.938-1.145-1.014-1.751
		c-0.049-0.387-0.012-0.721,0.11-1.001c0.149-0.348,0.408-0.545,0.774-0.591c0.345-0.043,0.623,0.034,0.833,0.229
		c0.292,0.271,0.5,0.674,0.624,1.209l1.869-0.589c-0.122-0.571-0.332-1.064-0.631-1.477c-0.298-0.414-0.661-0.718-1.085-0.915
		c-0.547-0.254-1.176-0.336-1.887-0.247c-0.739,0.093-1.336,0.358-1.789,0.793c-0.732,0.722-1.023,1.686-0.872,2.891
		c0.084,0.67,0.31,1.271,0.677,1.805c0.338,0.473,0.878,0.989,1.621,1.548c0.883,0.648,1.544,1.135,1.986,1.459
		c0.568,0.48,0.887,0.996,0.955,1.545c0.048,0.38,0.017,0.682-0.091,0.903c-0.209,0.448-0.53,0.707-0.965,0.776
		c-0.308,0.053-0.598-0.037-0.87-0.268c-0.368-0.306-0.643-0.84-0.823-1.601l-1.884,0.375c0.13,0.7,0.355,1.306,0.673,1.821
		c0.319,0.515,0.712,0.904,1.181,1.166c0.563,0.323,1.235,0.436,2.017,0.337c0.423-0.053,0.787-0.149,1.091-0.287
		c0.568-0.257,0.987-0.628,1.256-1.112c0.411-0.716,0.551-1.535,0.422-2.456C180.579,45.068,180.427,44.657,180.179,44.21z"/>
</g>
<g>
	<path style="fill:#C5992D;" d="M-15.018,63.386c-0.108-0.866-0.506-1.572-1.193-2.115c-0.688-0.543-1.467-0.76-2.34-0.65
		l-3.138,0.393l1.661,13.248l3.138-0.393c0.866-0.109,1.567-0.512,2.101-1.208c0.535-0.697,0.748-1.481,0.639-2.354L-15.018,63.386z
		 M-16.315,71.44c-0.19,0.257-0.443,0.404-0.761,0.444l-1.205,0.151l-1.158-9.233l1.205-0.151c0.31-0.039,0.59,0.04,0.84,0.238
		c0.251,0.198,0.395,0.456,0.435,0.772l0.869,6.93C-16.05,70.901-16.126,71.185-16.315,71.44z"/>
	<path style="fill:#C5992D;" d="M-6.243,62.135c-0.11-0.874-0.512-1.582-1.205-2.124c-0.694-0.543-1.482-0.759-2.362-0.648
		c-0.866,0.109-1.571,0.51-2.112,1.204c-0.543,0.694-0.759,1.481-0.649,2.362l0.906,7.225c0.109,0.874,0.51,1.582,1.2,2.125
		c0.691,0.543,1.476,0.759,2.356,0.649c0.874-0.11,1.582-0.512,2.124-1.205c0.543-0.695,0.758-1.482,0.648-2.362L-6.243,62.135z
		 M-7.653,70.45c-0.194,0.25-0.449,0.395-0.766,0.434c-0.317,0.04-0.603-0.037-0.855-0.231c-0.253-0.194-0.4-0.449-0.439-0.765
		l-0.909-7.247c-0.04-0.317,0.039-0.601,0.237-0.851c0.197-0.25,0.455-0.395,0.772-0.434c0.317-0.04,0.6,0.037,0.849,0.231
		c0.25,0.194,0.395,0.45,0.435,0.767l0.909,7.247C-7.382,69.917-7.459,70.201-7.653,70.45z"/>
	<polygon style="fill:#C5992D;" points="6.738,57.449 7.855,66.352 4.089,57.781 1.847,58.062 3.509,71.31 5.505,71.059 
		4.441,62.576 8.252,70.715 10.396,70.446 8.735,57.198 	"/>
	<path style="fill:#C5992D;" d="M17.938,59.103c-0.109-0.874-0.512-1.582-1.205-2.124c-0.695-0.542-1.482-0.758-2.362-0.648
		c-0.866,0.109-1.571,0.51-2.113,1.204c-0.543,0.694-0.758,1.481-0.648,2.362l0.906,7.225c0.109,0.874,0.51,1.582,1.2,2.125
		c0.69,0.543,1.476,0.759,2.356,0.649c0.873-0.109,1.581-0.511,2.124-1.205c0.542-0.695,0.759-1.481,0.648-2.362L17.938,59.103z
		 M16.528,67.418c-0.193,0.25-0.449,0.395-0.767,0.435c-0.316,0.04-0.601-0.038-0.855-0.231c-0.253-0.194-0.4-0.449-0.439-0.765
		l-0.909-7.247c-0.04-0.317,0.039-0.6,0.236-0.851c0.197-0.25,0.455-0.394,0.772-0.434c0.317-0.04,0.601,0.037,0.85,0.231
		c0.25,0.195,0.394,0.45,0.434,0.767l0.909,7.247C16.799,66.885,16.722,67.168,16.528,67.418z"/>
	<polygon style="fill:#C5992D;" points="26.163,57.062 25.911,55.055 19.678,55.837 19.93,57.844 22.053,57.578 23.461,68.808 
		25.458,68.557 24.05,57.327 	"/>
	<path style="fill:#C5992D;" d="M39.643,61.864l-2.071,0.26l0.229,1.827c0.039,0.317-0.04,0.6-0.237,0.851
		c-0.197,0.25-0.455,0.395-0.772,0.435c-0.317,0.04-0.601-0.038-0.85-0.231c-0.25-0.194-0.395-0.45-0.435-0.767L34.6,56.991
		c-0.04-0.317,0.037-0.602,0.231-0.855c0.193-0.253,0.449-0.4,0.766-0.44c0.317-0.039,0.602,0.039,0.856,0.236
		c0.254,0.197,0.4,0.454,0.44,0.771l0.195,1.553l2.07-0.26l-0.19-1.511c-0.109-0.873-0.509-1.581-1.2-2.124
		c-0.69-0.542-1.476-0.759-2.356-0.649c-0.873,0.109-1.582,0.511-2.123,1.205c-0.543,0.694-0.759,1.481-0.648,2.361l0.906,7.226
		c0.11,0.873,0.511,1.579,1.205,2.119c0.693,0.539,1.48,0.753,2.36,0.642c0.866-0.109,1.571-0.508,2.114-1.198
		c0.543-0.691,0.759-1.476,0.649-2.356L39.643,61.864z"/>
	<path style="fill:#C5992D;" d="M47.893,57.46l-0.241-1.923c-0.12-0.958-0.442-1.676-0.968-2.153
		c-0.598-0.547-1.453-0.751-2.566-0.612l-3.148,0.395l1.66,13.237l1.996-0.25l-0.625-4.987l1.151-0.144
		c0.064-0.008,0.123-0.015,0.18-0.022l1.836,4.835l2.159-0.271l-2.203-5.594C47.754,59.233,48.011,58.397,47.893,57.46z
		 M45.724,58.601c-0.194,0.253-0.449,0.399-0.766,0.439l-1.205,0.151l-0.531-4.236l1.204-0.151c0.761-0.095,1.189,0.241,1.286,1.009
		l0.243,1.933C45.995,58.063,45.918,58.348,45.724,58.601z"/>
	<path style="fill:#C5992D;" d="M56.49,54.269c-0.11-0.874-0.511-1.582-1.206-2.125c-0.694-0.542-1.481-0.758-2.361-0.648
		c-0.867,0.109-1.571,0.51-2.113,1.204c-0.543,0.694-0.759,1.482-0.648,2.362l0.906,7.225c0.11,0.873,0.51,1.582,1.2,2.125
		c0.69,0.543,1.476,0.759,2.356,0.649c0.873-0.11,1.581-0.511,2.124-1.205c0.542-0.695,0.758-1.481,0.648-2.362L56.49,54.269z
		 M55.081,62.584c-0.194,0.25-0.449,0.395-0.767,0.435c-0.316,0.039-0.602-0.037-0.855-0.231c-0.252-0.194-0.399-0.449-0.439-0.766
		l-0.909-7.247c-0.04-0.317,0.039-0.6,0.236-0.851c0.197-0.25,0.455-0.394,0.772-0.434c0.318-0.04,0.6,0.038,0.85,0.231
		c0.25,0.195,0.394,0.45,0.434,0.767l0.909,7.247C55.351,62.05,55.275,62.334,55.081,62.584z"/>
	<path style="fill:#C5992D;" d="M65.889,58.852c-0.102-0.181-0.23-0.376-0.385-0.586c-0.328-0.445-0.769-0.884-1.324-1.315
		c-0.168-0.136-0.508-0.369-1.021-0.698c-0.436-0.275-0.766-0.52-0.994-0.734c-0.6-0.562-0.937-1.145-1.013-1.751
		c-0.049-0.387-0.012-0.721,0.11-1.001c0.149-0.348,0.407-0.545,0.774-0.591c0.345-0.043,0.623,0.033,0.833,0.229
		c0.292,0.271,0.499,0.674,0.624,1.209l1.869-0.589c-0.122-0.571-0.332-1.063-0.631-1.476c-0.298-0.414-0.661-0.719-1.086-0.915
		c-0.547-0.254-1.176-0.336-1.887-0.247c-0.74,0.093-1.336,0.358-1.789,0.794c-0.732,0.722-1.022,1.685-0.871,2.891
		c0.084,0.669,0.31,1.271,0.677,1.805c0.339,0.473,0.878,0.989,1.621,1.547c0.882,0.648,1.544,1.135,1.986,1.458
		c0.568,0.48,0.887,0.996,0.956,1.545c0.048,0.381,0.017,0.682-0.091,0.903c-0.208,0.448-0.53,0.707-0.965,0.776
		c-0.309,0.053-0.599-0.037-0.87-0.269c-0.368-0.306-0.643-0.84-0.824-1.6l-1.885,0.375c0.13,0.7,0.355,1.306,0.674,1.821
		c0.318,0.515,0.712,0.903,1.182,1.166c0.563,0.323,1.234,0.435,2.017,0.338c0.422-0.053,0.786-0.149,1.091-0.288
		c0.568-0.257,0.987-0.628,1.256-1.112c0.411-0.717,0.551-1.535,0.422-2.457C66.29,59.71,66.138,59.3,65.889,58.852z"/>
	<path style="fill:#C5992D;" d="M74.609,57.759c-0.102-0.181-0.23-0.376-0.385-0.585c-0.328-0.445-0.769-0.884-1.324-1.315
		c-0.167-0.136-0.508-0.369-1.021-0.698c-0.436-0.274-0.766-0.519-0.993-0.734c-0.601-0.562-0.938-1.145-1.014-1.751
		c-0.049-0.387-0.012-0.721,0.11-1.001c0.149-0.348,0.408-0.545,0.774-0.591c0.345-0.043,0.623,0.034,0.833,0.229
		c0.292,0.271,0.5,0.674,0.624,1.209l1.869-0.589c-0.122-0.571-0.332-1.064-0.631-1.477c-0.298-0.414-0.661-0.718-1.085-0.915
		c-0.547-0.254-1.176-0.336-1.887-0.247c-0.739,0.093-1.336,0.358-1.789,0.793c-0.732,0.722-1.023,1.686-0.872,2.891
		c0.084,0.67,0.31,1.271,0.677,1.805c0.338,0.473,0.878,0.989,1.621,1.548c0.883,0.648,1.544,1.135,1.986,1.459
		c0.568,0.48,0.887,0.996,0.955,1.545c0.048,0.38,0.017,0.682-0.091,0.903c-0.209,0.448-0.53,0.707-0.965,0.776
		c-0.308,0.053-0.598-0.037-0.87-0.268c-0.368-0.306-0.643-0.84-0.823-1.601l-1.884,0.375c0.13,0.7,0.355,1.306,0.673,1.821
		c0.319,0.515,0.712,0.904,1.181,1.166c0.563,0.323,1.235,0.436,2.017,0.337c0.423-0.053,0.787-0.149,1.091-0.287
		c0.568-0.257,0.987-0.628,1.256-1.112c0.411-0.716,0.551-1.535,0.422-2.456C75.009,58.617,74.857,58.206,74.609,57.759z"/>
</g>
<g>
	<path style="fill:#C5992D;" d="M205.02,35.482c-0.109-0.866-0.507-1.571-1.194-2.115c-0.687-0.543-1.467-0.76-2.34-0.651
		l-3.137,0.393l1.661,13.248l3.137-0.393c0.866-0.109,1.567-0.512,2.102-1.209c0.535-0.696,0.748-1.481,0.639-2.354L205.02,35.482z
		 M203.723,43.537c-0.19,0.256-0.443,0.404-0.76,0.444l-1.204,0.151l-1.158-9.233l1.205-0.151c0.31-0.039,0.59,0.04,0.84,0.238
		c0.251,0.198,0.396,0.456,0.435,0.772l0.869,6.93C203.988,42.998,203.912,43.281,203.723,43.537z"/>
	<path style="fill:#C5992D;" d="M213.795,34.232c-0.109-0.874-0.512-1.582-1.205-2.124c-0.695-0.543-1.482-0.758-2.362-0.648
		c-0.866,0.109-1.571,0.51-2.112,1.204c-0.543,0.694-0.759,1.482-0.648,2.362l0.906,7.225c0.11,0.873,0.51,1.582,1.2,2.125
		c0.69,0.543,1.476,0.759,2.356,0.649c0.873-0.11,1.582-0.511,2.124-1.205c0.542-0.695,0.759-1.481,0.648-2.362L213.795,34.232z
		 M212.385,42.548c-0.193,0.249-0.45,0.394-0.766,0.434c-0.317,0.04-0.603-0.037-0.855-0.231c-0.253-0.194-0.4-0.449-0.439-0.766
		l-0.909-7.247c-0.04-0.318,0.039-0.601,0.236-0.851c0.197-0.25,0.455-0.394,0.772-0.434c0.317-0.039,0.6,0.037,0.849,0.231
		c0.25,0.194,0.395,0.45,0.435,0.767l0.909,7.247C212.657,42.014,212.579,42.298,212.385,42.548z"/>
	<polygon style="fill:#C5992D;" points="226.776,29.546 227.893,38.449 224.126,29.878 221.885,30.159 223.546,43.407 
		225.543,43.156 224.479,34.673 228.29,42.812 230.434,42.543 228.773,29.295 	"/>
	<path style="fill:#C5992D;" d="M237.975,31.2c-0.109-0.873-0.511-1.581-1.205-2.124c-0.694-0.542-1.481-0.758-2.361-0.648
		c-0.867,0.109-1.571,0.51-2.113,1.204c-0.543,0.694-0.759,1.481-0.648,2.362l0.906,7.225c0.11,0.873,0.51,1.582,1.2,2.125
		c0.69,0.543,1.476,0.759,2.356,0.649c0.873-0.109,1.581-0.511,2.124-1.205c0.543-0.695,0.758-1.482,0.648-2.362L237.975,31.2z
		 M236.566,39.515c-0.194,0.25-0.449,0.394-0.767,0.434c-0.316,0.04-0.602-0.037-0.855-0.231c-0.252-0.193-0.399-0.449-0.439-0.766
		l-0.909-7.247c-0.04-0.318,0.039-0.601,0.236-0.851c0.197-0.25,0.456-0.395,0.772-0.434c0.318-0.04,0.601,0.037,0.85,0.23
		c0.25,0.195,0.394,0.45,0.434,0.767l0.909,7.247C236.837,38.982,236.76,39.265,236.566,39.515z"/>
	<polygon style="fill:#C5992D;" points="246.201,29.159 245.949,27.152 239.716,27.933 239.968,29.941 242.091,29.675 
		243.499,40.904 245.496,40.654 244.088,29.424 	"/>
	<path style="fill:#C5992D;" d="M259.681,33.961l-2.07,0.26l0.229,1.827c0.04,0.317-0.04,0.601-0.237,0.851
		c-0.197,0.25-0.455,0.395-0.772,0.435c-0.317,0.039-0.6-0.038-0.85-0.232c-0.25-0.194-0.394-0.449-0.434-0.767l-0.909-7.246
		c-0.04-0.317,0.037-0.602,0.231-0.855c0.193-0.254,0.449-0.4,0.766-0.44c0.317-0.04,0.603,0.039,0.856,0.236
		c0.253,0.197,0.401,0.454,0.441,0.771l0.195,1.553l2.07-0.26l-0.189-1.51c-0.109-0.873-0.51-1.582-1.201-2.125
		c-0.69-0.543-1.476-0.759-2.356-0.648c-0.873,0.11-1.582,0.511-2.123,1.205c-0.543,0.695-0.759,1.482-0.648,2.362l0.906,7.226
		c0.109,0.873,0.51,1.579,1.204,2.119c0.694,0.539,1.48,0.753,2.361,0.642c0.866-0.108,1.571-0.508,2.114-1.198
		s0.759-1.476,0.649-2.356L259.681,33.961z"/>
	<path style="fill:#C5992D;" d="M267.932,29.556l-0.241-1.922c-0.12-0.958-0.443-1.676-0.968-2.154
		c-0.598-0.546-1.453-0.751-2.566-0.611l-3.148,0.395l1.66,13.237l1.996-0.25l-0.625-4.987l1.152-0.144
		c0.063-0.008,0.123-0.015,0.18-0.023l1.836,4.835l2.158-0.27l-2.203-5.594C267.793,31.331,268.049,30.494,267.932,29.556z
		 M265.763,30.698c-0.194,0.253-0.449,0.399-0.766,0.439l-1.204,0.151l-0.532-4.236l1.205-0.151c0.76-0.096,1.189,0.241,1.285,1.009
		l0.243,1.933C266.033,30.16,265.956,30.445,265.763,30.698z"/>
	<path style="fill:#C5992D;" d="M276.528,26.365c-0.11-0.874-0.512-1.582-1.205-2.124c-0.694-0.543-1.482-0.759-2.362-0.648
		c-0.866,0.109-1.571,0.51-2.112,1.204c-0.543,0.694-0.758,1.481-0.648,2.362l0.906,7.225c0.11,0.873,0.509,1.582,1.2,2.125
		c0.691,0.543,1.476,0.759,2.356,0.649c0.874-0.11,1.582-0.512,2.124-1.205c0.543-0.695,0.758-1.482,0.648-2.362L276.528,26.365z
		 M275.118,34.681c-0.194,0.25-0.449,0.394-0.766,0.434c-0.317,0.04-0.603-0.037-0.855-0.231c-0.253-0.194-0.4-0.449-0.439-0.765
		l-0.909-7.247c-0.04-0.317,0.039-0.601,0.237-0.851c0.197-0.25,0.456-0.395,0.772-0.434c0.317-0.04,0.6,0.037,0.849,0.231
		c0.25,0.194,0.395,0.45,0.435,0.767l0.909,7.247C275.389,34.147,275.312,34.431,275.118,34.681z"/>
	<path style="fill:#C5992D;" d="M285.927,30.949c-0.101-0.181-0.229-0.376-0.384-0.585c-0.328-0.445-0.769-0.884-1.324-1.315
		c-0.168-0.136-0.508-0.369-1.021-0.698c-0.435-0.274-0.766-0.519-0.994-0.734c-0.6-0.561-0.938-1.145-1.014-1.751
		c-0.048-0.387-0.011-0.721,0.111-1.001c0.15-0.348,0.408-0.545,0.774-0.591c0.345-0.043,0.623,0.034,0.833,0.229
		c0.292,0.271,0.499,0.673,0.624,1.209l1.869-0.589c-0.122-0.571-0.332-1.064-0.631-1.477c-0.299-0.413-0.66-0.718-1.085-0.915
		c-0.547-0.254-1.176-0.336-1.888-0.247c-0.739,0.093-1.336,0.358-1.789,0.793c-0.732,0.722-1.023,1.686-0.871,2.891
		c0.084,0.67,0.309,1.271,0.677,1.805c0.338,0.473,0.879,0.989,1.621,1.548c0.882,0.648,1.544,1.135,1.986,1.459
		c0.568,0.48,0.887,0.995,0.956,1.545c0.048,0.381,0.017,0.682-0.091,0.903c-0.208,0.448-0.53,0.708-0.964,0.776
		c-0.309,0.053-0.599-0.037-0.871-0.269c-0.368-0.306-0.642-0.84-0.823-1.601l-1.884,0.375c0.13,0.699,0.355,1.306,0.673,1.821
		c0.318,0.514,0.712,0.903,1.182,1.166c0.563,0.323,1.235,0.435,2.017,0.337c0.422-0.053,0.786-0.149,1.091-0.287
		c0.568-0.257,0.986-0.628,1.255-1.112c0.411-0.717,0.551-1.536,0.422-2.456C286.328,31.807,286.176,31.396,285.927,30.949z"/>
	<path style="fill:#C5992D;" d="M294.646,29.856c-0.101-0.181-0.229-0.376-0.384-0.585c-0.328-0.445-0.769-0.884-1.324-1.315
		c-0.168-0.136-0.508-0.369-1.021-0.697c-0.435-0.275-0.766-0.52-0.993-0.734c-0.6-0.562-0.938-1.145-1.014-1.751
		c-0.049-0.387-0.012-0.721,0.111-1.001c0.149-0.348,0.407-0.545,0.774-0.591c0.345-0.043,0.623,0.033,0.833,0.229
		c0.292,0.271,0.499,0.674,0.624,1.209l1.868-0.588c-0.122-0.571-0.332-1.064-0.631-1.477c-0.298-0.413-0.66-0.718-1.085-0.915
		c-0.547-0.254-1.176-0.336-1.888-0.246c-0.739,0.092-1.336,0.358-1.789,0.793c-0.732,0.722-1.023,1.685-0.871,2.891
		c0.084,0.669,0.309,1.271,0.677,1.805c0.339,0.473,0.878,0.989,1.621,1.547c0.882,0.648,1.544,1.135,1.986,1.458
		c0.568,0.48,0.887,0.996,0.955,1.545c0.048,0.381,0.017,0.681-0.091,0.903c-0.208,0.448-0.53,0.707-0.965,0.776
		c-0.309,0.052-0.599-0.037-0.871-0.268c-0.368-0.306-0.642-0.84-0.823-1.601l-1.884,0.375c0.13,0.7,0.355,1.306,0.674,1.821
		c0.318,0.515,0.712,0.903,1.182,1.166c0.563,0.323,1.234,0.436,2.017,0.338c0.422-0.053,0.786-0.149,1.091-0.288
		c0.568-0.257,0.987-0.628,1.255-1.112c0.411-0.717,0.552-1.535,0.423-2.456C295.046,30.714,294.896,30.303,294.646,29.856z"/>
</g>
<g>
	<path style="fill:#C5992D;" d="M319.488,21.128c-0.108-0.866-0.507-1.571-1.194-2.115c-0.687-0.544-1.467-0.76-2.34-0.651
		l-3.137,0.393l1.661,13.248l3.137-0.393c0.867-0.109,1.567-0.511,2.102-1.208c0.535-0.696,0.748-1.481,0.638-2.354L319.488,21.128z
		 M318.191,29.183c-0.19,0.256-0.443,0.404-0.761,0.443l-1.204,0.151l-1.157-9.233l1.204-0.151c0.31-0.039,0.59,0.04,0.84,0.238
		c0.25,0.198,0.394,0.455,0.434,0.772l0.87,6.93C318.455,28.643,318.38,28.927,318.191,29.183z"/>
	<path style="fill:#C5992D;" d="M328.262,19.878c-0.109-0.874-0.511-1.582-1.205-2.124s-1.481-0.758-2.362-0.648
		c-0.867,0.109-1.571,0.51-2.112,1.204c-0.544,0.694-0.759,1.481-0.649,2.362l0.906,7.225c0.109,0.873,0.51,1.582,1.2,2.126
		c0.69,0.543,1.475,0.759,2.356,0.648c0.874-0.109,1.581-0.512,2.124-1.205c0.542-0.695,0.758-1.481,0.648-2.362L328.262,19.878z
		 M326.853,28.193c-0.194,0.25-0.449,0.395-0.766,0.435c-0.317,0.039-0.603-0.037-0.856-0.231c-0.252-0.194-0.398-0.449-0.439-0.766
		l-0.908-7.247c-0.04-0.317,0.039-0.6,0.237-0.851c0.197-0.25,0.455-0.395,0.771-0.434c0.317-0.04,0.601,0.037,0.85,0.231
		c0.25,0.195,0.393,0.449,0.434,0.767l0.909,7.247C327.124,27.66,327.047,27.943,326.853,28.193z"/>
	<polygon style="fill:#C5992D;" points="338.014,29.053 340.01,28.802 338.947,20.319 342.757,28.458 344.901,28.189 
		343.426,16.417 341.353,16.062 342.36,24.095 338.625,15.595 338.371,15.551 336.353,15.804 	"/>
	<path style="fill:#C5992D;" d="M347.022,24.864c0.109,0.873,0.508,1.582,1.199,2.125c0.69,0.543,1.475,0.759,2.355,0.648
		c0.875-0.109,1.582-0.511,2.125-1.205c0.544-0.695,0.758-1.481,0.648-2.362l-0.762-6.084l-2.16-0.37l0.839,6.695
		c0.039,0.316-0.037,0.6-0.232,0.85c-0.193,0.249-0.448,0.395-0.765,0.434c-0.317,0.039-0.603-0.037-0.855-0.231
		c-0.253-0.194-0.4-0.45-0.44-0.766l-0.909-7.247c-0.006-0.049,0.01-0.091,0.009-0.138l-1.959-0.336
		c-0.026,0.246-0.032,0.498,0.001,0.761L347.022,24.864z"/>
	<polygon style="fill:#C5992D;" points="359.965,26.3 359.061,19.096 356.988,18.741 357.968,26.551 	"/>
	<path style="fill:#C5992D;" d="M369.257,24.367c0.692,0.539,1.479,0.753,2.361,0.642c0.866-0.108,1.571-0.507,2.114-1.198
		c0.486-0.619,0.696-1.318,0.659-2.09l-2.124-0.364l0.042,0.336c0.039,0.317-0.04,0.601-0.238,0.851
		c-0.198,0.25-0.455,0.394-0.771,0.434c-0.317,0.04-0.601-0.038-0.85-0.231c-0.25-0.195-0.394-0.45-0.434-0.767l-0.129-1.031
		l-2.041-0.35l0.207,1.648C368.162,23.122,368.563,23.828,369.257,24.367z"/>
	<polygon style="fill:#C5992D;" points="379.132,23.896 378.958,22.505 376.887,22.15 377.137,24.147 	"/>
	<polygon style="fill:#C5992D;" points="381.675,23.577 383.723,23.321 381.428,22.928 	"/>
</g>
<ellipse style="fill:#D8D8D8;" cx="278.849" cy="129.405" rx="29.221" ry="6.262"/>
<g>
	<g>
		<path style="fill:#B28867;" d="M236.483,59.011c0,0-0.301-3.764-0.303-3.934c-0.015-2.222-1.285-4.596,0.433-4.756
			c0,0,0.983,5.69,1.201,7.072C238.033,58.775,236.483,59.011,236.483,59.011z"/>
		<path style="fill:#D09F76;" d="M236.71,58.278c0,0-0.086-4.007-0.087-4.177c-0.015-2.222-1.286-4.596,0.433-4.756
			c0,0,0.983,5.69,1.201,7.072C238.475,57.799,236.71,58.278,236.71,58.278z"/>
		<path style="fill:#D09F76;" d="M237.03,60.82c0,0-0.936-0.962-0.371-3.191c0.326-1.283,0.835-3.326,0.862-3.952
			c0.026-0.626-1.512-5.196,0.478-5.285c0.245,1.327,0.523,3.081,1.007,3.848c0.483,0.767,1.183,5.151,1.759,6.275
			c0.575,1.124,0.632,3.008,0.632,3.008L237.03,60.82z"/>
		<path style="fill:#B28867;" d="M237.337,54.798c0,0,0.032-0.342,0.081-0.854c0.009-0.132,0.025-0.256-0.004-0.402
			c-0.025-0.133-0.067-0.291-0.102-0.448c-0.077-0.316-0.154-0.656-0.223-0.998c-0.065-0.342-0.122-0.686-0.152-1.011
			c-0.037-0.324-0.034-0.629-0.031-0.889c0.008-0.261,0.048-0.475,0.077-0.623c0.04-0.146,0.062-0.23,0.062-0.23
			s-0.004,0.086-0.01,0.236c-0.006,0.074,0.001,0.166,0.002,0.27c0.001,0.104,0.018,0.222,0.021,0.349
			c0.043,0.511,0.163,1.188,0.297,1.866c0.065,0.34,0.13,0.681,0.191,1c0.03,0.162,0.052,0.313,0.065,0.474
			c0.014,0.149-0.019,0.304-0.041,0.426c-0.049,0.255-0.118,0.461-0.157,0.607C237.367,54.716,237.337,54.798,237.337,54.798z"/>
		<path style="fill:#D09F76;" d="M243.891,58.397c0.839,1.149,0.738,4.592,0.738,4.592s-1.299,0.131-3.694-0.124
			c-2.395-0.255-3.905-2.045-3.905-2.045s0.764-0.458,1.667-0.949c-0.611-1.008-0.776-2.339-0.072-3.801
			c0.39-0.809,0.422-1.589,0.456-2.429c0.034-0.837,0.9-1.388,0.949-0.76c0.049,0.624,0.934,2.956,0.934,2.956
			s0.385,1.796,0.856,2.869C242.969,58.532,243.891,58.397,243.891,58.397z"/>
		<path style="fill:#B28867;" d="M238.698,59.87c0,0-0.015-0.022-0.044-0.063c-0.026-0.042-0.075-0.099-0.118-0.18
			c-0.096-0.159-0.222-0.393-0.317-0.691c-0.093-0.297-0.17-0.655-0.172-1.041c0.003-0.192,0.01-0.392,0.045-0.591
			c0.033-0.199,0.076-0.4,0.139-0.596c0.061-0.196,0.138-0.388,0.224-0.572c0.083-0.185,0.173-0.353,0.232-0.527
			c0.126-0.347,0.21-0.684,0.254-0.979c0.046-0.294,0.083-0.543,0.103-0.717c0.024-0.174,0.038-0.274,0.038-0.274
			s0.005,0.101,0.014,0.277c0.002,0.176,0.018,0.429-0.004,0.731c-0.021,0.302-0.061,0.658-0.178,1.027
			c-0.056,0.186-0.137,0.373-0.217,0.551c-0.08,0.178-0.151,0.363-0.207,0.551c-0.063,0.186-0.107,0.378-0.142,0.567
			c-0.034,0.189-0.055,0.378-0.065,0.561c-0.003,0.183-0.005,0.361,0.01,0.53c0.014,0.169,0.038,0.329,0.072,0.475
			c0.068,0.291,0.143,0.536,0.217,0.699C238.653,59.776,238.698,59.87,238.698,59.87z"/>
	</g>
	<path style="fill:#34425E;" d="M260.774,62.09c4.761-0.314,18.853-1.984,18.853-1.984s-1.179-12.359-6.793-10.45
		c0,0-7.892,2.933-15.171,6.049c0,0-3.555-0.348-15.743,2.699v5.041C241.921,63.445,252.416,63.672,260.774,62.09z"/>
	<path style="fill:#20232B;" d="M294.66,124.676c0,0-0.176,1.584-0.66,2.245c-0.484,0.66-1.848,1.716-1.496,3.037
		c0.352,1.32,2.641,1.804,2.641,1.804s2.553,0.572,4.753-1.628c0,0,0.066-0.44,0.022-1.166l0.22-0.396c0,0,0.001-2.157-1.276-3.895
		C296.993,123.708,294.66,124.676,294.66,124.676z"/>
	<path style="fill:#20232B;" d="M274.153,124.065c0,0-1.615,0.699-4.08,0.494c-1.767-0.147-4.17,0.762-5.384,3.479
		c0,0,1.297,2.059,5.575,1.539s3.542-1.465,4.698-1.349c1.156,0.116,3.121,0.289,3.815-0.231c0,0-0.058-1.387-0.636-2.659
		C277.563,124.065,274.153,124.065,274.153,124.065z"/>
	<path style="fill:#20232B;" d="M299.368,124.796c-1.815,1.696-5.583,0.156-5.583,0.156c0.42-2.312-1.953-11.098-3.352-14.182
		c-0.924-2.045-1.689-8.318-2.546-12.621c-0.257-1.29-0.525-2.404-0.806-3.172c-0.193-0.535-0.393-0.904-0.606-1.053
		c-1.534-1.08-4.012-1.08-6.104,0c-0.67,0.345-1.192,1.926-1.557,4.049c-0.044,0.261-0.085,0.532-0.125,0.809
		c-0.65,4.493-0.66,10.81,0.054,13.376c1.117,4.009-0.413,13.573-0.413,13.573c-2.092-0.152-5.81-1.249-5.81-1.249
		c1.764-1.832-1.009-15.648-1.009-15.648c-0.464-3.809-0.785-7.198-1.009-10.14c-0.261-3.443-0.386-6.277-0.44-8.464
		c-0.034-1.435-0.041-2.593-0.034-3.463c0-0.095,0.003-0.183,0.003-0.271c0.01-1.1,0.041-1.666,0.041-1.666
		s0.542-4.428,10.482-4.428c9.94,0,15.086,4.713,15.086,4.713c0.044,0.207,0.085,0.44,0.118,0.694
		c0.014,0.108,0.027,0.22,0.041,0.335c0.186,1.693,0.203,4.229,0.183,7.049c-0.014,1.903-0.041,3.934-0.044,5.921
		c-0.007,4.32,0.112,8.437,0.779,10.58C298.251,114.623,299.368,124.796,299.368,124.796z"/>
	<path style="fill:#34425E;" d="M295.24,82.45c-5.559,2.355-9.612,2.012-13.601,1.98l-2.835-0.127
		c-5.57-0.465-8.384-1.292-8.384-1.292c-1.346-23.919,3.264-33.494,3.264-33.494c5.474-1.65,18.79-3.704,27.495,1.349
		c-0.029,7.169-1.313,11.813-3.852,19.374C295.06,76.984,295.24,82.45,295.24,82.45z"/>
	<path style="fill:#D09F76;" d="M307.069,86.703c0,0-0.287,2.207-1.229,3.277s-0.243,1.639-0.495,2.12
		c-0.252,0.481,0.326,1.498,0.806,1.75c0.481,0.252,0.537,0.344,0.941,0.662c0.404,0.318,1.417,0.075,1.821,0.039
		c0.419-0.037,1.14-0.137,1.654-0.312c0.514-0.174,0.973-0.381,1.509-0.654s0.844-1.649,0.321-2.819s-1.001-3.652-1.371-4.21
		C310.655,85.998,307.069,86.703,307.069,86.703z"/>
	<path style="fill:#34425E;" d="M301.157,50.897c0,0-7.625,0.967-7.609,7.325c0,0,8.177,9.197,9.564,12.357
		c1.387,3.16,3.087,11.336,3.391,16.712c0,0,2.312,0.617,5.241-0.617c0,0,0.214-13.271-1.328-18.666
		C308.875,62.614,301.157,50.897,301.157,50.897z"/>
	<path style="fill:#BE916C;" d="M290.025,44.474l-0.007,0.596l-0.003,0.213l-0.007,0.399l-0.051,4.056
		c-2.746,1.097-5.623,2.4-6.876,2.204c-1.588-0.251-1.161-2.204-1.161-2.204c0.21-0.227,0.386-0.518,0.538-0.85
		c0.146-0.322,0.267-0.68,0.366-1.049c0.061-0.227,0.112-0.457,0.156-0.687c0.267-1.368,0.291-2.678,0.291-2.678H290.025z"/>
	<polygon style="fill:#20232B;" points="282.129,50.865 281.695,54.217 283.886,54.314 285.243,51.299 283.501,51.661 	"/>
	<path style="fill:#977557;" d="M290.025,44.474l-0.007,0.596c-2.326,1.11-5.102,1.828-7.039,2.082
		c0.267-1.368,0.291-2.678,0.291-2.678H290.025z"/>
	<path style="fill:#20232B;" d="M281.695,54.217c0,0-3.166,9.615-4.973,19.716c0.582,3.162,1.621,6.461,1.621,6.461l3.738-6.333
		l1.804-19.747L281.695,54.217z"/>
	<polygon style="fill:#2A354D;" points="283.502,51.665 278.988,53.404 280.637,48.021 282.994,47.076 	"/>
	<path style="fill:#2A354D;" d="M283.502,51.665l4.601,2.649l2.676-3.599c0,0,0.762-1.481,1.1-2.835l-1.855-1.086L283.502,51.665z"
		/>
	<g>
		<path style="fill:#C2946E;" d="M278.151,29.298c0,0-1.619-1.689-3.439,0.171c-1.967,2.011,0.529,7.946,3.301,7.364
			c0,0,0.604-0.133,0.824-0.852C279.056,35.262,278.151,29.298,278.151,29.298z"/>
		<path style="fill:#D09F76;" d="M298.067,33.153c-0.078,0.857-0.2,1.662-0.366,2.414c-1.893,8.674-9.239,10.502-14.656,10.204
			c-1.022-0.058-1.997-0.308-2.901-0.711c-3.805-1.703-6.328-6.108-5.461-10.004c1.094-4.909,0.972-10.373,0.972-10.373
			c0.108-12.466,11.453-15.926,18.407-12.29C300.762,15.9,298.707,26.077,298.067,33.153z"/>
		<path style="fill:#542616;" d="M282.353,36.35c0.427-0.327,0.896-0.589,1.363-0.854c-2.378-0.103-3.024-0.078-3.954-0.075
			c-0.958,0.003-2.321,0.074-2.321,0.074s-0.216,0.302,0.079,1.155c0,0,0,0,0,0.003c0.169,0.488,0.444,1.012,0.887,1.463
			c0.234,0.237,0.518,0.46,0.853,0.64c0.246,0.129,0.538-0.393,0.848-0.313C280.698,37.439,281.469,37.028,282.353,36.35z"/>
		<path style="fill:#311B0F;" d="M284.154,23.638c0,0,3.337-1.834,6.495,1.606c0,0,0.347-1.381-1.198-2.61
			c-1.467-1.168-3.376-1.189-4.232-0.725C284.136,22.497,284.154,23.638,284.154,23.638z"/>
		<path style="fill:#311B0F;" d="M279.691,24.061c0,0-1.943-1.815-4.612,1.344c0,0-0.321-1.089,0.557-2.108
			c1.149-1.334,2.583-1.42,3.223-0.884C279.669,23.091,279.691,24.061,279.691,24.061z"/>
		<g>
			<path style="fill:#FFF8F0;" d="M280.02,28.356c0,0-0.235-1.692-1.524-1.757c-1.289-0.065-1.93,1.645-1.93,1.645
				s0.372,0.431,1.521,0.592C279.236,28.996,280.02,28.356,280.02,28.356z"/>
			<g>
				<path style="fill:#311B0F;" d="M279.646,27.766c0.028,0.544-0.392,0.998-0.938,1.015c-0.546,0.017-1.012-0.41-1.04-0.954
					c-0.028-0.544,0.392-0.998,0.938-1.015C279.152,26.796,279.617,27.223,279.646,27.766z"/>
				<path style="fill:#261710;" d="M279.155,27.781c0.014,0.274-0.198,0.503-0.473,0.512c-0.276,0.009-0.511-0.207-0.525-0.481
					c-0.014-0.274,0.198-0.503,0.473-0.512C278.906,27.292,279.141,27.507,279.155,27.781z"/>
				<path style="fill:#FFF8F0;" d="M278.678,27.402c0.011,0.218-0.156,0.4-0.372,0.406c-0.217,0.006-0.401-0.165-0.412-0.383
					c-0.011-0.218,0.156-0.4,0.372-0.406C278.483,27.012,278.668,27.184,278.678,27.402z"/>
				<path style="fill:#FFF8F0;" d="M279.303,28.224c0.007,0.151-0.108,0.277-0.257,0.281c-0.15,0.004-0.277-0.115-0.285-0.265
					c-0.007-0.151,0.108-0.277,0.257-0.281C279.168,27.954,279.296,28.073,279.303,28.224z"/>
			</g>
			<g>
				<path style="fill:#402617;" d="M280.02,28.356c0,0-0.026-0.07-0.071-0.193c-0.044-0.122-0.121-0.294-0.226-0.492
					c-0.108-0.196-0.25-0.422-0.461-0.614c-0.102-0.099-0.232-0.179-0.37-0.242c-0.068-0.033-0.147-0.048-0.221-0.071
					c-0.076-0.004-0.166-0.029-0.23-0.02c-0.095,0.002-0.194,0.002-0.255,0.023c-0.07,0.009-0.144,0.036-0.218,0.064
					c-0.076,0.023-0.139,0.069-0.21,0.1c-0.065,0.04-0.128,0.083-0.189,0.125c-0.115,0.092-0.223,0.187-0.316,0.284
					c-0.092,0.098-0.175,0.194-0.248,0.285c-0.143,0.183-0.256,0.343-0.326,0.458c-0.071,0.115-0.112,0.181-0.112,0.181
					s0.051-0.293,0.275-0.704c0.115-0.204,0.275-0.438,0.524-0.655c0.129-0.104,0.273-0.212,0.458-0.285
					c0.165-0.077,0.438-0.127,0.603-0.122c0.125-0.007,0.218,0.022,0.327,0.033c0.099,0.029,0.204,0.055,0.292,0.098
					c0.088,0.044,0.176,0.087,0.243,0.145c0.076,0.052,0.137,0.11,0.193,0.169c0.226,0.237,0.341,0.489,0.414,0.704
					C280.036,28.06,280.02,28.356,280.02,28.356z"/>
			</g>
		</g>
		<g>
			<path style="fill:#FFF8F0;" d="M285.548,28.463c0,0,0.235-1.589,1.524-1.65s1.93,1.545,1.93,1.545s-0.372,0.405-1.521,0.555
				C286.332,29.064,285.548,28.463,285.548,28.463z"/>
			<g>
				<path style="fill:#311B0F;" d="M285.847,27.879c-0.029,0.529,0.375,0.969,0.901,0.984c0.526,0.015,0.976-0.402,1.005-0.93
					c0.029-0.529-0.375-0.969-0.901-0.984C286.325,26.934,285.875,27.35,285.847,27.879z"/>
				<path style="fill:#261710;" d="M286.319,27.892c-0.014,0.267,0.189,0.489,0.455,0.496c0.265,0.007,0.492-0.203,0.507-0.469
					c0.014-0.267-0.189-0.489-0.455-0.496C286.56,27.415,286.333,27.625,286.319,27.892z"/>
				<path style="fill:#FFF8F0;" d="M286.777,27.591c-0.009,0.173,0.152,0.318,0.361,0.324c0.208,0.006,0.385-0.13,0.394-0.303
					c0.009-0.173-0.152-0.318-0.361-0.324C286.963,27.282,286.786,27.418,286.777,27.591z"/>
				<path style="fill:#FFF8F0;" d="M286.177,28.273c-0.006,0.12,0.105,0.22,0.249,0.224s0.266-0.09,0.273-0.209
					c0.006-0.12-0.105-0.22-0.249-0.224C286.306,28.059,286.184,28.153,286.177,28.273z"/>
			</g>
			<g>
				<path style="fill:#402617;" d="M285.548,28.463c0,0,0.026-0.066,0.071-0.181c0.044-0.115,0.121-0.276,0.226-0.462
					c0.108-0.184,0.25-0.396,0.461-0.577c0.102-0.093,0.232-0.168,0.37-0.227c0.068-0.031,0.147-0.045,0.221-0.066
					c0.076-0.004,0.166-0.027,0.23-0.019c0.095,0.002,0.194,0.002,0.255,0.022c0.07,0.008,0.144,0.033,0.218,0.06
					c0.076,0.021,0.139,0.065,0.21,0.094c0.065,0.037,0.128,0.077,0.189,0.117c0.115,0.087,0.223,0.175,0.316,0.267
					c0.092,0.092,0.175,0.182,0.248,0.268c0.143,0.172,0.256,0.322,0.326,0.43c0.071,0.108,0.112,0.17,0.112,0.17
					s-0.051-0.275-0.275-0.661c-0.115-0.191-0.275-0.411-0.524-0.615c-0.129-0.098-0.274-0.199-0.459-0.268
					c-0.165-0.073-0.438-0.119-0.603-0.115c-0.125-0.007-0.218,0.021-0.327,0.031c-0.099,0.027-0.204,0.052-0.292,0.092
					c-0.088,0.041-0.176,0.082-0.243,0.136c-0.076,0.049-0.137,0.103-0.193,0.159c-0.226,0.222-0.341,0.459-0.414,0.661
					C285.532,28.186,285.548,28.463,285.548,28.463z"/>
			</g>
		</g>
		<path style="fill:#B28867;" d="M278.656,31.27c0,0,2.214-1.017,2.211-2.998c-0.003-2.178-0.571-3.209-0.571-3.209
			S281.405,29.295,278.656,31.27z"/>
		<path style="fill:#B28867;" d="M281.405,33.021c0,0-3.141,0.712-2.761-1.686C278.644,31.335,279.109,33.251,281.405,33.021z"/>
		<path style="fill:#C2946E;" d="M300.99,29.024c-0.193-0.196-0.383-0.352-0.565-0.474c-0.535-0.359-1.039-0.437-1.466-0.386
			c-0.84,0.098-1.405,0.687-1.405,0.687s-0.907,5.962-0.687,6.683c0.22,0.718,0.823,0.853,0.823,0.853
			c2.329,0.485,1.454-1.758,2.724-2.746C301.937,32.456,302.074,30.132,300.99,29.024z"/>
		<path style="fill:#B28867;" d="M280.02,28.522c0,0-1.019,1.571-3.103,0.587C276.917,29.109,278.68,29.797,280.02,28.522z"/>
		<path style="fill:#B28867;" d="M285.45,28.715c0,0,1.019,1.571,3.103,0.587C288.553,29.302,286.79,29.991,285.45,28.715z"/>
		<path style="fill:#B28867;" d="M293.02,31.479c0,0-0.508,0.677-1.439,1.735c-0.931,1.058-1.197,2.59-1.197,2.59
			s1.07-1.426,1.779-1.997C292.871,33.236,293.02,31.479,293.02,31.479z"/>
		<path style="fill:#B28867;" d="M298.118,33.175c0-0.307,0.192-0.649,0.7-0.804c0.508-0.155,0.762-0.113,0.931-1.1
			c0,0,0.875,0.815,0.028,1.818c-0.846,1.003-0.903,0.298-1.27,0.481C298.141,33.753,298.118,33.482,298.118,33.175z"/>
		<path style="fill:#B28867;" d="M293.483,20.758c0,0-0.165,2.294,0.132,2.95c0.296,0.656,0.381,1.355,0.381,1.355
			s0.268-0.925,0.042-1.955C293.812,22.079,293.483,20.758,293.483,20.758z"/>
		<path style="fill:#B28867;" d="M280.888,32.983c0,0,0.318-0.311,1.044,0.067c0.726,0.378,1.516-0.14,1.22-0.885
			c-0.33-0.83-0.808-0.892-0.808-0.892s1.212,1.461-0.079,1.513C281.499,32.816,281.243,32.606,280.888,32.983z"/>
		<path style="fill:#B28867;" d="M280.009,33.069c0,0-0.514-0.259-1.247-0.095c-0.732,0.164-1.071-0.654-0.45-1.401
			c0,0-0.231,1.248,0.329,1.162C279.676,32.574,280.009,33.069,280.009,33.069z"/>
		<path style="fill:#B28867;" d="M279.55,32.999c0,0-0.007,0.507-0.176,1.671c0,0,0.519-0.835,0.508-1.65L279.55,32.999z"/>
		<path style="fill:#B28867;" d="M280.512,33.036c0,0-0.003,0.47-0.151,1.634c0,0,0.452-0.798,0.442-1.613L280.512,33.036z"/>
		<path style="fill:#B28867;" d="M280.961,31.966c0,0,0.122-0.534,0.672-0.661c0,0-0.241-0.021-0.391,0.071
			C280.924,31.573,280.961,31.966,280.961,31.966z"/>
		<path style="fill:#AD8464;" d="M297.772,29.849c0.111,1.63,0.327,2.885-0.078,5.718c-1.893,8.674-9.239,10.502-14.656,10.204
			c-1.022-0.058-1.997-0.308-2.901-0.711c0.65,0.058,1.361,0.098,2.136,0.125c11.552,0.383,12.639-12.289,12.978-12.73
			s1.587-2.201,1.587-2.201L297.772,29.849z"/>
		<path style="fill:#B28867;" d="M279.762,26.476c0,0-1.552-1.632-3.245,0.202C276.517,26.678,278.154,25.484,279.762,26.476z"/>
		<path style="fill:#B28867;" d="M288.897,26.476c0,0-1.552-1.632-3.245,0.202C285.652,26.678,287.289,25.484,288.897,26.476z"/>
		<path style="fill:#311B0F;" d="M297.777,29.932l-1.088,0.531l-0.525,0.736c0,0,1.05-0.187,1.678-0.432L297.777,29.932z"/>
		<path style="fill:#311B0F;" d="M287.769,8.217c-0.266-0.005-0.92,0.188-1.606,0.293c-0.503,0.077-1.098,0.075-1.588,0.192
			c-0.687,0.164-1.039,0.858-1.226,1.059c-0.225,0.242-1.119,0.573-1.221,1.155c-0.08,0.457,0.118,1.33,0.609,1.756
			c0.297,0.258,0.962,0.345,1.597,0.529c0.417,0.121,1.008-0.301,1.604-0.229c0.455,0.055,0.93,0.238,1.503,0.258
			c0.415,0.014,0.849,0.056,1.302,0.061c0.427,0.005,0.874-0.125,1.315-0.112c0.436,0.013,0.854,0.482,1.286,0.518
			c0.443,0.037,0.935-0.288,1.353-0.209c0.443,0.083,0.805,0.478,1.198,0.627c0.463,0.175,1.066,0.127,1.49,0.384
			c0.427,0.259,0.834,0.66,1.155,1.043c0.336,0.402,0.115,1.107,0.303,1.597c0.186,0.485,0.957,0.801,1.071,1.307
			c0.102,0.455-0.206,0.999-0.13,1.462c0.076,0.462,0.092,0.925,0.135,1.39c0.043,0.467-0.188,0.926-0.186,1.392
			c0.003,0.47-0.02,0.898-0.066,1.362c-0.046,0.466,0.178,0.947,0.075,1.404c-0.102,0.455-0.178,0.912-0.344,1.352
			c-0.307,0.816-0.509,1.516-0.587,2.033c-0.079,0.516-0.598,1.094,0.02,1.419c0.45,0.237,0.858,0.228,1.216-0.133
			c0.643-0.648,0.288-1.568,0.473-1.983c0.339-0.141,0.99-0.261,1.318-0.762c0.231-0.353,0.043-1.001,0.243-1.493
			c0.168-0.413,0.369-0.83,0.501-1.321c0.119-0.442,0.413-0.865,0.494-1.356c0.076-0.459,0.238-0.932,0.272-1.422
			c0.033-0.468-0.136-0.958-0.148-1.444c-0.011-0.473-0.07-0.945-0.129-1.425c-0.058-0.471,0.27-1.033,0.16-1.502
			c-0.108-0.463-0.701-0.802-0.865-1.255c-0.162-0.447-0.616-0.734-0.837-1.163c-0.217-0.421,0.049-1.122-0.23-1.518
			c-0.271-0.385-0.565-0.796-0.899-1.151c-0.321-0.341-0.883-0.448-1.266-0.754c-0.363-0.291-0.889-0.316-1.312-0.571
			c-0.396-0.239-0.789-0.417-1.24-0.621c-0.421-0.19-0.664-0.84-1.135-0.995c-0.438-0.144-0.95-0.096-1.434-0.207
			c-0.45-0.103-0.847-0.646-1.338-0.718c-0.458-0.067-0.965-0.057-1.459-0.095C288.76,8.336,288.264,8.227,287.769,8.217z"/>
		<path style="fill:#B28867;" d="M282.858,37.936c0,0-2.356-2.239-4.063-0.915c-1.707,1.324-1.609,1.383-1.15,1.77
			c0.459,0.386,2.321-0.023,2.857-0.446C281.038,37.921,282.858,37.936,282.858,37.936z"/>
		<g>
			<path style="fill:#2F3540;" d="M278.774,35.418v0.907c0,0-1.774,0.471-2.438,1.51v-2.417H278.774z"/>
			<path style="fill:#2F3540;" d="M274.403,35.418c-0.014,0-0.03,0-0.044,0.003v-0.003H274.403z"/>
			<path style="fill:#2F3540;" d="M276.336,35.418v3.951h-1.933c-0.308,0-0.599-0.071-0.857-0.196
				c-0.22-0.105-0.416-0.247-0.579-0.423c-0.339-0.352-0.542-0.829-0.542-1.354c0-1.08,0.86-1.953,1.933-1.974
				c0.014-0.003,0.03-0.003,0.044-0.003H276.336z"/>
			<path style="fill:#2E333E;" d="M276.336,38.749v0.62h-1.933c-0.565,0-1.077-0.237-1.435-0.62H276.336z"/>
			<path style="fill:#2A2F39;" d="M276.336,39.173v0.196h-1.933c-0.308,0-0.599-0.071-0.857-0.196H276.336z"/>
			<path style="fill:#2A2F39;" d="M280.706,35.419v0.907c0,0-1.798,0.477-2.451,1.53c0,0,0,0.003-0.003,0.003
				c-0.207,0.867-0.985,1.51-1.916,1.51c-1.094,0-1.977-0.884-1.977-1.974c0-1.094,0.884-1.977,1.977-1.977H280.706z"/>
			<path style="fill:#353B47;" d="M276.336,39.027c0,0-0.02,0.001-0.058,0.002c-0.038-0.001-0.093,0.008-0.163-0.002
				c-0.142-0.008-0.347-0.043-0.571-0.151c-0.22-0.11-0.462-0.29-0.638-0.552c-0.089-0.13-0.157-0.279-0.209-0.436
				c-0.049-0.16-0.073-0.322-0.079-0.499c0.005-0.154,0.029-0.335,0.079-0.49c0.053-0.157,0.121-0.306,0.209-0.436
				c0.175-0.262,0.417-0.442,0.638-0.552c0.224-0.109,0.43-0.143,0.571-0.151c0.07-0.01,0.127-0.001,0.164-0.002
				c0.038,0.001,0.058,0.002,0.058,0.002s-0.081,0.006-0.217,0.033c-0.137,0.022-0.327,0.087-0.53,0.202
				c-0.203,0.117-0.405,0.307-0.56,0.548c-0.078,0.121-0.136,0.258-0.181,0.401c-0.041,0.148-0.058,0.287-0.061,0.453
				c0.002,0.144,0.02,0.302,0.061,0.445c0.045,0.143,0.103,0.281,0.181,0.401c0.154,0.242,0.357,0.432,0.56,0.548
				c0.203,0.115,0.393,0.181,0.53,0.202C276.255,39.021,276.336,39.027,276.336,39.027z"/>
		</g>
		<path style="fill:#D09F76;" d="M283.084,38.105c0,0-1.217-0.628-1.788-1.559c-0.622-1.014-0.714-1.608,0.396-1.877
			c0.573-0.139,3.24-0.133,3.24-0.133L283.084,38.105z"/>
		<path style="fill:#B28867;" d="M278.774,35.418c0,0,1.634-0.225,1.893,0.116c0.259,0.342,0.667,1.437,1.26,1.87
			c0,0-0.83-1.328-0.979-1.795c-0.149-0.467-0.597-0.523-0.597-0.523S279.076,34.89,278.774,35.418z"/>
		<path style="fill:#B28867;" d="M281.73,38.945c0,0-1.778,1.12-4.056,0.599C277.674,39.544,279.416,39.8,281.73,38.945z"/>
	</g>
	<path style="fill:#1C1F26;" d="M270.026,82.286c0,0-0.215,1.439,0,2.708c0,0,8.779,2.948,25.614,0.12c0,0,0.136-1.007,0.022-2.736
		C295.662,82.378,285.329,84.317,270.026,82.286z"/>
	<path style="fill:#2A354D;" d="M292.811,47.866c0,0-0.592,0.698-0.846,1.397l7.3,2.179c0,0,0.612-1.068,1-1.47
		C300.265,49.972,295.773,48.48,292.811,47.866z"/>
	<path style="fill:#2A354D;" d="M280.304,47.866c0,0-0.409,0.734-0.676,1.53l-6.494,1.536c0,0,0.322-1.053,0.774-1.641
		C273.908,49.291,276.581,48.321,280.304,47.866z"/>
	<g>
		<path style="fill:#F9CB4D;" d="M276.381,17.44l0.176-0.907c0,0,4.622-0.684,24.772,2.491v0.926
			C301.328,19.951,284.005,19.629,276.381,17.44z"/>
		<path style="fill:#20232B;" d="M301.327,19.952c0,0-0.748,0.142-2.031,0.342c-0.017,0.003-0.034,0.003-0.051,0.007
			c-5.681,0.887-21.553,2.861-29.536-1.188c0,0,2.492-0.86,6.653-1.669c0.01-0.003,0.017-0.003,0.017-0.003
			C293.551,19.024,297.674,19.498,301.327,19.952z"/>
		<path style="fill:#2B354D;" d="M276.575,16.57c0,0-0.553-2.427-3.669-4.457c-1.857-3.495,5.893-7.317,11.275-7.171
			c13.809,0.374,21.68,11.831,20.822,12.499c-1.171,0.91-3.622,0.525-3.706,1.584L276.575,16.57z"/>
		<path style="fill:#20232B;" d="M276.549,16.57c0,0-2.161-5.283,4.939-5.293c8.327-0.012,17.044,6.278,19.84,7.747L276.549,16.57z"
			/>
		<polygon style="fill:#F7E7BC;" points="276.381,17.44 276.777,16.917 288.667,17.77 276.549,16.57 		"/>
		<g>
			<path style="fill:#F9CB4D;" d="M283.868,12.845c0,1.469-1.114,2.661-2.485,2.661c-1.161,0-2.14-0.857-2.407-2.011
				c-0.051-0.207-0.078-0.427-0.078-0.65c0-1.469,1.114-2.661,2.485-2.661c0.173,0,0.339,0.017,0.501,0.054
				C283.015,10.486,283.868,11.559,283.868,12.845z"/>
			<polygon style="fill:#DBAC2D;" points="281.227,10.717 281.767,11.987 283.069,12.235 282.085,13.171 282.258,14.551 
				281.111,13.86 279.916,14.465 280.19,13.101 279.278,12.095 280.595,11.943 			"/>
			<polygon style="fill:#F7E7BC;" points="281.227,10.717 280.701,12.049 279.403,12.134 280.315,13.05 279.916,14.465 
				280.126,13.09 279.278,12.095 280.58,11.895 			"/>
			<path style="fill:#F7E7BC;" d="M281.884,10.238c-0.982,0.003-2.915,0.372-2.908,3.257c-0.051-0.207-0.078-0.427-0.078-0.65
				c0-1.469,1.114-2.661,2.485-2.661C281.556,10.184,281.722,10.201,281.884,10.238z"/>
		</g>
		<path style="fill:#313641;" d="M299.245,20.3c-5.681,0.887-21.553,2.861-29.536-1.188c0,0,2.492-0.86,6.653-1.669
			c-3.352,0.908-5.952,1.684-5.01,1.959C280.982,22.215,292.674,21.086,299.245,20.3z"/>
	</g>
	<g>
		<path style="fill:#F9CB4D;" d="M291.533,59.236c0.479-0.418,2.784-0.832,3.02-2.358c0.088-0.571-0.077-1.129-0.447-1.572
			c-0.069-0.083-0.119-0.196-0.125-0.35c-0.018-0.473,0.59-0.593,0.59-0.593s-0.043-0.704-0.212-1.099
			c-1.354,0.36-1.85-0.329-1.85-0.329L291.533,59.236z"/>
		<path style="fill:#F9CB4D;" d="M291.533,59.236c-0.33-0.543-2.402-1.635-2.166-3.161c0.088-0.571,0.415-1.053,0.902-1.364
			c0.091-0.058,0.173-0.151,0.225-0.295c0.161-0.445-0.383-0.743-0.383-0.743s0.254-0.658,0.534-0.983
			c1.182,0.753,1.863,0.246,1.863,0.246L291.533,59.236z"/>
		<path style="fill:#F7E7BC;" d="M290.927,58.612c-0.215-0.196-0.43-0.389-0.632-0.595c-0.098-0.106-0.2-0.208-0.287-0.321
			c-0.094-0.109-0.173-0.228-0.254-0.345c-0.069-0.124-0.145-0.245-0.194-0.376c-0.029-0.064-0.056-0.129-0.071-0.198
			c-0.015-0.068-0.044-0.135-0.048-0.202l-0.022-0.203c0.001-0.071,0.009-0.144,0.013-0.216c0.007-0.133,0.046-0.274,0.091-0.405
			c0.093-0.264,0.25-0.502,0.445-0.702c0.1-0.101,0.204-0.186,0.326-0.266c0.136-0.082,0.239-0.23,0.277-0.384
			c0.049-0.16,0.005-0.341-0.086-0.47c-0.079-0.116-0.179-0.205-0.294-0.28c0.063-0.155,0.13-0.309,0.204-0.459
			c0.077-0.153,0.162-0.302,0.264-0.435l0.177,0.1c0.076,0.036,0.151,0.073,0.228,0.106c0.079,0.027,0.155,0.064,0.237,0.083
			c0.08,0.024,0.162,0.043,0.245,0.056c0.082,0.015,0.166,0.021,0.25,0.023c0.084,0.002,0.167-0.003,0.25-0.015
			c0.164-0.025,0.327-0.077,0.463-0.172c-0.142,0.085-0.305,0.123-0.467,0.14c-0.081,0.007-0.163,0.008-0.244,0.001
			c-0.081-0.006-0.162-0.017-0.241-0.036c-0.08-0.016-0.157-0.039-0.234-0.067c-0.078-0.023-0.151-0.06-0.226-0.089
			c-0.073-0.035-0.145-0.073-0.217-0.11l-0.208-0.127l-0.036-0.022l-0.027,0.032c-0.127,0.147-0.225,0.311-0.316,0.477
			c-0.09,0.167-0.171,0.337-0.242,0.514l-0.02,0.05l0.049,0.03c0.112,0.068,0.223,0.163,0.293,0.272
			c0.073,0.109,0.101,0.238,0.064,0.358c-0.035,0.126-0.109,0.234-0.224,0.302c-0.121,0.078-0.245,0.176-0.35,0.281
			c-0.215,0.211-0.377,0.475-0.476,0.759c-0.047,0.144-0.086,0.286-0.094,0.443c-0.003,0.073-0.01,0.144-0.011,0.218l0.026,0.23
			c0.007,0.077,0.037,0.146,0.055,0.22c0.017,0.074,0.046,0.143,0.078,0.211c0.054,0.141,0.137,0.265,0.214,0.391
			c0.088,0.119,0.174,0.239,0.274,0.347c0.094,0.113,0.201,0.214,0.304,0.318c0.106,0.1,0.214,0.199,0.324,0.294
			c0.111,0.095,0.224,0.186,0.337,0.277c0.113,0.091,0.226,0.182,0.336,0.276c0.109,0.095,0.219,0.19,0.305,0.308
			c-0.078-0.123-0.179-0.23-0.285-0.33C291.143,58.806,291.035,58.709,290.927,58.612z"/>
		<path style="fill:#DBAC2D;" d="M292.3,58.824c0.264-0.122,0.528-0.24,0.782-0.376c0.125-0.071,0.253-0.138,0.371-0.219
			c0.123-0.075,0.234-0.165,0.346-0.252c0.103-0.097,0.212-0.189,0.299-0.3c0.047-0.052,0.092-0.106,0.127-0.167
			c0.035-0.06,0.082-0.115,0.107-0.178l0.082-0.186c0.02-0.068,0.035-0.14,0.053-0.21c0.033-0.129,0.039-0.276,0.035-0.413
			c-0.009-0.28-0.086-0.554-0.212-0.803c-0.065-0.127-0.138-0.239-0.23-0.352c-0.105-0.119-0.158-0.292-0.148-0.45
			c0.001-0.167,0.098-0.327,0.224-0.422c0.11-0.087,0.233-0.141,0.364-0.178c-0.013-0.166-0.03-0.334-0.055-0.499
			c-0.027-0.169-0.063-0.337-0.121-0.494l-0.199,0.042c-0.083,0.011-0.166,0.024-0.249,0.032c-0.084,0.002-0.167,0.014-0.251,0.008
			c-0.084-0.001-0.167-0.008-0.25-0.021c-0.083-0.011-0.165-0.03-0.245-0.053c-0.08-0.023-0.158-0.054-0.234-0.09
			c-0.149-0.073-0.289-0.173-0.389-0.304c0.11,0.124,0.254,0.21,0.403,0.275c0.075,0.031,0.153,0.057,0.232,0.075
			c0.079,0.019,0.159,0.033,0.24,0.039c0.081,0.008,0.162,0.01,0.243,0.007c0.081,0.002,0.162-0.012,0.243-0.016
			c0.08-0.011,0.16-0.026,0.24-0.039l0.237-0.058l0.041-0.01l0.016,0.038c0.077,0.179,0.121,0.365,0.157,0.551
			c0.035,0.187,0.061,0.373,0.075,0.563l0.004,0.054l-0.056,0.014c-0.128,0.031-0.262,0.088-0.362,0.171
			c-0.103,0.082-0.169,0.196-0.169,0.322c-0.004,0.131,0.033,0.256,0.122,0.355c0.092,0.111,0.181,0.242,0.249,0.373
			c0.141,0.266,0.216,0.567,0.224,0.868c0.001,0.152-0.004,0.299-0.044,0.451c-0.019,0.07-0.034,0.141-0.055,0.211l-0.094,0.212
			c-0.03,0.072-0.079,0.128-0.118,0.193c-0.039,0.065-0.087,0.122-0.138,0.177c-0.094,0.118-0.21,0.211-0.322,0.308
			c-0.12,0.087-0.238,0.176-0.366,0.248c-0.124,0.08-0.256,0.143-0.385,0.211c-0.132,0.063-0.264,0.125-0.398,0.182
			c-0.134,0.057-0.27,0.109-0.405,0.163c-0.135,0.053-0.271,0.105-0.404,0.162c-0.133,0.057-0.266,0.115-0.384,0.201
			c0.111-0.093,0.241-0.165,0.371-0.228C292.035,58.944,292.168,58.884,292.3,58.824z"/>
		<polygon style="fill:#F7E7BC;" points="292.457,53.025 292.086,53.212 291.686,53.71 292.249,53.351 		"/>
		<path style="fill:#F7E7BC;" d="M291.533,59.236l0.976-6.301c0,0-0.656,0.37-1.526-0.051c0,0,0.376,0.383,1.198,0.403
			L291.533,59.236z"/>
		<polygon style="fill:#F7E7BC;" points="290.378,54.719 290.899,54.338 290.442,54.522 		"/>
		<polygon style="fill:#DBAC2D;" points="292.276,54.429 292.554,55.375 293.458,55.659 292.682,56.242 292.691,57.236 
			291.934,56.651 291.035,56.98 291.343,56.036 290.779,55.246 291.726,55.247 		"/>
		<polygon style="fill:#F7E7BC;" points="292.276,54.429 291.793,55.331 290.865,55.284 291.436,56.01 291.035,56.98 
			291.298,56.022 290.779,55.246 291.72,55.212 		"/>
	</g>
	<path style="fill:#BDBEC0;" d="M281.48,82.802l-4.112-0.182c-0.264-0.011-0.489,0.194-0.504,0.458l-0.129,2.899
		c-0.011,0.264,0.194,0.493,0.462,0.504l4.109,0.182c0.268,0.011,0.493-0.194,0.504-0.458l0.129-2.899
		C281.949,83.041,281.744,82.813,281.48,82.802z M281.149,85.839c-0.006,0.078-0.07,0.136-0.148,0.133l-3.441-0.154
		c-0.078-0.003-0.136-0.066-0.133-0.144l0.101-2.229c0.003-0.078,0.066-0.139,0.144-0.133l3.441,0.154
		c0.078,0.003,0.136,0.066,0.133,0.144L281.149,85.839z"/>
	<polygon style="fill:#2D3952;" points="278.092,62.09 271.89,61.619 272.286,59.054 278.607,59.375 	"/>
	
		<ellipse transform="matrix(0.0907 -0.9959 0.9959 0.0907 189.8475 329.0652)" style="fill:#1F2738;" cx="275.12" cy="60.572" rx="0.79" ry="0.79"/>
	<polygon style="fill:#2D3952;" points="293.102,63.445 286.9,62.974 287.343,60.106 293.617,60.73 	"/>
	
		<ellipse transform="matrix(0.0907 -0.9959 0.9959 0.0907 202.1471 345.246)" style="fill:#1F2738;" cx="290.13" cy="61.927" rx="0.79" ry="0.79"/>
	<path style="fill:#1F2738;" d="M273.352,55.932l-0.217,1.088c0,0,2.198,0.178,4.717,0.273c0.003,0,0.221-1.081,0.221-1.081
		L273.352,55.932z"/>
	<path style="fill:#F9CB4D;" d="M277.994,49.189l-0.063-0.781l0.428-0.268c0,0-0.639,0.109-1.068,0.204l-0.302,0.214l0.063,0.811
		L277.994,49.189z"/>
	<path style="fill:#F9CB4D;" d="M276.178,49.613l-0.064-0.781l0.464-0.332c0,0-0.588,0.115-1.104,0.268l-0.302,0.214l0.063,0.811
		L276.178,49.613z"/>
	<path style="fill:#F9CB4D;" d="M293.811,49.369l0.871-0.906l-0.105-0.246c0,0,0.453,0.119,0.809,0.231l0.234,0.263l-0.833,0.969
		L293.811,49.369z"/>
	<path style="fill:#F9CB4D;" d="M296.531,50.114l0.788-0.841l-0.327-0.42c0,0,0.494,0.14,0.817,0.232l0.404,0.54l-0.76,0.74
		L296.531,50.114z"/>
	<polygon style="fill:#34425E;" points="267.101,31.869 270.73,35.417 266.538,32.078 	"/>
	<polygon style="fill:#34425E;" points="263.492,38.363 269.865,36.944 263.697,38.749 	"/>
	<polygon style="fill:#34425E;" points="263.432,34.697 269.865,36.007 263.212,35.08 	"/>
</g>
</svg>
