<svg id="Layer_1" data-name="Layer 1" xmlns="http://www.w3.org/2000/svg" viewBox="0 0 606 626"><defs><style>.cls-1{fill:red;}.cls-2{fill:#999;}</style></defs><title>MFM 2017 LOGO</title><rect class="cls-1" x="142.55" y="146.75" width="36.97" height="36.97"/><rect class="cls-1" x="132.31" y="409.26" width="36.97" height="36.97"/><path class="cls-1" d="M72.86,50.38A16.41,16.41,0,1,1,56.45,34a16.41,16.41,0,0,1,16.41,16.4"/><path class="cls-1" d="M100.76,70.9A15.59,15.59,0,1,1,85.17,55.32,15.58,15.58,0,0,1,100.76,70.9"/><rect x="511.85" y="46.35" width="40.85" height="40.85"/><rect x="501.51" y="243.16" width="41.01" height="41.01"/><rect x="238.97" y="185.75" width="24.61" height="24.61"/><rect class="cls-1" x="113.89" y="185.75" width="24.61" height="24.61"/><rect x="273.86" y="167.27" width="26.68" height="26.68"/><path d="M71.38,531.24l12.32-37.86h18.48v1.56h-1.47a5.32,5.32,0,0,0-3.21.89,4,4,0,0,0-1.35,2,21.34,21.34,0,0,0-.37,5.28V541a23.61,23.61,0,0,0,.37,5.51,3.84,3.84,0,0,0,1.51,1.91,5,5,0,0,0,3,.83h1.47v1.56H78.48v-1.56H80a5.19,5.19,0,0,0,3.21-.89,4,4,0,0,0,1.34-2,22.06,22.06,0,0,0,.36-5.33V498.41L67.47,550.78h-.81L49,498.81v40.42a44.48,44.48,0,0,0,.17,5.21A6.26,6.26,0,0,0,51,547.89a6.65,6.65,0,0,0,4.58,1.33v1.56H40.08v-1.56h.46a6,6,0,0,0,2.82-.6,4.8,4.8,0,0,0,2-1.76,9.24,9.24,0,0,0,1-3.1c0-.3.06-1.74.06-4.3V503.11a23.18,23.18,0,0,0-.37-5.43,3.94,3.94,0,0,0-1.51-1.91,5.05,5.05,0,0,0-3-.83H40.08v-1.56H58.63Z"/><path d="M122.11,496.69V520h.9a6.68,6.68,0,0,0,6.27-3.42q1.93-3.44,2.47-10.13H133v30.07h-1.28a27.07,27.07,0,0,0-1.7-8.05,8.79,8.79,0,0,0-3-4.22,9.36,9.36,0,0,0-5-1.08V539.4a29.3,29.3,0,0,0,.32,5.79,3.36,3.36,0,0,0,1.19,1.74,4.54,4.54,0,0,0,2.81.68h2.71q6.37,0,10.19-3.74t5.51-11.33h1.24l-2,18.23H104.8v-1.57h1.51a5.17,5.17,0,0,0,3.18-.88,3.72,3.72,0,0,0,1.34-2,21.54,21.54,0,0,0,.37-5.33V503.21a38.57,38.57,0,0,0-.16-4.8,4.18,4.18,0,0,0-1.24-2.28,4.9,4.9,0,0,0-3.48-1.19H104.8v-1.56h38v17h-1.28c-.64-4.15-1.55-7.12-2.72-8.94a10.19,10.19,0,0,0-5-4q-1.87-.76-7-.76Z"/><path d="M196.49,492.07v20.24h-1.24c-1.5-5.54-3.74-9.73-6.73-12.62a14,14,0,0,0-9.81-4.32,11.11,11.11,0,0,0-8.48,3.62q-3.39,3.61-4.79,10.1A62.17,62.17,0,0,0,164,522.39a60.41,60.41,0,0,0,1.55,14.46c1,4.16,2.68,7.2,5,9.15a12.22,12.22,0,0,0,8.16,2.93,14.19,14.19,0,0,0,3.36-.45,20.79,20.79,0,0,0,3.53-1.3V535.25a15.68,15.68,0,0,0-.37-4.38,3.9,3.9,0,0,0-1.52-1.81,4.78,4.78,0,0,0-2.8-.8h-1.17v-1.57h22.06v1.57a8,8,0,0,0-3.5.87,4.24,4.24,0,0,0-1.52,2.19,15.42,15.42,0,0,0-.3,3.94v11.93a37.75,37.75,0,0,1-18.82,5,23.33,23.33,0,0,1-10.74-2.21,26.73,26.73,0,0,1-7.54-5.86,27.47,27.47,0,0,1-5.1-8.14A34.86,34.86,0,0,1,152,522.85q0-13,7.2-21.89T177.27,492a25.57,25.57,0,0,1,6.09.66,28.22,28.22,0,0,1,4.77,1.93,16.6,16.6,0,0,0,3.9,1.59,2.37,2.37,0,0,0,1.74-.86,8.42,8.42,0,0,0,1.47-3.29Z"/><path d="M231,534.45H215L213.1,540a15.25,15.25,0,0,0-.94,4.62,4.12,4.12,0,0,0,1.54,3.55c.6.46,2.09.79,4.46,1v1.56H203v-1.56a6.37,6.37,0,0,0,4-2.55q1.58-2.12,3.88-8.66l16.24-45.81h.64l16.38,47.08q2.35,6.7,3.85,8.42a4.64,4.64,0,0,0,3.22,1.52v1.56h-22v-1.56h.9a5.74,5.74,0,0,0,3.72-.92,2.54,2.54,0,0,0,.74-2,6.55,6.55,0,0,0-.19-1.56c-.05-.25-.38-1.31-1-3.18Zm-1.14-3.13-6.77-19.76-7,19.76Z"/><path d="M284.26,496.69v23.58h1.3a9.61,9.61,0,0,0,4.93-1.13,8.9,8.9,0,0,0,3.22-3.87,21.28,21.28,0,0,0,1.73-7.32h1.17v28.83h-1.17Q294.8,528.6,292,526a9.24,9.24,0,0,0-6.41-2.59h-1.3V541a23.32,23.32,0,0,0,.38,5.51,4.13,4.13,0,0,0,1.5,1.91,5,5,0,0,0,3,.82h1.51v1.57H266.94v-1.57h1.51a5.15,5.15,0,0,0,3.18-.88,3.69,3.69,0,0,0,1.34-2,21.36,21.36,0,0,0,.37-5.33V503.21a23.07,23.07,0,0,0-.37-5.51,3.92,3.92,0,0,0-1.48-1.93,5,5,0,0,0-3-.83h-1.51v-1.56h38.31v16.47h-1.37q-.47-5.82-2.4-8.6a10.24,10.24,0,0,0-5.57-3.94,28.52,28.52,0,0,0-7.43-.63Z"/><path d="M333.78,492.57a20.16,20.16,0,0,1,17.63,8q6.79,8.51,6.79,21.29a36.25,36.25,0,0,1-5.06,19.23q-6.71,11-18.93,11t-19-10.49c-3.53-5.54-5.28-12.09-5.28-19.69q0-12.78,6.88-21.32t16.92-8m.4,2.72q-6.22,0-9.47,8-2.65,6.6-2.65,19,0,14.69,4.09,21.71,2.83,4.91,8,4.92a8.21,8.21,0,0,0,5.76-2.12q2.94-2.7,4.59-8.65a60.68,60.68,0,0,0,1.64-15.51q0-11.39-1.68-17t-4.27-8A8.72,8.72,0,0,0,334.18,495.29Z"/><path d="M378.85,524.62v16.09a22.07,22.07,0,0,0,.46,5.86,3.8,3.8,0,0,0,1.59,1.93,8.8,8.8,0,0,0,4.25.71v1.56H361.91v-1.56a8.63,8.63,0,0,0,4.28-.73,4.07,4.07,0,0,0,1.57-1.93,22,22,0,0,0,.45-5.84V503.46a22.25,22.25,0,0,0-.45-5.87,3.84,3.84,0,0,0-1.59-1.92,8.65,8.65,0,0,0-4.26-.73v-1.56H383c5.48,0,9.5.48,12,1.44a12.54,12.54,0,0,1,6.23,5.32,16.84,16.84,0,0,1,2.41,9.08,15.41,15.41,0,0,1-3.61,10.49,14,14,0,0,1-6.47,3.94l10.92,19.44a29.23,29.23,0,0,0,3,4.7,5,5,0,0,0,3.18,1.43v1.56H396.47l-14.63-26.16Zm0-28.16v25.15h1.91a17.12,17.12,0,0,0,7-1.08,7.61,7.61,0,0,0,3.64-3.9,17.59,17.59,0,0,0,1.31-7.34c0-4.37-.81-7.61-2.42-9.7s-4.22-3.13-7.82-3.13Z"/><path d="M451,493.38v15.54h-1.2a28.57,28.57,0,0,0-2.38-7.72,10,10,0,0,0-3.59-3.75,9.29,9.29,0,0,0-4.46-.76H436V541a23,23,0,0,0,.39,5.51,4,4,0,0,0,1.51,1.91,5.06,5.06,0,0,0,3.06.82h1.5v1.56H418.7v-1.56h1.51a5.22,5.22,0,0,0,3.19-.89,3.89,3.89,0,0,0,1.38-2,22,22,0,0,0,.37-5.33V496.69h-3.28c-3.06,0-5.28.83-6.67,2.46q-2.91,3.41-3.68,9.78h-1.27V493.38Z"/><path d="M471.71,524.62v16.09a22.7,22.7,0,0,0,.45,5.86,3.87,3.87,0,0,0,1.6,1.93,8.81,8.81,0,0,0,4.25.71v1.56H454.76v-1.56a8.63,8.63,0,0,0,4.28-.73,4,4,0,0,0,1.56-1.93,21.55,21.55,0,0,0,.46-5.84V503.46a21.81,21.81,0,0,0-.46-5.87,3.79,3.79,0,0,0-1.58-1.92,8.68,8.68,0,0,0-4.26-.73v-1.56h21.1q8.23,0,12.06,1.44a12.54,12.54,0,0,1,6.23,5.32,16.84,16.84,0,0,1,2.41,9.08,15.41,15.41,0,0,1-3.61,10.49,14,14,0,0,1-6.47,3.94l10.92,19.44a29.23,29.23,0,0,0,3,4.7,5,5,0,0,0,3.17,1.43v1.56H489.33l-14.64-26.16Zm0-28.16v25.15h1.91a17.12,17.12,0,0,0,7-1.08,7.6,7.6,0,0,0,3.63-3.9,17.47,17.47,0,0,0,1.32-7.34c0-4.37-.81-7.61-2.43-9.7s-4.21-3.13-7.82-3.13Z"/><path d="M528.13,549.21v1.56H504.39v-1.56h1.51a5.17,5.17,0,0,0,3.18-.88,3.66,3.66,0,0,0,1.34-2,21.2,21.2,0,0,0,.37-5.34V503.2a22.76,22.76,0,0,0-.37-5.5,4,4,0,0,0-1.48-1.94,5,5,0,0,0-3-.82h-1.51v-1.57h23.74v1.57h-1.51a5.27,5.27,0,0,0-3.18.88,4,4,0,0,0-1.38,2,22,22,0,0,0-.37,5.33V541a23.27,23.27,0,0,0,.38,5.51,4,4,0,0,0,1.51,1.91,4.94,4.94,0,0,0,3,.83Z"/><path d="M561.92,492.07l.37,19.13h-1.38a21.56,21.56,0,0,0-4.77-11.56c-2.53-2.93-5.27-4.39-8.23-4.39a6.73,6.73,0,0,0-5.4,2.31,8.2,8.2,0,0,0-1.29,8.68,13.3,13.3,0,0,0,3.12,3.94,65.37,65.37,0,0,0,7.27,5q8,5,10.75,9.35a18.66,18.66,0,0,1,2.75,10.08,18.41,18.41,0,0,1-4.43,12.37,14.17,14.17,0,0,1-11.27,5.2,14.53,14.53,0,0,1-4.05-.55,26.6,26.6,0,0,1-4.8-2.07,6.06,6.06,0,0,0-2.64-.84,2.89,2.89,0,0,0-1.84.84,5.91,5.91,0,0,0-1.58,2.57h-1.23V530.42h1.23c1,6.09,2.88,10.75,5.68,13.95s5.82,4.81,9.06,4.81a7.55,7.55,0,0,0,6-2.58,9,9,0,0,0,2.22-6,9.55,9.55,0,0,0-.85-3.94A12,12,0,0,0,554,533a38.21,38.21,0,0,0-6.16-4.47,50.81,50.81,0,0,1-8.91-6.57,19.4,19.4,0,0,1-4.17-6,18.24,18.24,0,0,1-1.45-7.37,17.75,17.75,0,0,1,4-11.68,12.47,12.47,0,0,1,10-4.83,13.45,13.45,0,0,1,4.3.68,18.91,18.91,0,0,1,3.83,1.88,7.69,7.69,0,0,0,3.16,1.38,1.61,1.61,0,0,0,1.38-.68,9.09,9.09,0,0,0,.93-3.26Z"/><path class="cls-2" d="M71.41,574.63v11.59h-.87A14.77,14.77,0,0,0,65.83,579,10.87,10.87,0,0,0,59,576.52,8.62,8.62,0,0,0,53,578.6a11.22,11.22,0,0,0-3.35,5.78,29.84,29.84,0,0,0-1,7.6,28.86,28.86,0,0,0,1.08,8.27,9.44,9.44,0,0,0,3.48,5.24,9.78,9.78,0,0,0,5.7,1.68,10.9,10.9,0,0,0,2.36-.28,15.52,15.52,0,0,0,2.47-.72v-6.84a7.56,7.56,0,0,0-.26-2.5,2.33,2.33,0,0,0-1.07-1,3.77,3.77,0,0,0-2-.46H59.7v-.91H75.13v.91a6.4,6.4,0,0,0-2.45.49,2.53,2.53,0,0,0-1.07,1.25,7.51,7.51,0,0,0-.2,2.25v6.84a30.63,30.63,0,0,1-6.33,2.12,32,32,0,0,1-6.82.71,19.24,19.24,0,0,1-7.51-1.28,18.38,18.38,0,0,1-5.27-3.34,15.71,15.71,0,0,1-3.57-4.65,17,17,0,0,1-1.64-7.49A17.33,17.33,0,0,1,58,574.61a22,22,0,0,1,4.26.38,21.37,21.37,0,0,1,3.34,1.11,13.77,13.77,0,0,0,2.72.9,1.79,1.79,0,0,0,1.22-.49,4.49,4.49,0,0,0,1-1.88Z"/><path class="cls-2" d="M177.09,593.25v9.21a10.48,10.48,0,0,0,.32,3.36,2.23,2.23,0,0,0,1.11,1.09,7.08,7.08,0,0,0,3,.41v.9H165.24v-.9a7.07,7.07,0,0,0,3-.43,2.4,2.4,0,0,0,1.1-1.09,10.62,10.62,0,0,0,.32-3.34V581.15a10.78,10.78,0,0,0-.32-3.36,2.43,2.43,0,0,0-1.12-1.11,7.42,7.42,0,0,0-3-.4v-.89H180a30.71,30.71,0,0,1,8.43.83,8.55,8.55,0,0,1,4.37,3,8.36,8.36,0,0,1,1.68,5.19,7.92,7.92,0,0,1-2.54,6,10.46,10.46,0,0,1-4.52,2.24l7.64,11.11a16.63,16.63,0,0,0,2.12,2.69,3.83,3.83,0,0,0,2.23.83v.9h-10l-10.23-15Zm0-16.09v14.37h1.33a14.43,14.43,0,0,0,4.88-.61,4.88,4.88,0,0,0,2.54-2.21,8.46,8.46,0,0,0,.92-4.22c0-2.49-.56-4.35-1.7-5.53s-2.95-1.79-5.46-1.79Z"/><path class="cls-2" d="M306.24,574.93a15.48,15.48,0,0,1,12.33,4.57,16.74,16.74,0,0,1,4.75,12.19,17.9,17.9,0,0,1-3.53,11c-3.13,4.21-7.54,6.3-13.23,6.3s-10.14-2-13.26-6a17.82,17.82,0,0,1-3.7-11.27,16.59,16.59,0,0,1,4.81-12.19,15,15,0,0,1,11.84-4.59m.28,1.55q-4.35,0-6.62,4.58c-1.24,2.54-1.86,6.14-1.86,10.86q0,8.41,2.86,12.42a6.46,6.46,0,0,0,5.57,2.82,6.56,6.56,0,0,0,4-1.22,10,10,0,0,0,3.21-5,28.48,28.48,0,0,0,1.14-8.87c0-4.33-.39-7.6-1.17-9.75a9.54,9.54,0,0,0-3-4.56A7,7,0,0,0,306.52,576.48Z"/><path class="cls-2" d="M414.87,575.39h16.39v.88h-.81a5.56,5.56,0,0,0-2.54.41,2.26,2.26,0,0,0-1,1.09,12.61,12.61,0,0,0-.29,3.52v16.08c0,2.94.23,4.89.65,5.84a5.58,5.58,0,0,0,2.11,2.37,6.77,6.77,0,0,0,3.73.95,7.84,7.84,0,0,0,4.39-1.21,7.3,7.3,0,0,0,2.72-3.31c.6-1.41.9-3.84.9-7.34V581.3a8.11,8.11,0,0,0-.44-3.15,2.7,2.7,0,0,0-1.13-1.3,6.32,6.32,0,0,0-3-.58v-.88h11v.88h-.65a4,4,0,0,0-2.22.58,3.06,3.06,0,0,0-1.29,1.66,8.66,8.66,0,0,0-.31,2.79v12.47a33.9,33.9,0,0,1-.73,8.35,9.39,9.39,0,0,1-3.61,4.73A12.71,12.71,0,0,1,431,609a14.38,14.38,0,0,1-6.37-1.13,9.43,9.43,0,0,1-4.33-4,14.18,14.18,0,0,1-1.26-6.52V581.3a11.94,11.94,0,0,0-.31-3.52,2.25,2.25,0,0,0-1.05-1.11,6.32,6.32,0,0,0-2.77-.4Z"/><path class="cls-2" d="M550.07,593.35v9.11a10.47,10.47,0,0,0,.31,3.36,2.23,2.23,0,0,0,1.12,1.09,7.13,7.13,0,0,0,3,.41v.9H538.33v-.9a7.08,7.08,0,0,0,3-.43,2.44,2.44,0,0,0,1.1-1.09,10.33,10.33,0,0,0,.32-3.34V581.15a10.55,10.55,0,0,0-.32-3.36,2.48,2.48,0,0,0-1.11-1.1,7.45,7.45,0,0,0-3-.41v-.88h13.84c4.55,0,7.83.83,9.81,2.51a7.91,7.91,0,0,1,3,6.3,8.23,8.23,0,0,1-1.92,5.48,9.71,9.71,0,0,1-5.3,3.1,35.67,35.67,0,0,1-7.67.57m0-16.08v14.2c.51,0,.9,0,1.17,0a5.55,5.55,0,0,0,4.4-1.76c1-1.18,1.54-3,1.54-5.45s-.52-4.21-1.54-5.35a6,6,0,0,0-4.62-1.7Z"/><path class="cls-2" d="M565.09,101.65V97.57H501.5V34h-4.07V97.57H435.88V34H431.8V97.57H370.25V34h-4.07V97.57H304.61V34h-4.07V97.57H239V34h-4.08V97.57H173.35V34h-4.07V97.57H107.72V34h-4.08V97.57H40.06v4.08h63.59V163.2H40.06v4.07h63.59v61.57H40.06v4.08h63.59v61.55H40.06v4.07h63.59V360.1H40.06v4.07h63.59v61.56H40.06v4.08h63.59v22.58h4.08V429.8h61.55v22.58h4.07V429.8h61.57v22.58H239V429.8h61.55v22.57h4.07V429.8h61.56v22.57h4.07V429.8H431.8v22.57h4.08V429.8h61.55v22.57h4.07V429.8h63.59v-4.08H501.5V364.16h63.59V360.1H501.5V298.54h63.59v-4.07H501.5V232.91h63.59v-4.08H501.5V167.27h63.59V163.2H501.5V101.65ZM431.8,163.2H370.25V101.66H431.8ZM304.61,232.91h61.56v61.56H304.61Zm-4.07,61.55H239V232.9h61.56Zm4.07-127.19h61.56v61.56H304.61Zm-4.07,61.57H239V167.28h61.56Zm-65.63,0H173.35V167.28h61.57Zm0,65.63H173.35V232.9h61.57Zm0,65.63H173.35V298.54h61.57ZM239,298.54h61.56V360.1H239Zm65.62,0h61.56V360.1H304.61Zm65.63,0H431.8V360.1H370.25Zm0-65.62H431.8v61.56H370.25Zm0-65.64H431.8v61.56H370.25Zm-4.07-4.07H304.61V101.66h61.56Zm-65.63,0H239V101.66h61.56Zm-65.63,0H173.35V101.66h61.57ZM107.72,101.65h61.56V163.2H107.72Zm0,65.62h61.56v61.56H107.72Zm0,65.64h61.56v61.56H107.72Zm0,65.62h61.56V360.1H107.72Zm0,65.63h61.56v61.56H107.72Zm65.62,0h61.57v61.56H173.35Zm65.64,0h61.56v61.56H239Zm65.62,0h61.56v61.56H304.61Zm65.63,0H431.8v61.56H370.25Zm127.18,61.56H435.87V364.16h61.56Zm0-65.62H435.87V298.54h61.56Zm0-65.63H435.87V232.9h61.56Zm0-65.63H435.87V167.28h61.56Zm0-65.63H435.87V101.66h61.56Z"/><path d="M536.37,362.13a16.41,16.41,0,1,1-16.4-16.4,16.41,16.41,0,0,1,16.4,16.4"/><path d="M565.08,382.63A15.59,15.59,0,1,1,549.5,367a15.59,15.59,0,0,1,15.58,15.58"/><rect class="cls-1" x="40.04" y="466.73" width="525.04" height="4.08"/><path d="M369.66,363.37c-9.12-9.21-15.18-16.55-18.55-22.45s-4-10-4.05-14.28c0-.69,0-1.39.08-2.24.07-1.9,1.19-8,10.22-23.49,3.37-5.86,7.38-12.43,11.8-19.65,4-6.62,8.43-13.78,13-21.45,12.64-21.38,30-50.67,32.75-89.89.17-2.59.25-5.13.25-7.66C415,106.57,371.39,71.47,352.64,59c-22.76-15.23-50.92-29.71-102.42-32.41-4.23-.23-8.41-.33-12.58-.33-37.24,0-75.32,8.83-99.4,22.95-41.86,24.66-57.83,60-58.81,84.93,0,1.2-.06,2.4-.06,3.58,0,17.12,4.65,33.2,7.16,41.84.42,1.45.78,2.67,1,3.64A25.09,25.09,0,0,1,88.65,189c.07,2.28-2,6.59-7.24,15.4L76.27,213c-7.6,12.76-14.17,23.79-21.41,37.1-2,3.71-3.81,7.82-3.85,12.63a15.39,15.39,0,0,0,5,11.46c5.34,4.9,13.86,8.77,24.66,13.65A11,11,0,0,1,84,290h0a3.1,3.1,0,0,1-.25.82c-.23.59-.49,1.2-.77,1.84a23.16,23.16,0,0,0-2.39,9.12,14.66,14.66,0,0,0,5.65,11.45,46.09,46.09,0,0,0,3.79,2.86,19.26,19.26,0,0,0-5.56,4,12,12,0,0,0-3.35,8.27c.12,4.4,2.21,7.26,3.81,9.45.65.84,1.31,1.64,1.95,2.4.8,1,1.56,1.88,2.15,2.74.18.26.51.74.54,2.6,0,3.23-1.47,9.15-3.16,15.45a22.39,22.39,0,0,0-.74,5.67c0,6.59,3.32,12.91,9.2,17.31,4.56,3.45,10.45,6,17.54,7.56a67.69,67.69,0,0,0,14.91,1.67c8.95,0,19-1.6,36.69-4.94a45.51,45.51,0,0,1,8.32-.85c6.31,0,9.6,1.76,12,3.43,2.94,2.1,5.36,5.2,8.25,8.87,5.47,6.91,12.27,16.22,20.24,27.69l.85,1.21h18.07l-3.05-4.44c-6.58-9.59-16.17-23.22-24.44-33.7l-.78-1A53,53,0,0,0,193,378.73a34.08,34.08,0,0,0-20.49-6.25,53.61,53.61,0,0,0-11.28,1.13c-16,3-26.18,4.67-33.77,4.67h-.16a52.09,52.09,0,0,1-11.7-1.32c-4.79-1-9.05-2.82-11.69-4.85-2.94-2.31-3.37-4-3.39-5.48a7.3,7.3,0,0,1,.28-1.94l.51-2c1.65-6.38,3.06-11.89,3.09-17.19a18.74,18.74,0,0,0-3.21-11.12c-1-1.47-2.11-2.78-3.07-3.92l-1-1.21a22.15,22.15,0,0,1,4.21-1.23,62.86,62.86,0,0,1,9.31-1.14,19.45,19.45,0,0,0,3-.33,8.82,8.82,0,0,0,2.41-.88,7.8,7.8,0,0,0,2.21-1.85,7.6,7.6,0,0,0-1.11-10.75,11,11,0,0,0-2.71-1.62c-.72-.31-1.61-.66-2.64-1.07-4.4-1.74-11.05-4.36-15.84-8.41-.21-.21-.38-.36-.46-.36a50.29,50.29,0,0,1,2.06-5.21A16.86,16.86,0,0,0,98.88,290c.12-6.5-4.55-12.55-12.14-15.75-4.27-1.89-17.27-7.67-20.57-10.91l-2,2,1.68-2.69a14.32,14.32,0,0,1,2.07-5.52c7.23-13.33,13.91-24.51,21.64-37.48L94.22,212c6.05-10.28,9.22-16,9.31-23.08a37.32,37.32,0,0,0-1.61-9.57l-1-3.48c-2.35-8.09-6.71-23.15-6.71-38.16,0-1,0-2,.06-3,.81-20,14.77-51.11,51.51-72.73,16.29-9.65,50-20.89,91.61-20.89,3.9-.12,8,.09,12,.32,45.33,2.49,70,13.3,95,29.93,16.83,11.21,56,42.51,55.87,90.94,0,2.17-.08,4.38-.23,6.61-2.37,33-15.31,57.3-30.73,83.38-4.43,7.51-8.74,14.54-12.74,21.1-4.48,7.33-8.59,14.05-12.11,20.16-7.42,13.08-11.56,21.74-12.17,30.11,0,1-.09,2-.09,3a42.2,42.2,0,0,0,6,21.64c4.16,7.27,10.61,15.15,20.91,25.57,19.39,19.59,38.33,38.71,53.38,53.88l.83.84h20.79Z"/><path class="cls-1" d="M540.21,422.48c-15.72-15.85-36.86-37.19-58.56-59.11-9.11-9.19-15.18-16.54-18.55-22.46s-4-10-4.05-14.27c0-.68,0-1.4.08-2.23.07-1.91,1.19-8,10.23-23.5,3.4-5.92,7.46-12.55,11.92-19.85,4-6.56,8.35-13.64,12.83-21.24,12.64-21.4,29.94-50.71,32.72-89.87.19-2.6.28-5.14.28-7.66C527,106.57,483.39,71.47,464.63,59c-22.78-15.24-51-29.72-102.43-32.41q-6.35-.34-12.58-.34c-37.23,0-75.32,8.83-99.4,23-41.88,24.67-57.84,60.05-58.81,84.93,0,1.19-.06,2.41-.06,3.59,0,17.13,4.66,33.21,7.17,41.84.42,1.45.78,2.67,1,3.62a26.1,26.1,0,0,1,1.11,5.83c.07,2.26-2,6.57-7.24,15.39l-5,8.44c-7.65,12.83-14.26,23.91-21.52,37.3-2,3.7-3.83,7.8-3.87,12.63a15.32,15.32,0,0,0,5,11.45c5.34,4.91,13.86,8.78,24.65,13.67,3.84,1.86,3.4,2.14,3.4,2.14a2.67,2.67,0,0,1-.24.81c-.22.59-.49,1.19-.76,1.82a23.05,23.05,0,0,0-2.4,9.12,14.73,14.73,0,0,0,5.65,11.48q1.77,1.47,3.78,2.85a19.26,19.26,0,0,0-5.56,4,12,12,0,0,0-3.35,8.26c.1,4.39,2.19,7.24,3.82,9.46.63.82,1.28,1.59,1.9,2.34.82,1,1.59,1.91,2.2,2.79.18.26.51.74.53,2.58,0,3.23-1.47,9.14-3.14,15.44a22.09,22.09,0,0,0-.76,5.68c0,6.59,3.32,12.91,9.21,17.33,4.55,3.44,10.45,6,17.54,7.56a67.49,67.49,0,0,0,14.8,1.66h.11c8.93,0,18.94-1.59,36.69-4.92a45.36,45.36,0,0,1,8.32-.86c6.31,0,9.6,1.76,12,3.43,2.94,2.11,5.39,5.22,8.25,8.86,5.48,6.92,12.29,16.24,20.24,27.69l.85,1.21h18.06l-3.05-4.44c-6.59-9.6-16.18-23.24-24.43-33.69l-.81-1c-2.74-3.46-5.84-7.37-10.4-10.67a34,34,0,0,0-20.49-6.25,51.73,51.73,0,0,0-11.28,1.12c-16,3-26.18,4.68-33.86,4.68h-.06A52.14,52.14,0,0,1,227.64,377c-4.77-1-9-2.81-11.68-4.84-2.79-2.19-3.37-3.8-3.39-5.5a7.53,7.53,0,0,1,.28-1.93l.45-1.76c1.68-6.47,3.12-12.07,3.16-17.46a18.69,18.69,0,0,0-3.21-11.11c-1-1.42-2-2.7-3-3.82-.39-.46-.74-.89-1.08-1.32A22.74,22.74,0,0,1,213.4,328a58.87,58.87,0,0,1,9.29-1.13,18.45,18.45,0,0,0,3-.34,8.32,8.32,0,0,0,2.36-.86,7.29,7.29,0,0,0,2.25-1.86,7.61,7.61,0,0,0,1.73-5,7.82,7.82,0,0,0-2.86-5.8,12.25,12.25,0,0,0-2.7-1.59c-.7-.3-1.57-.65-2.56-1-4.42-1.74-11.1-4.36-15.93-8.44a1.45,1.45,0,0,0-.45-.36,52.24,52.24,0,0,1,2.06-5.21,16.78,16.78,0,0,0,1.32-6.32c.11-6.5-4.57-12.54-12.15-15.75-4.25-1.88-17.2-7.64-20.57-10.92l-2,2h0l1.69-2.68a14.32,14.32,0,0,1,2.07-5.52c7.25-13.33,13.93-24.55,21.68-37.53l4.6-7.71c6-10.29,9.21-16,9.31-23.08a37.43,37.43,0,0,0-1.61-9.57l-1-3.41c-2.36-8.1-6.73-23.18-6.73-38.22,0-1,0-2,.06-3,.82-20.06,14.79-51.13,51.51-72.74,16.29-9.65,50.07-20.9,91.66-20.9,3.9.06,8,.1,11.95.32,45.2,2.48,70.67,13.77,95,29.93,16.83,11.21,56,42.52,55.87,91,0,2.16-.07,4.35-.24,6.58-2.37,33.06-15.31,57.32-30.72,83.39-4.39,7.44-8.65,14.41-12.62,20.9-4.53,7.41-8.68,14.2-12.23,20.37-7.42,13.06-11.57,21.71-12.17,30.07-.06,1-.1,2-.1,3a42.27,42.27,0,0,0,6,21.65c4.15,7.26,10.6,15.14,20.91,25.56,19.39,19.6,38.33,38.71,53.38,53.88l.83.84h20.79Z"/></svg>